<svg width="42" height="41" viewBox="0 0 42 41" fill="none" xmlns="http://www.w3.org/2000/svg">
<path d="M20.9099 0.0772705C16.7743 0.0772705 12.7316 1.25252 9.29298 3.45439C5.85437 5.65626 3.1743 8.78587 1.59168 12.4474C0.00905991 16.109 -0.405025 20.1381 0.401787 24.0252C1.2086 27.9124 3.20007 31.4829 6.12437 34.2853C9.04867 37.0878 12.7744 38.9963 16.8306 39.7695C20.8867 40.5427 25.091 40.1459 28.9117 38.6292C32.7325 37.1125 35.9982 34.5441 38.2958 31.2488C40.5934 27.9534 41.8198 24.0792 41.8198 20.1159C41.8198 14.8013 39.6168 9.70442 35.6954 5.94645C31.774 2.18848 26.4555 0.0772705 20.9099 0.0772705ZM31.3235 14.0516C30.8293 14.7631 30.2254 15.3987 29.5324 15.9368C29.4451 16.0066 29.3751 16.0941 29.3275 16.1931C29.2799 16.2921 29.2559 16.4 29.2573 16.5089V16.5749C29.2493 18.0038 28.9753 19.4199 28.4484 20.7566C27.9055 22.1596 27.0989 23.4554 26.0686 24.5798C24.684 26.0903 22.9028 27.2183 20.9099 27.8466C19.6003 28.2539 18.2312 28.4577 16.8545 28.4504C14.6703 28.4501 12.5251 27.8961 10.6365 26.8447C10.5689 26.8078 10.5156 26.7508 10.4848 26.6822C10.454 26.6137 10.4474 26.5374 10.466 26.465C10.485 26.3937 10.5284 26.3305 10.5892 26.2856C10.6501 26.2407 10.7248 26.2166 10.8016 26.2171H11.3244C12.984 26.2199 14.6068 25.748 15.9851 24.8619C15.164 24.7334 14.3958 24.3906 13.7648 23.871C13.1339 23.3514 12.6645 22.6753 12.4084 21.9167C12.3953 21.8788 12.3929 21.8381 12.4015 21.799C12.4101 21.7598 12.4293 21.7236 12.4572 21.6938C12.4852 21.6641 12.5208 21.642 12.5606 21.6297C12.6003 21.6175 12.6427 21.6155 12.6835 21.6241C12.9339 21.6692 13.1881 21.6922 13.4429 21.6926H13.5392C12.7454 21.3435 12.0743 20.7814 11.607 20.0743C11.1397 19.3673 10.8962 18.5455 10.9062 17.7086C10.9064 17.6695 10.9173 17.631 10.9377 17.5971C10.9581 17.5632 10.9873 17.5349 11.0224 17.515C11.0576 17.495 11.0976 17.4842 11.1384 17.4835C11.1793 17.4828 11.2197 17.4922 11.2556 17.5109C11.5783 17.6836 11.9247 17.8123 12.2846 17.8932C11.5739 17.2189 11.1167 16.3377 10.9848 15.3877C10.8528 14.4377 11.0535 13.4725 11.5555 12.6436C11.5747 12.6119 11.6017 12.5852 11.6341 12.5657C11.6665 12.5462 11.7034 12.5345 11.7415 12.5317C11.7796 12.5288 11.8179 12.5349 11.8531 12.5493C11.8883 12.5638 11.9192 12.5862 11.9434 12.6146C12.9381 13.7925 14.1691 14.7673 15.5636 15.4814C16.9581 16.1956 18.4879 16.6347 20.0625 16.7726H20.0845C20.1076 16.772 20.1304 16.7668 20.1514 16.7575C20.1724 16.7481 20.1912 16.7348 20.2066 16.7183C20.2221 16.7017 20.2338 16.6824 20.2412 16.6613C20.2486 16.6403 20.2514 16.6181 20.2496 16.596C20.1883 16.0668 20.2237 15.5315 20.3541 15.014C20.5316 14.3105 20.896 13.6631 21.4119 13.1345C21.9277 12.606 22.5775 12.2143 23.298 11.9976C23.7603 11.8592 24.2416 11.7881 24.7259 11.7867C25.824 11.7855 26.8848 12.169 27.7083 12.8651C27.815 12.9566 27.9531 13.0072 28.0963 13.0075C28.1427 13.0065 28.1889 13.0003 28.2338 12.989C29.0072 12.8014 29.7484 12.5084 30.4349 12.1189C30.4759 12.0946 30.5238 12.0831 30.5719 12.0859C30.62 12.0888 30.6661 12.1058 30.7037 12.1346C30.7414 12.1635 30.7688 12.2028 30.7823 12.2472C30.7957 12.2916 30.7945 12.3389 30.7788 12.3826C30.5498 13.0728 30.1418 13.6961 29.593 14.194C30.0878 14.0822 30.5705 13.9259 31.0347 13.7273C31.0802 13.7109 31.1299 13.7083 31.1769 13.72C31.224 13.7316 31.2662 13.7569 31.2978 13.7923C31.3294 13.8278 31.3488 13.8717 31.3534 13.9181C31.358 13.9644 31.3476 14.0111 31.3235 14.0516Z" fill="#9DAFBD"/>
</svg>
