<svg width="42" height="41" viewBox="0 0 42 41" fill="none" xmlns="http://www.w3.org/2000/svg">
<path d="M21.09 23.2053C22.9149 23.2053 24.3943 21.7876 24.3943 20.0387C24.3943 18.2898 22.9149 16.8721 21.09 16.8721C19.265 16.8721 17.7856 18.2898 17.7856 20.0387C17.7856 21.7876 19.265 23.2053 21.09 23.2053Z" fill="#12CD86"/>
<path d="M25.3158 12.0364H16.8638C15.7692 12.0364 14.7195 12.4531 13.9456 13.1948C13.1716 13.9365 12.7368 14.9424 12.7368 15.9914V24.0886C12.7368 25.1375 13.1716 26.1435 13.9456 26.8852C14.7195 27.6269 15.7692 28.0435 16.8638 28.0435H25.3158C26.4103 28.0435 27.46 27.6269 28.2339 26.8852C29.0079 26.1435 29.4427 25.1375 29.4427 24.0886V15.9887C29.442 14.9403 29.0068 13.935 28.233 13.1938C27.4591 12.4527 26.4098 12.0364 25.3158 12.0364ZM21.0898 25.2223C20.0198 25.2228 18.9738 24.9193 18.0839 24.35C17.194 23.7807 16.5003 22.9713 16.0905 22.0242C15.6807 21.077 15.5732 20.0347 15.7816 19.029C15.99 18.0233 16.5049 17.0994 17.2613 16.3742C18.0176 15.649 18.9814 15.155 20.0307 14.9548C21.0801 14.7545 22.1678 14.857 23.1563 15.2493C24.1449 15.6416 24.9898 16.306 25.5843 17.1585C26.1788 18.011 26.4961 19.0133 26.4961 20.0386C26.4946 21.4126 25.9246 22.7298 24.9112 23.7016C23.8977 24.6733 22.5234 25.2202 21.0898 25.2223ZM26.5291 16.1364C26.2644 16.1369 26.0055 16.0621 25.7852 15.9215C25.5649 15.7809 25.3931 15.5808 25.2915 15.3466C25.19 15.1123 25.1632 14.8544 25.2148 14.6056C25.2663 14.3568 25.3937 14.1282 25.5808 13.9489C25.768 13.7695 26.0065 13.6474 26.2661 13.598C26.5258 13.5487 26.7949 13.5743 27.0393 13.6716C27.2837 13.7689 27.4925 13.9336 27.6393 14.1447C27.786 14.3558 27.864 14.6039 27.8635 14.8576C27.8627 15.1965 27.7219 15.5214 27.4718 15.7611C27.2217 16.0007 26.8828 16.1357 26.5291 16.1364Z" fill="#12CD86"/>
<path d="M21.0901 0C16.9545 0 12.9118 1.17524 9.47315 3.37712C6.03454 5.57899 3.35447 8.7086 1.77185 12.3702C0.189236 16.0318 -0.224849 20.0609 0.581962 23.948C1.38877 27.8351 3.38025 31.4056 6.30454 34.2081C9.22884 37.0105 12.9546 38.919 17.0107 39.6922C21.0669 40.4654 25.2711 40.0686 29.0919 38.5519C32.9127 37.0352 36.1784 34.4668 38.476 31.1715C40.7736 27.8762 41.9999 24.0019 41.9999 20.0386C41.9999 14.7241 39.7969 9.62715 35.8756 5.86918C31.9542 2.11121 26.6357 0 21.0901 0V0ZM31.545 24.0885C31.5435 25.6713 30.8868 27.1888 29.719 28.308C28.5511 29.4272 26.9676 30.0565 25.3161 30.0579H16.8641C15.2127 30.0558 13.6296 29.4263 12.4619 28.3072C11.2943 27.1882 10.6373 25.6711 10.6351 24.0885V15.9887C10.6373 14.4062 11.2943 12.889 12.4619 11.77C13.6296 10.651 15.2127 10.0214 16.8641 10.0193H25.3161C26.9674 10.0214 28.5505 10.651 29.7182 11.77C30.8858 12.889 31.5428 14.4062 31.545 15.9887V24.0885Z" fill="#12CD86"/>
</svg>
