<svg width="43" height="41" viewBox="0 0 43 41" fill="none" xmlns="http://www.w3.org/2000/svg">
<path d="M21.571 0.871338C17.4354 0.871338 13.3927 2.04658 9.95411 4.24846C6.5155 6.45033 3.83543 9.57993 2.25281 13.2415C0.670193 16.9031 0.256108 20.9322 1.06292 24.8193C1.86973 28.7064 3.8612 32.277 6.7855 35.0794C9.7098 37.8819 13.4356 39.7904 17.4917 40.5636C21.5478 41.3368 25.7521 40.9399 29.5729 39.4232C33.3937 37.9066 36.6593 35.3382 38.9569 32.0428C41.2545 28.7475 42.4809 24.8732 42.4809 20.91C42.4809 15.5954 40.2779 10.4985 36.3565 6.74052C32.4352 2.98254 27.1167 0.871338 21.571 0.871338V0.871338ZM31.9847 14.8456C31.4904 15.5571 30.8865 16.1928 30.1936 16.7309C30.1062 16.8006 30.0362 16.8882 29.9886 16.9872C29.941 17.0861 29.917 17.194 29.9185 17.303V17.3689C29.9104 18.7978 29.6365 20.2139 29.1096 21.5507C28.5667 22.9537 27.76 24.2495 26.7297 25.3738C25.3451 26.8844 23.5639 28.0123 21.571 28.6407C20.2615 29.048 18.8924 29.2518 17.5156 29.2445C15.3314 29.2442 13.1862 28.6902 11.2977 27.6387C11.23 27.6019 11.1767 27.5448 11.1459 27.4763C11.1151 27.4078 11.1085 27.3315 11.1271 27.259C11.1461 27.1878 11.1895 27.1246 11.2504 27.0797C11.3112 27.0348 11.386 27.0107 11.4627 27.0112H11.9855C13.6452 27.014 15.268 26.5421 16.6462 25.656C15.8252 25.5275 15.057 25.1846 14.426 24.6651C13.795 24.1455 13.3256 23.4693 13.0695 22.7108C13.0564 22.6728 13.054 22.6322 13.0626 22.593C13.0712 22.5539 13.0904 22.5176 13.1184 22.4879C13.1463 22.4582 13.182 22.4361 13.2217 22.4238C13.2614 22.4116 13.3038 22.4096 13.3446 22.4181C13.595 22.4633 13.8492 22.4862 14.104 22.4867H14.2003C13.4065 22.1376 12.7354 21.5755 12.2681 20.8684C11.8008 20.1613 11.5574 19.3396 11.5673 18.5027C11.5676 18.4635 11.5784 18.4251 11.5988 18.3912C11.6192 18.3572 11.6484 18.3289 11.6836 18.309C11.7188 18.2891 11.7587 18.2783 11.7996 18.2775C11.8404 18.2768 11.8808 18.2863 11.9167 18.3049C12.2395 18.4776 12.5858 18.6063 12.9457 18.6873C12.235 18.013 11.7778 17.1318 11.6459 16.1818C11.514 15.2317 11.7147 14.2666 12.2166 13.4377C12.2359 13.406 12.2628 13.3793 12.2952 13.3598C12.3276 13.3403 12.3645 13.3286 12.4026 13.3258C12.4408 13.3229 12.4791 13.329 12.5142 13.3434C12.5494 13.3578 12.5804 13.3802 12.6045 13.4087C13.5992 14.5865 14.8302 15.5613 16.2247 16.2755C17.6193 16.9897 19.149 17.4287 20.7236 17.5667H20.7456C20.7688 17.566 20.7915 17.5609 20.8125 17.5515C20.8335 17.5422 20.8523 17.5289 20.8678 17.5123C20.8832 17.4958 20.895 17.4764 20.9024 17.4554C20.9097 17.4344 20.9126 17.4121 20.9107 17.39C20.8494 16.8609 20.8848 16.3255 21.0153 15.808C21.1928 15.1046 21.5572 14.4571 22.073 13.9286C22.5889 13.4001 23.2386 13.0084 23.9591 12.7917C24.4214 12.6533 24.9028 12.5822 25.3871 12.5808C26.4852 12.5795 27.5459 12.9631 28.3695 13.6591C28.4762 13.7506 28.6142 13.8013 28.7574 13.8015C28.8039 13.8006 28.85 13.7944 28.895 13.7831C29.6683 13.5955 30.4095 13.3024 31.096 12.913C31.1371 12.8887 31.1849 12.8772 31.233 12.88C31.2812 12.8828 31.3272 12.8998 31.3649 12.9287C31.4025 12.9576 31.43 12.9969 31.4434 13.0413C31.4568 13.0857 31.4556 13.1329 31.4399 13.1766C31.211 13.8669 30.803 14.4901 30.2541 14.988C30.7489 14.8763 31.2316 14.72 31.6958 14.5213C31.7413 14.505 31.791 14.5024 31.8381 14.5141C31.8852 14.5257 31.9273 14.551 31.9589 14.5864C31.9905 14.6218 32.0099 14.6657 32.0145 14.7121C32.0191 14.7585 32.0087 14.8051 31.9847 14.8456Z" fill="#12CD86"/>
</svg>
