<svg width="43" height="41" viewBox="0 0 43 41" fill="none" xmlns="http://www.w3.org/2000/svg">
<path d="M27.1087 14.5016L27.0675 14.462C25.6999 13.1584 23.8926 12.364 21.9694 12.2211C20.0463 12.0781 18.1328 12.5961 16.5719 13.6821C15.0109 14.7681 13.9044 16.3512 13.4506 18.1479C12.9967 19.9446 13.2252 21.8374 14.0951 23.4873L14.4527 24.1623L13.7842 27.2683V27.3078L16.995 26.5775L17.7268 26.9255C19.25 27.6501 20.972 27.8983 22.6502 27.6353C24.3284 27.3723 25.8782 26.6113 27.0812 25.4595C28.5916 24.0051 29.4418 22.038 29.447 19.986C29.4521 17.934 28.6118 15.963 27.1087 14.5016ZM26.7841 23.2026C26.3906 23.7958 25.7661 24.5209 24.9875 24.7028C23.6118 25.0219 21.5181 24.7028 18.8961 22.3799L18.8631 22.3509C16.5823 20.3101 15.977 18.6095 16.1118 17.2622C16.1916 16.4975 16.8574 15.8067 17.4186 15.3532C17.5077 15.2806 17.6133 15.229 17.7269 15.2027C17.8406 15.1763 17.9591 15.176 18.0729 15.2016C18.1867 15.2273 18.2926 15.2783 18.3821 15.3504C18.4716 15.4225 18.5421 15.5138 18.588 15.6169L19.4326 17.4626C19.4877 17.5803 19.5084 17.7103 19.4924 17.8385C19.4764 17.9667 19.4244 18.0883 19.3418 18.1903L18.9126 18.7176C18.8234 18.8271 18.7703 18.9595 18.76 19.0981C18.7497 19.2366 18.7827 19.3749 18.8548 19.4954C19.2627 20.0703 19.7505 20.5893 20.3048 21.0379C20.8998 21.5897 21.5766 22.0544 22.3132 22.4168C22.4474 22.469 22.5948 22.4816 22.7364 22.453C22.8781 22.4243 23.0076 22.3557 23.1083 22.256L23.6008 21.7788C23.6927 21.6778 23.8124 21.6035 23.9461 21.5644C24.0798 21.5252 24.2223 21.5228 24.3574 21.5573L26.3659 22.111C26.4775 22.1423 26.5801 22.198 26.6654 22.2738C26.7507 22.3496 26.8165 22.4433 26.8576 22.5476C26.8987 22.6519 26.9139 22.764 26.9021 22.8749C26.8903 22.9858 26.8518 23.0925 26.7896 23.1867L26.7841 23.2026Z" fill="#12CD86"/>
<path d="M21.3308 0C17.1952 0 13.1525 1.17524 9.71388 3.37712C6.27527 5.57899 3.5952 8.7086 2.01258 12.3702C0.429958 16.0318 0.0158732 20.0609 0.822685 23.948C1.6295 27.8351 3.62097 31.4056 6.54527 34.2081C9.46957 37.0105 13.1953 38.919 17.2515 39.6922C21.3076 40.4654 25.5119 40.0686 29.3326 38.5519C33.1534 37.0352 36.4191 34.4668 38.7167 31.1715C41.0143 27.8762 42.2407 24.0019 42.2407 20.0386C42.2407 14.7241 40.0377 9.62715 36.1163 5.86918C32.1949 2.11121 26.8764 0 21.3308 0V0ZM31.6949 20.2733C31.6384 21.9375 31.1467 23.5615 30.2649 24.9962C29.3831 26.4309 28.1395 27.6304 26.6481 28.4847C25.1567 29.3389 23.4653 29.8206 21.7291 29.8854C19.9929 29.9502 18.2676 29.5961 16.7113 28.8556L11.4839 30.0474C11.4048 30.0648 11.3222 30.059 11.2466 30.0308C11.1711 30.0026 11.1061 29.9532 11.0602 29.8892C11.0288 29.8464 11.007 29.7978 10.9961 29.7466C10.9852 29.6953 10.9855 29.6424 10.9969 29.5913L12.0974 24.4709C11.378 23.12 10.9907 21.6294 10.9651 20.113C10.9396 18.5967 11.2764 17.0948 11.9498 15.7224C12.6232 14.35 13.6153 13.1434 14.8503 12.1951C16.0852 11.2468 17.5302 10.5819 19.0747 10.2512C20.6191 9.92053 22.222 9.93292 23.7607 10.2874C25.2993 10.6419 26.733 11.3291 27.9518 12.2964C29.1706 13.2636 30.1424 14.4854 30.7926 15.868C31.4428 17.2506 31.7543 18.7575 31.7032 20.2733H31.6949Z" fill="#12CD86"/>
</svg>
