<svg width="42" height="41" viewBox="0 0 42 41" fill="none" xmlns="http://www.w3.org/2000/svg">
<g clip-path="url(#clip0_228_538)">
<path d="M20.9098 23.4371C22.7347 23.4371 24.2141 22.0194 24.2141 20.2705C24.2141 18.5216 22.7347 17.1039 20.9098 17.1039C19.0849 17.1039 17.6055 18.5216 17.6055 20.2705C17.6055 22.0194 19.0849 23.4371 20.9098 23.4371Z" fill="#9DAFBD"/>
<path d="M25.1356 12.2682H16.6836C15.5891 12.2682 14.5393 12.6849 13.7654 13.4266C12.9914 14.1683 12.5566 15.1743 12.5566 16.2232V24.3204C12.5566 25.3693 12.9914 26.3753 13.7654 27.117C14.5393 27.8587 15.5891 28.2754 16.6836 28.2754H25.1356C26.2301 28.2754 27.2798 27.8587 28.0538 27.117C28.8277 26.3753 29.2625 25.3693 29.2625 24.3204V16.2205C29.2618 15.1721 28.8267 14.1668 28.0528 13.4256C27.2789 12.6845 26.2296 12.2682 25.1356 12.2682ZM20.9096 25.4541C19.8397 25.4547 18.7936 25.1511 17.9037 24.5818C17.0139 24.0125 16.3201 23.2031 15.9103 22.256C15.5005 21.3088 15.393 20.2665 15.6014 19.2608C15.8098 18.2551 16.3247 17.3312 17.0811 16.606C17.8374 15.8808 18.8012 15.3868 19.8506 15.1866C20.8999 14.9863 21.9876 15.0888 22.9762 15.4811C23.9647 15.8734 24.8096 16.5378 25.4041 17.3903C25.9986 18.2428 26.3159 19.2451 26.3159 20.2705C26.3144 21.6444 25.7445 22.9616 24.731 23.9334C23.7175 24.9051 22.3432 25.452 20.9096 25.4541ZM26.3489 16.3682C26.0842 16.3687 25.8253 16.2939 25.605 16.1533C25.3847 16.0127 25.2129 15.8126 25.1113 15.5784C25.0098 15.3441 24.9831 15.0863 25.0346 14.8374C25.0861 14.5886 25.2135 14.3601 25.4007 14.1807C25.5878 14.0013 25.8263 13.8792 26.086 13.8299C26.3456 13.7805 26.6147 13.8061 26.8591 13.9034C27.1036 14.0007 27.3124 14.1654 27.4591 14.3765C27.6058 14.5876 27.6838 14.8358 27.6833 15.0894C27.6826 15.4284 27.5417 15.7532 27.2916 15.9929C27.0416 16.2325 26.7026 16.3675 26.3489 16.3682Z" fill="#9DAFBD"/>
<path d="M20.9099 0.231812C16.7743 0.231812 12.7316 1.40706 9.29298 3.60893C5.85437 5.8108 3.1743 8.94041 1.59168 12.602C0.00905987 16.2636 -0.405025 20.2927 0.401787 24.1798C1.2086 28.0669 3.20007 31.6374 6.12437 34.4399C9.04867 37.2423 12.7744 39.1508 16.8306 39.924C20.8867 40.6972 25.091 40.3004 28.9117 38.7837C32.7325 37.267 35.9982 34.6986 38.2958 31.4033C40.5934 28.108 41.8198 24.2337 41.8198 20.2704C41.8198 14.9559 39.6168 9.85896 35.6954 6.10099C31.774 2.34302 26.4555 0.231812 20.9099 0.231812V0.231812ZM31.3648 24.3204C31.3634 25.9031 30.7066 27.4206 29.5388 28.5398C28.371 29.659 26.7874 30.2884 25.1359 30.2898H16.6839C15.0325 30.2877 13.4495 29.6581 12.2818 28.539C11.1141 27.42 10.4571 25.9029 10.4549 24.3204V16.2205C10.4571 14.638 11.1141 13.1209 12.2818 12.0018C13.4495 10.8828 15.0325 10.2532 16.6839 10.2511H25.1359C26.7872 10.2532 28.3703 10.8828 29.538 12.0018C30.7057 13.1209 31.3626 14.638 31.3648 16.2205V24.3204Z" fill="#9DAFBD"/>
</g>
<defs>
<clipPath id="clip0_228_538">
<rect width="41.8197" height="40.0773" fill="white" transform="translate(0 0.231812)"/>
</clipPath>
</defs>
</svg>
