<svg width="42" height="41" viewBox="0 0 42 41" fill="none" xmlns="http://www.w3.org/2000/svg">
<path d="M20.9099 0C16.7743 0 12.7316 1.17524 9.29298 3.37712C5.85437 5.57899 3.1743 8.7086 1.59168 12.3702C0.00905995 16.0318 -0.405025 20.0609 0.401787 23.948C1.2086 27.8351 3.20007 31.4056 6.12437 34.2081C9.04867 37.0105 12.7745 38.919 16.8306 39.6922C20.8867 40.4654 25.091 40.0686 28.9117 38.5519C32.7325 37.0352 35.9982 34.4668 38.2958 31.1715C40.5934 27.8762 41.8198 24.0019 41.8198 20.0386C41.8198 14.7241 39.6168 9.62715 35.6954 5.86918C31.774 2.11121 26.4555 0 20.9099 0ZM26.2089 18.1402L25.8622 20.9325C25.8473 21.062 25.7827 21.1817 25.6811 21.2684C25.5795 21.355 25.448 21.4026 25.312 21.4018H22.2855V29.6809C22.2863 29.7797 22.2462 29.8749 22.174 29.9455C22.1019 30.0161 22.0035 30.0565 21.9003 30.0579H18.8189C18.7676 30.0573 18.7169 30.0469 18.6698 30.0274C18.6227 30.008 18.58 29.9798 18.5442 29.9446C18.5085 29.9093 18.4803 29.8676 18.4613 29.8219C18.4424 29.7763 18.433 29.7274 18.4337 29.6783L18.4502 21.4018H16.1584C16.0124 21.4018 15.8725 21.3462 15.7693 21.2473C15.6661 21.1484 15.6081 21.0143 15.6081 20.8744V18.0849C15.6081 17.945 15.6661 17.8109 15.7693 17.712C15.8725 17.6131 16.0124 17.5575 16.1584 17.5575H18.4337V14.8523C18.4337 11.7226 20.3789 10.0193 23.221 10.0193H25.5513C25.6973 10.0193 25.8372 10.0749 25.9404 10.1738C26.0436 10.2727 26.1016 10.4068 26.1016 10.5466V12.8959C26.1016 13.0358 26.0436 13.1699 25.9404 13.2688C25.8372 13.3677 25.6973 13.4232 25.5513 13.4232H24.1234C22.5772 13.447 22.2855 14.1562 22.2855 15.2162V17.5496H25.6751C25.7519 17.5513 25.8275 17.5683 25.8969 17.5997C25.9664 17.631 26.0283 17.676 26.0786 17.7316C26.1288 17.7872 26.1664 17.8523 26.1888 17.9227C26.2113 17.9931 26.2181 18.0672 26.2089 18.1402Z" fill="#12CD86"/>
</svg>
