<svg width="65" height="64" viewBox="0 0 65 64" fill="none" xmlns="http://www.w3.org/2000/svg">
<path d="M63.21 28.7858L59.512 29.2239L59.4693 29.2308L52.9701 30.0016C52.5308 30.0537 52.1601 30.3494 52.0155 30.7632C51.8709 31.177 51.9777 31.6362 52.2906 31.9458L53.8703 33.5091C54.0898 33.7264 54.2119 34.0219 54.2089 34.3291C54.2048 34.6361 54.0772 34.9288 53.8541 35.1423L33.1683 54.852C32.7125 55.2861 31.989 55.2768 31.5446 54.8314L5.06101 28.3124C4.84411 28.0966 4.54923 27.9753 4.2417 27.9753C3.93418 27.9753 3.63929 28.0966 3.4224 28.3124L0.836058 30.8684C0.387981 31.3145 0.387981 32.0349 0.836058 32.4809L32.3756 64L58.1046 39.289C58.5571 38.8564 59.2763 38.8614 59.7225 39.3004L61.2987 40.8593C61.6116 41.1689 62.0756 41.2746 62.4937 41.1315C62.9118 40.9884 63.2106 40.6216 63.2633 40.1868L64.4918 30.0575C64.5339 29.7097 64.4125 29.3621 64.1627 29.1141C63.9125 28.8662 63.5615 28.7452 63.21 28.7858Z" fill="#12CD86"/>
<path d="M27.7114 11.4366C27.7114 13.0309 29.1895 14.3621 31.1784 14.7463V8.12683C29.1895 8.5111 27.7114 9.84228 27.7114 11.4366Z" fill="#12CD86"/>
<path d="M33.4897 23.8955C35.4786 23.5113 36.9567 22.1801 36.9567 20.5859C36.9567 18.9916 35.4786 17.6605 33.4897 17.2762V23.8955Z" fill="#12CD86"/>
<path d="M48.5127 16.0112C48.5127 7.1685 41.2691 0 32.3339 0C23.3986 0 16.155 7.1685 16.155 16.0112C16.155 24.8538 23.3986 32.0223 32.3339 32.0223C41.2653 32.0128 48.5032 24.85 48.5127 16.0112ZM39.2678 20.5857C39.2678 23.4128 36.7634 25.762 33.4896 26.2183V28.5913C33.4896 29.2229 32.9723 29.735 32.334 29.735C31.6958 29.735 31.1783 29.223 31.1783 28.5913V26.2183C27.9044 25.7608 25.4002 23.4129 25.4002 20.5857C25.4002 19.9542 25.9176 19.4421 26.5559 19.4421C27.1942 19.4421 27.7115 19.954 27.7115 20.5857C27.7115 22.18 29.1896 23.5111 31.1785 23.8954V17.0689C27.9045 16.6115 25.4003 14.2636 25.4003 11.4363C25.4003 8.60913 27.9047 6.26011 31.1785 5.8038V3.43102C31.1785 2.79945 31.6958 2.28734 32.3341 2.28734C32.9723 2.28734 33.4898 2.79933 33.4898 3.43102V5.80405C36.7637 6.26149 39.2679 8.60938 39.2679 11.4366C39.2679 12.0682 38.7505 12.5803 38.1122 12.5803C37.4741 12.5803 36.9566 12.0683 36.9566 11.4366C36.9566 9.84236 35.4785 8.51118 33.4896 8.12692V14.9534C36.7634 15.4096 39.2678 17.7586 39.2678 20.5857Z" fill="#12CD86"/>
<path d="M31.1782 37.7405V46.8898C31.1782 47.5214 31.6956 48.0335 32.3339 48.0335C32.9721 48.0335 33.4895 47.5215 33.4895 46.8898V37.7405C33.4895 37.109 32.9722 36.5969 32.3339 36.5969C31.6956 36.5969 31.1782 37.109 31.1782 37.7405Z" fill="#12CD86"/>
<path d="M26.5557 37.7405V42.3151C26.5557 42.9467 27.073 43.4588 27.7113 43.4588C28.3495 43.4588 28.867 42.9468 28.867 42.3151V37.7405C28.867 37.109 28.3496 36.5969 27.7113 36.5969C27.073 36.5969 26.5557 37.109 26.5557 37.7405Z" fill="#12CD86"/>
<path d="M35.8008 37.7405V42.3151C35.8008 42.9467 36.3181 43.4588 36.9564 43.4588C37.5946 43.4588 38.1121 42.9468 38.1121 42.3151V37.7405C38.1121 37.109 37.5947 36.5969 36.9564 36.5969C36.3181 36.5969 35.8008 37.109 35.8008 37.7405Z" fill="#12CD86"/>
</svg>
