<svg width="64" height="64" viewBox="0 0 64 64" fill="none" xmlns="http://www.w3.org/2000/svg">
<path d="M29.2217 12.9898C29.7837 13.372 30.6059 13.2968 31.0582 12.822C33.1844 10.8721 33.1844 7.87005 31.0582 5.92001C30.3984 5.38006 30.0305 4.63457 30.0407 3.85846C30.0349 3.0766 30.4044 2.32599 31.0647 1.77816C31.2803 1.54925 31.3781 1.25683 31.3364 0.966415C31.2946 0.675998 31.1168 0.411834 30.8428 0.233183C30.5668 0.052282 30.217 -0.0283547 29.8705 0.00890069C29.524 0.0461561 29.2094 0.198303 28.9958 0.431837C27.9777 1.36472 27.4174 2.58965 27.4285 3.85859C27.415 5.13777 27.9863 6.37195 29.0232 7.30409C29.6745 7.85117 30.0407 8.59515 30.0407 9.37114C30.0407 10.1471 29.6745 10.8911 29.0232 11.4382C28.571 11.913 28.6598 12.6076 29.2217 12.9898Z" fill="#12CD86"/>
<path d="M39.6709 12.9898C40.2329 13.372 41.0551 13.2968 41.5074 12.822C43.6336 10.8721 43.6336 7.87005 41.5074 5.92001C40.8477 5.38006 40.4797 4.63457 40.4899 3.85846C40.4841 3.0766 40.8536 2.32599 41.5139 1.77816C41.7295 1.54925 41.8273 1.25683 41.7856 0.966415C41.7439 0.675998 41.566 0.411834 41.292 0.233183C41.016 0.052282 40.6663 -0.0283547 40.3197 0.00890069C39.9732 0.0461561 39.6587 0.198303 39.445 0.431837C38.4269 1.36472 37.8666 2.58965 37.8777 3.85859C37.8642 5.13777 38.4355 6.37195 39.4725 7.30409C40.1238 7.85117 40.49 8.59515 40.49 9.37114C40.49 10.1471 40.1238 10.8911 39.4725 11.4382C39.0201 11.913 39.109 12.6076 39.6709 12.9898Z" fill="#12CD86"/>
<path d="M50.1199 12.9898C50.6819 13.372 51.5041 13.2968 51.9564 12.822C54.0826 10.8721 54.0826 7.87005 51.9564 5.92001C51.2966 5.38006 50.9287 4.63457 50.9389 3.85846C50.9331 3.0766 51.3026 2.32599 51.9629 1.77816C52.1785 1.54925 52.2763 1.25683 52.2346 0.966415C52.1928 0.675998 52.015 0.411834 51.741 0.233183C51.465 0.052282 51.1152 -0.0283547 50.7687 0.00890069C50.4223 0.0461561 50.1076 0.198303 49.894 0.431837C48.8759 1.36472 48.3156 2.58965 48.3266 3.85859C48.3132 5.13777 48.8845 6.37195 49.9214 7.30409C50.5727 7.85117 50.9389 8.59515 50.9389 9.37114C50.9389 10.1471 50.5727 10.8911 49.9214 11.4382C49.469 11.913 49.558 12.6076 50.1199 12.9898Z" fill="#12CD86"/>
<path d="M0 34.2025V41.9277C0.0118368 48.8082 6.25306 54.5367 14.3673 55.1148V51.7952C8.42215 51.2285 3.9264 46.983 3.91826 41.9279V34.2026C3.91826 31.7646 6.25736 29.7882 9.14271 29.7882H14.3672V26.4774H9.14271C4.09611 26.4827 0.00636226 29.9382 0 34.2025Z" fill="#12CD86"/>
<path d="M58.3693 34.2146L52.4761 35.6372C52.3713 35.6652 52.2914 35.7371 52.2648 35.8271C52.2382 35.9171 52.2688 36.0124 52.3456 36.0786L56.5552 39.6421C56.6351 39.7063 56.7486 39.7308 56.8551 39.7069C56.9616 39.683 57.0458 39.6143 57.0776 39.5251L58.7613 34.5457C58.7971 34.4521 58.7661 34.3495 58.6817 34.2819C58.6019 34.2099 58.48 34.1835 58.3693 34.2146Z" fill="#12CD86"/>
<path d="M64 61.7928V19.8557C64 18.6366 62.8304 17.6485 61.3878 17.6485H19.5917C18.149 17.6485 16.9795 18.6366 16.9795 19.8557V61.7928C16.9795 63.0119 18.149 64 19.5917 64H61.3878C62.8305 64 64 63.0119 64 61.7928ZM24.8163 61.7928H20.8979C20.1766 61.7928 19.5917 61.2987 19.5917 60.6892V57.3783C19.5917 56.7688 20.1765 56.2746 20.8979 56.2746C21.6194 56.2746 22.2041 56.7687 22.2041 57.3783V59.5855H24.8163C25.5376 59.5855 26.1225 60.0796 26.1225 60.6892C26.1225 61.2987 25.5376 61.7928 24.8163 61.7928ZM61.2741 35.1506L59.5892 40.1323C59.3088 40.9779 58.5147 41.6325 57.5072 41.8484C57.2637 41.9017 57.013 41.9288 56.7614 41.9289C55.9884 41.9279 55.2477 41.667 54.703 41.2038L53.5274 40.2105L49.2499 43.8149C48.74 44.245 47.9143 44.245 47.4044 43.8149L41.7959 39.0739L32.2702 47.1225C31.7602 47.5534 30.9334 47.5534 30.4234 47.1225L27.4284 44.5919L22.2039 49.0063V50.7567H58.7754C59.4967 50.7567 60.0816 51.2508 60.0816 51.8604C60.0816 52.47 59.4968 52.964 58.7754 52.964H20.8978C20.1765 52.964 19.5916 52.47 19.5916 51.8604V28.6845C19.5916 28.075 20.1763 27.5808 20.8978 27.5808C21.6192 27.5808 22.2039 28.0749 22.2039 28.6845V45.8854L26.505 42.2512C27.015 41.8204 27.8418 41.8204 28.3518 42.2512L31.3468 44.7818L40.8724 36.7332C41.3825 36.3023 42.2093 36.3023 42.7193 36.7332L48.3265 41.4721L51.6781 38.6479L50.4895 37.6437C49.7558 37.0241 49.465 36.1226 49.7252 35.2741C49.9853 34.4256 50.7576 33.7569 51.7552 33.5162L57.651 32.0925C58.6736 31.8462 59.774 32.0874 60.5258 32.7227C61.2777 33.358 61.5631 34.2877 61.2716 35.1517L61.2741 35.1506Z" fill="#12CD86"/>
</svg>
