<svg width="25" height="26" viewBox="0 0 25 26" fill="none" xmlns="http://www.w3.org/2000/svg">
<path d="M18.75 3.07812C16.9141 1.94531 14.8047 1.28125 12.5 1.28125V3.07812H18.75Z" fill="#ED4C5C"/>
<path d="M12.5 4.87488H20.9375C20.2734 4.21082 19.5312 3.58582 18.75 3.078H12.5V4.87488Z" fill="white"/>
<path d="M12.5 6.672H22.3828C21.9531 6.00793 21.4844 5.422 20.9766 4.87512H12.5V6.672Z" fill="#ED4C5C"/>
<path d="M12.5 8.46863H23.3203C23.0469 7.84363 22.7344 7.21863 22.3828 6.67175H12.5V8.46863Z" fill="white"/>
<path d="M12.5 10.2657H23.9062C23.75 9.64075 23.5547 9.05481 23.3203 8.46887H12.5V10.2657Z" fill="#ED4C5C"/>
<path d="M12.5 12.1014H24.1797C24.1406 11.4764 24.0234 10.8905 23.9062 10.3046H12.5V12.1014Z" fill="white"/>
<path d="M24.1797 12.1017H12.5V13.0001H0.78125C0.78125 13.3126 0.78125 13.5861 0.820312 13.8986H24.1797C24.2188 13.5861 24.2188 13.3126 24.2188 13.0001C24.2188 12.6876 24.2188 12.3751 24.1797 12.1017Z" fill="#ED4C5C"/>
<path d="M1.09375 15.6952H23.9062C24.0625 15.1093 24.1406 14.5233 24.1797 13.8983H0.820312C0.859375 14.4843 0.9375 15.1093 1.09375 15.6952Z" fill="white"/>
<path d="M1.67969 17.4923H23.3203C23.5547 16.9064 23.75 16.3204 23.9062 15.6954H1.09375C1.25 16.3204 1.44531 16.9064 1.67969 17.4923Z" fill="#ED4C5C"/>
<path d="M2.61719 19.2891H22.3828C22.7344 18.7031 23.0469 18.1172 23.3203 17.4922H1.67969C1.95313 18.1172 2.26562 18.7031 2.61719 19.2891Z" fill="white"/>
<path d="M4.02344 21.0858H20.9766C21.4844 20.5389 21.9922 19.9139 22.3828 19.2889H2.61719C3.00781 19.953 3.51563 20.5389 4.02344 21.0858Z" fill="#ED4C5C"/>
<path d="M6.21094 22.8829H18.7891C19.6094 22.3751 20.3125 21.7501 20.9766 21.0861H4.02344C4.6875 21.7892 5.42969 22.3751 6.21094 22.8829Z" fill="white"/>
<path d="M12.5 24.7187C14.8047 24.7187 16.9531 24.0547 18.7891 22.8828H6.21094C8.04687 24.0547 10.1953 24.7187 12.5 24.7187Z" fill="#ED4C5C"/>
<path d="M6.25 3.07812C5.42969 3.58594 4.6875 4.21094 4.02344 4.875C3.47656 5.42188 3.00781 6.04688 2.61719 6.67188C2.26562 7.25781 1.91406 7.84375 1.67969 8.46875C1.44531 9.05469 1.25 9.64062 1.09375 10.2656C0.9375 10.8516 0.859375 11.4375 0.820312 12.0625C0.78125 12.375 0.78125 12.6875 0.78125 13H12.5V1.28125C10.1953 1.28125 8.08594 1.94531 6.25 3.07812Z" fill="#428BC1"/>
<path d="M9.76562 1.67188L9.96094 2.25781H10.5469L10.0781 2.64844L10.2344 3.23438L9.76562 2.88281L9.29687 3.23438L9.45313 2.64844L8.98438 2.25781H9.57031L9.76562 1.67188Z" fill="white"/>
<path d="M11.3281 4.01562L11.5234 4.60156H12.1094L11.6406 4.99219L11.7969 5.57812L11.3281 5.22656L10.8594 5.57812L11.0156 4.99219L10.5469 4.60156H11.1328L11.3281 4.01562Z" fill="white"/>
<path d="M8.20312 4.01562L8.39844 4.60156H8.98438L8.51562 4.99219L8.67188 5.57812L8.20312 5.22656L7.73437 5.57812L7.89063 4.99219L7.42188 4.60156H8.00781L8.20312 4.01562Z" fill="white"/>
<path d="M9.76562 6.35938L9.96094 6.94531H10.5469L10.0781 7.33594L10.2344 7.92188L9.76562 7.57031L9.29687 7.92188L9.45313 7.33594L8.98438 6.94531H9.57031L9.76562 6.35938Z" fill="white"/>
<path d="M6.64062 6.35938L6.83594 6.94531H7.42188L6.95312 7.33594L7.10938 7.92188L6.64062 7.57031L6.17188 7.92188L6.32813 7.33594L5.85938 6.94531H6.44531L6.64062 6.35938Z" fill="white"/>
<path d="M3.51562 6.35938L3.71094 6.94531H4.29688L3.82813 7.33594L3.98437 7.92188L3.51562 7.57031L3.04688 7.92188L3.20312 7.33594L2.73438 6.94531H3.32031L3.51562 6.35938Z" fill="white"/>
<path d="M11.3281 8.70312L11.5234 9.28906H12.1094L11.6406 9.67969L11.7969 10.2656L11.3281 9.91406L10.8594 10.2656L11.0156 9.67969L10.5469 9.28906H11.1328L11.3281 8.70312Z" fill="white"/>
<path d="M8.20312 8.70312L8.39844 9.28906H8.98438L8.51562 9.67969L8.67188 10.2656L8.20312 9.91406L7.73437 10.2656L7.89063 9.67969L7.42188 9.28906H8.00781L8.20312 8.70312Z" fill="white"/>
<path d="M5.07812 8.70312L5.27344 9.28906H5.85938L5.39063 9.67969L5.54687 10.2656L5.07812 9.91406L4.60938 10.2656L4.76562 9.67969L4.29688 9.28906H4.88281L5.07812 8.70312Z" fill="white"/>
<path d="M9.76562 11.0469L9.96094 11.6328H10.5469L10.0781 12.0234L10.2344 12.6094L9.76562 12.2578L9.29687 12.6094L9.45313 12.0234L8.98438 11.6328H9.57031L9.76562 11.0469Z" fill="white"/>
<path d="M6.64062 11.0469L6.83594 11.6328H7.42188L6.95312 12.0234L7.10938 12.6094L6.64062 12.2578L6.17188 12.6094L6.32813 12.0234L5.85938 11.6328H6.44531L6.64062 11.0469Z" fill="white"/>
<path d="M3.51562 11.0469L3.71094 11.6328H4.29688L3.82813 12.0234L3.98437 12.6094L3.51562 12.2578L3.04688 12.6094L3.20312 12.0234L2.73438 11.6328H3.32031L3.51562 11.0469Z" fill="white"/>
<path d="M4.60937 5.57812L5.07812 5.22656L5.54688 5.57812L5.35156 4.99219L5.82031 4.60156H5.23437L5.07812 4.01562L4.88281 4.60156H4.33594L4.80469 4.95312L4.60937 5.57812Z" fill="white"/>
<path d="M1.48437 10.2656L1.95312 9.91406L2.42188 10.2656L2.22656 9.67969L2.69531 9.28906H2.14844L1.95312 8.70312L1.75781 9.28906H1.36719C1.36719 9.32812 1.32812 9.36719 1.32812 9.40625L1.64062 9.64062L1.48437 10.2656Z" fill="white"/>
</svg>
