<svg width="64" height="65" viewBox="0 0 64 65" fill="none" xmlns="http://www.w3.org/2000/svg">
<path d="M32 16.2653C23.1635 16.2653 16 23.4823 16 32.3847C16 41.2871 23.1635 48.504 32 48.504C40.8365 48.504 48 41.2871 48 32.3847C47.9905 23.4862 40.8326 16.2749 32 16.2653ZM38.8571 36.9903C38.8571 39.8365 36.3805 42.2015 33.1429 42.6609V45.0499C33.1429 45.6858 32.6313 46.2013 32 46.2013C31.3689 46.2013 30.8571 45.6859 30.8571 45.0499V42.6609C27.6194 42.2003 25.1429 39.8366 25.1429 36.9903C25.1429 36.3544 25.6545 35.8389 26.2857 35.8389C26.917 35.8389 27.4286 36.3543 27.4286 36.9903C27.4286 38.5953 28.8915 39.9355 30.8573 40.3212V33.4497C27.6195 32.9891 25.143 30.6254 25.143 27.7791C25.143 24.9327 27.6196 22.5679 30.8573 22.1085V19.7194C30.8573 19.0836 31.3689 18.568 32.0001 18.568C32.6313 18.568 33.143 19.0834 33.143 19.7194V22.1085C36.3808 22.569 38.8573 24.9327 38.8573 27.7791C38.8573 28.4149 38.3456 28.9305 37.7144 28.9305C37.0833 28.9305 36.5715 28.415 36.5715 27.7791C36.5715 26.1741 35.1086 24.8339 33.1429 24.4482V31.3197C36.3806 31.7791 38.8571 34.1441 38.8571 36.9903Z" fill="#12CD86"/>
<path d="M33.1431 40.3212C35.1088 39.9355 36.5717 38.5942 36.5717 36.9903C36.5717 35.3865 35.1088 34.0452 33.1431 33.6594V40.3212Z" fill="#12CD86"/>
<path d="M27.4287 27.7792C27.4287 29.3842 28.8916 30.7244 30.8573 31.1101V24.4482C28.8915 24.834 27.4287 26.1742 27.4287 27.7792Z" fill="#12CD86"/>
<path d="M0 17.4167V47.3526C0 47.9885 0.511625 48.504 1.14287 48.504H23.1669C22.0141 47.8556 20.9342 47.0835 19.9462 46.2012H8C7.36887 46.2012 6.85712 45.6858 6.85712 45.0498C6.85712 43.1422 5.32212 41.5956 3.4285 41.5956C2.79737 41.5956 2.28562 41.0802 2.28562 40.4442V24.3249C2.28562 23.689 2.79725 23.1735 3.4285 23.1735C5.322 23.1735 6.85712 21.627 6.85712 19.7193C6.85712 19.0834 7.36875 18.5679 8 18.5679H19.9462C20.9342 17.6856 22.014 16.9135 23.1669 16.2651H1.14287C0.511625 16.2653 0 16.7809 0 17.4167H0ZM3.42862 18.5681C4.05975 18.5681 4.5715 19.0836 4.5715 19.7195C4.5715 20.3554 4.05988 20.8709 3.42862 20.8709C2.79737 20.8709 2.28575 20.3555 2.28575 19.7195C2.28575 19.0837 2.79737 18.5681 3.42862 18.5681ZM3.42862 43.8986C4.05975 43.8986 4.5715 44.414 4.5715 45.05C4.5715 45.6858 4.05988 46.2014 3.42862 46.2014C2.79737 46.2014 2.28575 45.6859 2.28575 45.05C2.28575 44.414 2.79737 43.8986 3.42862 43.8986Z" fill="#12CD86"/>
<path d="M17.7484 20.8708H9.02841C8.56691 23.1306 6.81429 24.8964 4.57129 25.3612V39.4081C6.81429 39.873 8.56704 41.6389 9.02841 43.8985H17.7484C12.3692 37.1791 12.3692 27.5902 17.7484 20.8708ZM10.2855 33.536H7.99979C7.36866 33.536 6.85691 33.0206 6.85691 32.3846C6.85691 31.7486 7.36854 31.2332 7.99979 31.2332H10.2855C10.9167 31.2332 11.4284 31.7486 11.4284 32.3846C11.4284 33.0206 10.9167 33.536 10.2855 33.536Z" fill="#12CD86"/>
<path d="M63.9999 17.4167C63.9999 16.7809 63.4883 16.2653 62.857 16.2653H40.833C41.9858 16.9137 43.0656 17.6858 44.0536 18.5681H55.9999C56.631 18.5681 57.1428 19.0836 57.1428 19.7195C57.1428 21.6271 58.6778 23.1737 60.5714 23.1737C61.2025 23.1737 61.7143 23.6892 61.7143 24.3251V40.4445C61.7143 41.0803 61.2026 41.5959 60.5714 41.5959C58.6779 41.5959 57.1428 43.1423 57.1428 45.0501C57.1428 45.6859 56.6311 46.2015 55.9999 46.2015H44.0536C43.0656 47.0838 41.9859 47.8559 40.833 48.5043H62.857C63.4881 48.5043 63.9999 47.9888 63.9999 47.3529V17.4167ZM60.5713 46.2014C59.9401 46.2014 59.4284 45.6859 59.4284 45.05C59.4284 44.4141 59.94 43.8986 60.5713 43.8986C61.2024 43.8986 61.7141 44.414 61.7141 45.05C61.7141 45.6858 61.2025 46.2014 60.5713 46.2014ZM60.5713 20.8709C59.9401 20.8709 59.4284 20.3555 59.4284 19.7195C59.4284 19.0837 59.94 18.5681 60.5713 18.5681C61.2024 18.5681 61.7141 19.0836 61.7141 19.7195C61.7141 20.3555 61.2025 20.8709 60.5713 20.8709Z" fill="#12CD86"/>
<path d="M46.2512 43.8985H54.9712C55.4327 41.6387 57.1855 39.8729 59.4283 39.4081V25.3612C57.1853 24.8963 55.4326 23.1306 54.9712 20.8708H46.2512C51.6305 27.5902 51.6305 37.1791 46.2512 43.8985ZM53.7141 31.2333H55.9998C56.631 31.2333 57.1427 31.7488 57.1427 32.3847C57.1427 33.0207 56.6311 33.5361 55.9998 33.5361H53.7141C53.083 33.5361 52.5712 33.0207 52.5712 32.3847C52.5712 31.7488 53.083 31.2333 53.7141 31.2333Z" fill="#12CD86"/>
<path d="M22.0801 9.32035L41.9087 9.35146C42.4123 9.35234 42.8571 9.02101 43.0039 8.53567C43.1507 8.05033 42.9649 7.52544 42.5464 7.24323L32.6492 0.577875C32.2657 0.320721 31.7664 0.320721 31.3829 0.577875L21.4503 7.20985C21.0309 7.49056 20.8432 8.01469 20.9882 8.50041C21.1331 8.98613 21.5766 9.31922 22.0801 9.32035Z" fill="#12CD86"/>
<path d="M41.9223 55.4481L22.0811 55.4125C21.578 55.4126 21.1341 55.7443 20.9879 56.2293C20.8416 56.7144 21.0275 57.2386 21.4456 57.5206L31.3508 64.1917C31.7345 64.4494 32.2344 64.4494 32.6181 64.1917L42.5508 57.5575C42.9689 57.2765 43.1559 56.7534 43.0114 56.2684C42.8669 55.7835 42.4249 55.4505 41.9223 55.4481Z" fill="#12CD86"/>
</svg>
