<svg width="20" height="20" viewBox="0 0 20 20" fill="none" xmlns="http://www.w3.org/2000/svg">
<path d="M19.0233 7.38419L13.1866 6.55065L10.5774 1.3529C10.5062 1.21059 10.3889 1.09538 10.2441 1.02536C9.88088 0.849163 9.43951 0.995992 9.2579 1.3529L6.64873 6.55065L0.812001 7.38419C0.651083 7.40678 0.503958 7.48133 0.391315 7.59427C0.255136 7.73181 0.180096 7.91684 0.182682 8.10872C0.185268 8.3006 0.26527 8.48361 0.405108 8.61756L4.62806 12.6633L3.63037 18.3761C3.60697 18.5089 3.62193 18.6456 3.67357 18.7706C3.7252 18.8955 3.81142 19.0038 3.92247 19.083C4.03352 19.1623 4.16495 19.2094 4.30185 19.219C4.43875 19.2286 4.57565 19.2003 4.69702 19.1373L9.91766 16.4402L15.1383 19.1373C15.2808 19.2119 15.4463 19.2367 15.605 19.2096C16.005 19.1418 16.2739 18.7691 16.205 18.3761L15.2073 12.6633L19.4302 8.61756C19.5452 8.50687 19.621 8.3623 19.644 8.20418C19.7061 7.80887 19.4256 7.44292 19.0233 7.38419Z" fill="#12CD86"/>
</svg>
