<svg width="103" height="93" viewBox="0 0 103 93" fill="none" xmlns="http://www.w3.org/2000/svg">
<path fill-rule="evenodd" clip-rule="evenodd" d="M99.5305 24.5455C100.042 25.1902 100.443 25.9734 100.62 26.8562C100.859 27.9985 100.113 29.4135 99.4281 30.2594C98.7438 31.14 97.4688 31.4883 96.5606 30.8652C95.6524 30.2421 95.0703 28.6844 94.2559 27.4793C93.7805 26.8021 93.2304 26.2309 92.6718 25.8047C89.5399 23.3317 85.5531 24.8397 81.6664 24.05C78.9545 23.494 76.2554 21.8064 75.0593 19.4914C74.3238 18.1457 74.1383 16.5685 74.004 15.5386C73.9571 14.9523 73.9017 14.5131 73.6394 12.2003C73.326 13.6823 73.0105 15.1665 73.0169 16.7372C73.0169 18.4897 73.3346 20.3287 74.2044 21.8259C75.5113 24.1084 77.9994 25.7138 80.7475 26.2352C84.6725 26.9881 89.122 25.5753 91.7892 27.992C92.2753 28.4161 92.7187 28.9808 93.0534 29.6169C93.725 30.7419 94.209 32.04 95.1492 32.7735C96.4412 33.7427 98.5689 33.5783 100.049 32.622C101.345 31.7653 102.093 30.227 102.245 28.3728C102.334 27.0617 102.146 25.5948 101.213 23.838L87.3226 6.80437C88.5187 5.76154 89.7169 4.67976 90.704 3.44654C91.5419 2.3864 92.2028 1.17481 92.8999 0C90.8703 0.387276 88.8385 0.735607 86.6852 0.679355C85.067 0.646902 83.4232 0.354821 82.0353 0.880564C80.8648 1.30462 79.8862 2.31933 78.946 3.33836C76.6264 2.87319 74.3451 2.37125 72.1065 2.52919C68.7529 2.71309 65.5186 4.36172 62.0733 4.97833C60.2227 5.33532 58.3146 5.39806 56.5706 4.92208C55.398 4.58024 54.3064 4.01988 53.2148 3.46168C53.8971 4.33143 54.6156 5.23796 55.4897 5.82428C56.609 6.56638 57.9969 6.91903 59.3955 7.05317C61.4401 7.21544 63.425 7.00774 65.3566 6.47118C67.318 5.97356 69.2283 5.10598 71.1471 4.82472C73.9336 4.43311 76.8182 5.14276 79.6645 5.85024C80.3936 4.82255 81.0823 3.83165 82.1141 3.25398C82.6322 2.94892 83.2846 2.79314 83.9008 2.71093C85.4209 2.48592 86.9282 2.62222 88.4313 2.79747C87.943 3.2886 87.4527 3.81434 86.9282 4.30114C86.0647 5.10381 85.1693 5.90433 84.308 6.70701L99.2618 24.1993C99.3578 24.3205 99.4622 24.433 99.5305 24.5455Z" fill="white"/>
<path fill-rule="evenodd" clip-rule="evenodd" d="M54.8864 12.791C56.6581 11.7915 58.4277 10.9888 60.2996 10.238C62.907 9.17791 65.7575 8.57644 68.5696 7.97281C66.0134 7.74996 63.4933 7.57255 61.0501 7.95983C57.6474 8.48124 54.4792 10.2251 51.1831 11.5189C48.339 12.5617 45.4353 13.3601 42.4974 13.4747C39.1629 13.6002 35.805 12.9187 32.4492 12.2004C35.3253 13.5678 38.2419 14.7058 41.3589 15.45C43.7744 16.0212 46.3776 16.1683 48.7505 15.6123C50.9273 15.0822 52.9058 13.9377 54.8864 12.791Z" fill="white"/>
<path fill-rule="evenodd" clip-rule="evenodd" d="M65.653 38.0416C68.3756 33.8508 70.8551 27.6263 74.6074 24.4351C70.5715 26.4342 67.672 31.4709 64.3397 34.5648C61.7131 30.1836 56.317 28.5177 51.7651 30.5168C55.4237 30.2312 59.7431 32.0875 61.6662 35.2788C63.5892 38.5154 63.5423 42.5656 61.5254 45.7071C71.4734 44.2791 81.562 44.8482 91.2733 47.4682C83.1546 43.9914 74.4283 42.1351 65.653 41.8971C65.8897 40.6119 65.8897 39.3268 65.653 38.0416Z" fill="white"/>
<path fill-rule="evenodd" clip-rule="evenodd" d="M29.827 29.7338C32.1616 28.3578 34.5494 26.9342 37.0225 25.8871C40.4657 24.4093 44.2479 23.5353 47.9768 22.6612C44.5655 22.4297 41.2055 22.2566 37.9649 22.8365C33.4514 23.6175 29.277 26.019 24.9213 27.8234C21.1626 29.2838 17.3143 30.4197 13.4085 30.6447C8.9739 30.8957 4.48604 30.0757 0.00244141 29.2016C3.86137 30.9519 7.72241 32.7001 11.8883 33.6131C15.1183 34.3141 18.585 34.4417 21.7318 33.6434C24.6121 32.8818 27.2196 31.3067 29.827 29.7338Z" fill="white"/>
<path fill-rule="evenodd" clip-rule="evenodd" d="M46.2732 19.9829C47.9042 19.4788 49.5757 18.9487 51.245 18.6675C53.5732 18.2629 56.0228 18.2759 58.4427 18.2824C56.3768 17.642 54.3343 17.0448 52.2599 16.928C49.371 16.7484 46.4629 17.616 43.5272 18.0898C41.0072 18.4403 38.4786 18.5766 36.0439 18.1439C33.2808 17.6506 30.6371 16.4909 28.002 15.2988C30.1276 16.9388 32.2553 18.5788 34.6879 19.7471C36.5769 20.6493 38.6918 21.2334 40.7407 21.2032C42.6211 21.1599 44.4482 20.5714 46.2732 19.9829Z" fill="white"/>
<path d="M0.00213409 76.9402V76.4231H0.699297C1.4519 76.4231 1.79941 76.2046 2.14906 75.7416C2.38997 75.4409 2.49871 74.7334 2.49871 73.5889V61.2437C2.49871 60.0992 2.36439 59.3895 2.14906 59.0909C1.77383 58.6279 1.45189 58.3835 0.67158 58.3835H0V57.8923H5.47925H8.48751C8.48751 57.8923 15.9005 57.4834 15.9005 62.8793C15.9005 62.8793 16.1968 65.9321 12.5703 67.1848C12.5703 67.1848 16.5721 67.9745 16.5721 71.8169C16.5721 75.6313 13.2142 76.9402 8.48965 76.9402H5.48138H0.00213409ZM5.48138 75.5772H8.08669C9.61747 75.5772 13.6192 75.4128 13.6192 71.8992C13.6192 70.3457 12.7601 67.6478 9.42986 67.6478V66.3951C11.1227 66.3951 13.163 66.0944 13.163 62.9074C13.163 59.1472 9.88611 59.1472 8.08669 59.1472H5.48138V75.5772V75.5772Z" fill="white"/>
<path d="M24.4416 76.9405H20.3332V76.4234H21.0303C21.7829 76.4234 22.1305 76.2049 22.4801 75.7419C22.721 75.4411 22.8298 74.7337 22.8298 73.5891V61.2439C22.8298 60.0994 22.6954 59.3898 22.4801 59.0912C22.1049 58.6282 21.7829 58.3837 21.0026 58.3837H20.3311V57.8926H25.8359V75.5796H35.6111V76.9426H25.8359H24.4416V76.9405Z" fill="white"/>
<path d="M58.2335 76.4342H58.8902V76.9404H51.0402V76.4342H51.7224C53.8224 76.4342 53.6924 74.9413 53.3235 73.7427L48.5713 62.1526L43.6613 73.6627C43.2157 74.7812 44.2391 76.4342 45.4458 76.4342H46.1025V76.9404H39.5913V76.4342H40.248C40.9835 76.4342 41.9024 74.7553 42.4013 73.7427L49.0169 57.8904H49.5947L56.1847 73.9569C56.5791 74.8894 57.2869 76.4342 58.2335 76.4342Z" fill="white"/>
<path d="M71.371 76.9405C66.1391 76.9405 61.9092 72.6718 61.9092 67.4165C61.9092 62.1591 66.1412 57.8926 71.371 57.8926C72.4221 57.8926 73.2941 58.0743 74.0381 58.414C75.4239 59.0652 77.089 60.0799 77.089 57.8926H77.5496V62.5767H76.6776C75.5242 59.9999 73.8825 58.8554 71.3689 58.8554C67.5995 58.8554 64.4697 62.1613 64.4697 67.4165C64.4697 72.6739 67.5974 76.0037 71.3689 76.0037C73.8825 76.0037 75.9079 74.3637 77.0613 71.7869L78.0612 72.2304C76.5518 75.1966 74.6799 76.9405 71.371 76.9405Z" fill="white"/>
<path d="M96.6519 60.3157C97.7797 59.4438 97.5111 58.3815 96.2767 58.3815H95.6051V57.8904H102.265V58.3815H101.916C100.735 58.3815 93.4027 63.9418 90.3945 66.2568L98.2893 74.4329C98.9864 75.1685 101.163 76.4234 102.129 76.4234H102.259V76.9404H94.7715V76.4234H95.0934C96.3555 76.4234 94.9335 75.0884 93.9123 74.0802L87.7081 67.6761V76.9426H82.2033V76.4255H82.9005C83.6531 76.4255 84.0027 76.207 84.3502 75.744C84.5912 75.4433 84.6999 74.7358 84.6999 73.5913V61.246C84.6999 60.1015 84.5656 59.3919 84.3502 59.0933C83.975 58.6303 83.6509 58.3858 82.8728 58.3858H82.2012V57.8947H87.706V66.9708L96.6519 60.3157Z" fill="white"/>
<path d="M17.6187 83.2749C18.1517 83.2749 18.5952 83.3679 18.9726 83.5389C19.6761 83.8699 20.5204 84.3848 20.5204 83.2749H20.7549V85.6505H20.3136C19.7273 84.3437 18.8958 83.7617 17.6209 83.7617C15.7084 83.7617 14.9153 85.6894 18.011 87.2991C22.5373 89.5557 20.9894 92.8832 17.6848 92.8832C17.1134 92.8832 16.7084 92.8032 16.331 92.6452C15.6146 92.3294 14.7704 91.8274 14.7959 92.9352H14.5486L14.5103 90.5596H14.9516C15.5635 91.8534 16.4205 92.3943 17.6827 92.3943C19.4394 92.3943 20.5715 90.0187 16.8491 88.3138C13.2097 86.5375 14.9644 83.2749 17.6187 83.2749Z" fill="#12CD86"/>
<path d="M31.7308 83.2749V83.911H27.9699V91.2389C27.9699 91.8188 28.0253 92.1801 28.1469 92.3315C28.3238 92.5673 28.5008 92.6777 28.8824 92.6777H29.2363V92.9395H25.1621V92.6777H25.516C25.8976 92.6777 26.0745 92.5673 26.2515 92.3315C26.3752 92.1801 26.4285 91.8209 26.4285 91.2389V83.911H22.6719V83.2749H31.7308Z" fill="#12CD86"/>
<path d="M40.9535 92.6821H41.2861V92.9395H37.3035V92.6821H37.6489C38.7149 92.6821 38.6488 91.9248 38.4612 91.3169L36.0499 85.4385L33.5597 91.2779C33.3337 91.8447 33.8518 92.6842 34.4658 92.6842H34.7984V92.9417H31.498V92.6842H31.8306C32.2037 92.6842 32.6706 91.8318 32.9222 91.319L36.278 83.2771H36.5701L39.9131 91.4272C40.1135 91.8988 40.4738 92.6821 40.9535 92.6821Z" fill="#12CD86"/>
<path d="M45.1495 92.9395H43.0645V92.6777H43.4184C43.8 92.6777 43.9769 92.5673 44.1539 92.3315C44.2754 92.1801 44.3309 91.8209 44.3309 91.2389V84.9754C44.3309 84.3956 44.2626 84.0343 44.1539 83.8829C43.962 83.647 43.8 83.5237 43.4056 83.5237H43.0645V83.2749H45.8574V92.2471H50.8164V92.9373H45.8574H45.1495V92.9395Z" fill="#12CD86"/>
<path d="M54.5921 92.9395H52.507V92.6777H52.8609C53.2426 92.6777 53.4195 92.5673 53.5965 92.3315C53.7201 92.1801 53.7734 91.8209 53.7734 91.2389V84.9754C53.7734 84.3956 53.7052 84.0343 53.5965 83.8829C53.4046 83.647 53.2426 83.5237 52.846 83.5237H52.5049V83.2749H55.2978V92.2471H60.2568V92.9373H55.2978H54.5921V92.9395Z" fill="#12CD86"/>
<path d="M66.0792 83.5237H65.7253C65.3437 83.5237 65.1667 83.6492 64.9898 83.8829C64.8661 84.0343 64.8128 84.3935 64.8128 84.9754L64.8 91.2389C64.8 91.8188 64.8683 92.1801 64.977 92.3315C65.1689 92.5673 65.3309 92.6777 65.7253 92.6777H66.0664V92.9395H61.9922V92.6777H62.3461C62.7277 92.6777 62.9047 92.5673 63.0816 92.3315C63.2053 92.1801 63.2586 91.8209 63.2586 91.2389V84.9754C63.2586 84.3956 63.1904 84.0343 63.0816 83.8829C62.8919 83.647 62.7277 83.5237 62.3333 83.5237H61.9922V83.2749H66.0792V83.5237Z" fill="#12CD86"/>
<path d="M72.812 83.2749C75.4536 83.2749 77.6133 85.4406 77.6133 88.1061C77.6133 90.7716 75.4536 92.9373 72.812 92.9373C70.1577 92.9373 68.0107 90.7716 68.0107 88.1061C68.0107 85.4406 70.1598 83.2749 72.812 83.2749ZM72.7736 92.4635C74.686 92.4635 76.2339 90.7738 76.2339 88.1061C76.2339 85.4385 74.686 83.7617 72.7736 83.7617C70.8612 83.7617 69.3134 85.4385 69.3134 88.1061C69.3134 90.7738 70.8612 92.4635 72.7736 92.4635Z" fill="#12CD86"/>
<path d="M87.653 90.6439V84.9754C87.653 84.3956 87.5848 84.0343 87.4761 83.8829C87.2842 83.647 87.1221 83.5237 86.7256 83.5237H86.3845V83.2749H88.4696V86.1784L88.4568 92.9395H87.653L81.5768 84.1187V86.1784L81.564 91.2389C81.564 91.8188 81.6194 92.1801 81.741 92.3315C81.9307 92.5673 82.0949 92.6777 82.4893 92.6777H82.8304V92.9395H79.4917V92.6777H79.8456C80.2272 92.6777 80.4042 92.5673 80.5812 92.3315C80.7048 92.1801 80.7581 91.8209 80.7581 91.2389V84.9754C80.7581 84.3956 80.6899 84.0343 80.5812 83.8829C80.3914 83.647 80.2272 83.5237 79.8328 83.5237H79.4917V83.2749H80.9905H81.5768H82.4211L87.653 90.6439Z" fill="#12CD86"/>
</svg>
