<svg width="76" height="28" viewBox="0 0 76 28" fill="none" xmlns="http://www.w3.org/2000/svg">
<path d="M73.1505 16.8288L75.2664 18.2028C74.5797 19.1881 72.9372 20.8786 70.0974 20.8786C66.571 20.8786 63.9448 18.221 63.9448 14.8401C63.9448 11.2425 66.5988 8.80176 69.8005 8.80176C73.0206 8.80176 74.5982 11.2966 75.1087 12.6435L75.3871 13.3306L67.0907 16.6751C67.7218 17.8865 68.7056 18.5012 70.0974 18.5012C71.4895 18.5012 72.4545 17.8322 73.1505 16.8288ZM66.6453 14.6505L72.1855 12.4085C71.8792 11.6583 70.9699 11.1251 69.8839 11.1251C68.5013 11.1251 66.5804 12.3183 66.6453 14.6505Z" fill="#8F95B3" fill-opacity="0.28"/>
<path d="M59.9043 1.76602H62.5966V20.0991H59.9043V1.76587V1.76602Z" fill="#8F95B3" fill-opacity="0.28"/>
<path d="M56.0749 9.3033H58.56V20.5475C58.56 25.2136 55.9587 27.135 52.8835 27.135C49.9873 27.135 48.2443 25.0717 47.5916 23.3965L49.8711 22.3931C50.2822 23.4247 51.2745 24.6458 52.8835 24.6458C54.859 24.6458 56.0749 23.3491 56.0749 20.9262V20.0176H55.9855C55.3954 20.7747 54.2691 21.4561 52.8389 21.4561C49.8532 21.4561 47.1177 18.7018 47.1177 15.1526C47.1177 11.5843 49.8532 8.80176 52.8389 8.80176C54.2602 8.80176 55.3954 9.47377 55.9855 10.212H56.0749V9.30345V9.3033ZM56.2535 15.1526C56.2535 12.9189 54.8501 11.2909 53.0623 11.2909C51.2566 11.2909 49.7369 12.9189 49.7369 15.1526C49.7369 17.3578 51.2566 18.9574 53.0623 18.9574C54.8503 18.967 56.2537 17.3578 56.2537 15.1526H56.2535Z" fill="#8F95B3" fill-opacity="0.28"/>
<path d="M32.3102 14.8447C32.3102 18.3224 29.5897 20.8786 26.2525 20.8786C22.9154 20.8786 20.1948 18.3134 20.1948 14.8447C20.1948 11.349 22.9154 8.80176 26.2525 8.80176C29.5897 8.80176 32.3102 11.349 32.3102 14.8447ZM29.6622 14.8447C29.6622 12.6769 28.0842 11.1863 26.2525 11.1863C24.4208 11.1863 22.8428 12.6769 22.8428 14.8447C22.8428 16.9945 24.4208 18.5031 26.2525 18.5031C28.0844 18.5031 29.6622 16.9945 29.6622 14.8447Z" fill="#8F95B3" fill-opacity="0.28"/>
<path d="M45.7689 14.8402C45.7689 18.3205 42.8971 20.8786 39.3747 20.8786C35.852 20.8786 32.9805 18.3203 32.9805 14.8402C32.9805 11.3419 35.852 8.80176 39.3747 8.80176C42.8971 8.80176 45.7689 11.3329 45.7689 14.8402ZM42.9641 14.8402C42.9641 12.6708 41.2986 11.1791 39.365 11.1791C37.4315 11.1791 35.7658 12.6708 35.7658 14.8402C35.7658 16.9916 37.4315 18.5013 39.365 18.5013C41.3082 18.5013 42.9641 16.9826 42.9641 14.8402Z" fill="#8F95B3" fill-opacity="0.28"/>
<path d="M9.813 18.0499C5.92303 18.0499 2.87806 14.6959 2.87806 10.5382C2.87806 6.3806 5.92303 3.02664 9.813 3.02664C11.9112 3.02664 13.4429 3.90973 14.5755 5.04099L16.4417 3.04655C14.8635 1.42914 12.756 0.198486 9.813 0.198486C4.48415 0.198646 0 4.84268 0 10.5382C0 16.234 4.48415 20.8779 9.813 20.8779C12.6911 20.8779 14.8635 19.8657 16.5624 17.9804C18.3077 16.1148 18.8461 13.4952 18.8461 11.3717C18.8461 10.7069 18.7719 10.0222 18.6883 9.51618H9.813V12.2747H16.1353C15.9496 14.0014 15.439 15.1822 14.687 15.9858C13.7772 16.9683 12.3383 18.0499 9.813 18.0499Z" fill="#8F95B3" fill-opacity="0.28"/>
</svg>
