<svg width="20" height="19" viewBox="0 0 20 19" fill="none" xmlns="http://www.w3.org/2000/svg">
<path d="M2.95822 17.4235C2.92472 17.5596 2.92412 17.7011 2.95646 17.8375C2.98881 17.9738 3.05326 18.1014 3.14499 18.2108C3.23672 18.3202 3.35334 18.4084 3.48612 18.4689C3.6189 18.5294 3.7644 18.5606 3.91169 18.5602C4.10486 18.5602 4.29372 18.506 4.45444 18.4043L9.77919 15.0359L15.1039 18.4043C15.2705 18.5092 15.467 18.5632 15.6669 18.5591C15.8668 18.5549 16.0605 18.4928 16.2221 18.381C16.3837 18.2692 16.5053 18.1132 16.5706 17.9339C16.6359 17.7546 16.6418 17.5606 16.5874 17.378L14.7988 11.4393L19.2347 7.65157C19.3767 7.53019 19.4782 7.37195 19.5265 7.19644C19.5748 7.02092 19.5678 6.83582 19.5064 6.66403C19.445 6.49223 19.3319 6.34128 19.1811 6.22984C19.0302 6.1184 18.8483 6.05135 18.6577 6.037L13.0826 5.61572L10.6701 0.548369C10.5932 0.38516 10.4683 0.246537 10.3102 0.149232C10.1522 0.0519273 9.96789 9.82469e-05 9.77951 1.39539e-07C9.59113 -9.79678e-05 9.40674 0.0515391 9.2486 0.14868C9.09046 0.24582 8.96533 0.384312 8.88831 0.547441L6.47579 5.61572L0.900687 6.03607C0.713372 6.05015 0.534299 6.11514 0.38489 6.22326C0.235481 6.33138 0.122063 6.47805 0.058205 6.64574C-0.00565273 6.81342 -0.0172465 6.99501 0.0248109 7.16878C0.0668683 7.34255 0.160796 7.50114 0.295357 7.62559L4.4163 11.4365L2.95822 17.4235ZM9.77919 3.18365L11.7761 7.37876L12.3511 7.42238H12.3521L16.2364 7.71467L13.0376 10.4465L13.0366 10.4483L12.5839 10.8343L12.7511 11.3883V11.3911L13.9764 15.46L9.77919 12.8052V3.18365Z" fill="#12CD86"/>
</svg>
