<?xml version="1.0" encoding="utf-8"?>
<!-- Generator: Adobe Illustrator 26.0.0, SVG Export Plug-In . SVG Version: 6.00 Build 0)  -->
<svg version="1.1" id="Layer_1" xmlns="http://www.w3.org/2000/svg" xmlns:xlink="http://www.w3.org/1999/xlink" x="0px" y="0px"
	 viewBox="0 0 512 512" style="enable-background:new 0 0 512 512;" xml:space="preserve">
<path style="fill:#9DAFBD;" d="M256,0C114.64,0,0,114.64,0,256s114.64,256,256,256s256-114.64,256-256S397.36,0,256,0z M181.61,387
	h-62.35V199.43h62.35V387z M150.44,173.81h-0.41c-20.92,0-34.45-14.4-34.45-32.4c0-18.41,13.95-32.41,35.27-32.41
	s34.45,14,34.86,32.41C185.71,159.41,172.18,173.81,150.44,173.81z M406.42,387h-62.34V286.65c0-25.22-9.03-42.42-31.59-42.42
	c-17.22,0-27.48,11.6-31.99,22.8c-1.65,4.01-2.05,9.61-2.05,15.21V387h-62.34c0,0,0.82-169.98,0-187.57h62.34v26.56
	c8.29-12.78,23.11-30.96,56.19-30.96c41.02,0,71.78,26.81,71.78,84.42V387z"/>
</svg>
