<?xml version="1.0" encoding="utf-8"?>
<!-- Generator: Adobe Illustrator 26.0.0, SVG Export Plug-In . SVG Version: 6.00 Build 0)  -->
<svg version="1.1" id="Layer_1" xmlns="http://www.w3.org/2000/svg" xmlns:xlink="http://www.w3.org/1999/xlink" x="0px" y="0px"
	 viewBox="0 0 1080 489" style="enable-background:new 0 0 1080 489;" xml:space="preserve">
<style type="text/css">
	.st0{fill-rule:evenodd;clip-rule:evenodd;fill:#FFFFFF;}
</style>
<g>
	<g>
		<path class="st0" d="M1045.5,252.9c5.3,6.7,9.6,14.7,11.4,23.8c2.4,11.8-5.3,26.3-12.5,35c-7.1,9.1-20.5,12.7-30.1,6.2
			s-15.6-22.5-24.1-34.8c-4.9-6.9-10.7-12.9-16.5-17.1c-32.8-25.4-74.4-10-114.9-18c-28.3-5.8-56.6-23.2-69-47
			c-7.8-13.8-9.6-30.1-11.1-40.8c-0.5-6-1.1-10.5-3.8-34.3c-3.3,15.4-6.7,30.5-6.5,46.8c0,18,3.3,37,12.5,52.4
			c13.6,23.4,39.7,40.1,68.4,45.4c41,7.8,87.5-6.7,115.4,18c5.1,4.5,9.8,10.2,13.1,16.7c7.1,11.6,12,25,21.8,32.5
			c13.6,10,35.6,8.2,51.2-1.6c13.6-8.9,21.4-24.7,22.9-43.7c0.9-13.6-1.1-28.5-10.7-46.8L917.9,70.4c12.5-10.7,25-21.8,35.4-34.5
			C962,25,968.9,12.5,976.2,0.5c-21.2,4-42.3,7.6-65,6.9c-16.7-0.4-33.9-3.6-48.3,2c-12.2,4.5-22.5,14.7-32.3,25.4
			c-24.3-4.7-48.1-10-71.5-8.2c-35,2-68.8,18.9-104.9,25.2c-19.4,3.6-39.2,4.2-57.5-0.7c-12.2-3.6-23.6-9.4-35-15.1
			c7.1,8.9,14.7,18.3,23.8,24.3c11.6,7.6,26.3,11.4,40.8,12.7c21.4,1.8,42.1-0.4,62.4-6c20.5-5.1,40.5-14,60.6-16.9
			c29.2-4,59.2,3.3,89.1,10.5c7.6-10.7,14.9-20.7,25.6-26.7c5.3-3.1,12.2-4.7,18.7-5.6c15.8-2.2,31.6-0.9,47.2,0.9
			c-5.1,5.1-10.2,10.5-15.6,15.4c-8.9,8.2-18.3,16.5-27.4,24.7l156.1,180.2C1043.7,250.6,1044.8,251.8,1045.5,252.9L1045.5,252.9z"
			/>
		<path class="st0" d="M579.1,131.9c18.5-10.2,37-18.5,56.6-26.3c27.2-10.9,57-17.2,86.4-23.4C695.3,80,669,78,643.4,82
			c-35.6,5.3-68.6,23.4-103.1,36.5c-29.6,10.7-60.1,18.9-90.7,20c-34.8,1.3-69.9-5.8-104.9-13.1c30.1,14,60.6,25.8,93.1,33.4
			c25.2,5.8,52.4,7.4,77.3,1.8C537.8,155.5,558.3,143.7,579.1,131.9L579.1,131.9z"/>
		<path class="st0" d="M691.6,391.9c28.5-43.2,54.3-107.1,93.6-140.1C743,272.2,712.7,324.2,677.8,356
			c-27.4-45-83.8-62.4-131.4-41.7c38.3-2.9,83.3,16.3,103.4,49c20,33.4,19.6,75.1-1.6,107.4c104-14.7,209.4-8.9,310.8,18
			c-84.9-35.9-176-54.8-267.8-57.5C694.2,418.4,694.2,405.2,691.6,391.9L691.6,391.9z"/>
		<path class="st0" d="M317.3,306.3c24.5-14.3,49.5-28.7,75.3-39.6c36.1-15.1,75.5-24.3,114.5-33.2c-35.6-2.4-70.8-4.2-104.7,1.8
			c-47.2,8-90.9,32.8-136.3,51.2c-39.2,15.1-79.5,26.7-120.3,29c-46.3,2.9-93.3-5.6-140.1-14.5C46,319,86.3,337.1,130,346.4
			c33.9,7.1,69.9,8.5,102.9,0.2C262.8,338.9,290.1,322.6,317.3,306.3L317.3,306.3z"/>
		<path class="st0" d="M489.1,206.1c17.1-5.1,34.5-10.7,51.9-13.6c24.3-4.2,49.9-4,75.3-4c-21.6-6.7-43-12.7-64.6-14
			c-30.1-1.8-60.6,7.1-91.3,12c-26.3,3.6-52.8,4.9-78.2,0.4c-29-5.1-56.6-16.9-84-29.2c22.3,16.9,44.5,33.9,69.9,45.9
			c19.8,9.4,41.9,15.4,63.3,14.9C451,218.1,470.1,212.1,489.1,206.1L489.1,206.1z"/>
	</g>
</g>
</svg>
