<svg width="88" height="86" viewBox="0 0 88 86" fill="none" xmlns="http://www.w3.org/2000/svg">
<circle cx="24.6875" cy="39.4032" r="24.6875" fill="#EB001B"/>
<circle cx="54.3125" cy="39.4032" r="24.6875" fill="#F79E1B"/>
<path fill-rule="evenodd" clip-rule="evenodd" d="M39.4997 59.1531C46.3147 55.2109 50.8998 47.8425 50.8998 39.4032C50.8998 30.9639 46.3147 23.5955 39.4997 19.6532C32.6847 23.5955 28.0996 30.9639 28.0996 39.4032C28.0996 47.8425 32.6847 55.2109 39.4997 59.1531Z" fill="#FF5F00"/>
<path d="M4.02979 77.8447V85H2.0293V76.0186H3.91357L4.02979 77.8447ZM3.70605 80.1772L3.02539 80.1689C3.02539 79.5492 3.10286 78.9764 3.25781 78.4507C3.41276 77.925 3.63965 77.4684 3.93848 77.0811C4.2373 76.6882 4.60807 76.3866 5.05078 76.1763C5.49902 75.9604 6.01644 75.8525 6.60303 75.8525C7.01253 75.8525 7.38607 75.9134 7.72363 76.0352C8.06673 76.1514 8.36279 76.3368 8.61182 76.5913C8.86637 76.8459 9.06006 77.1724 9.19287 77.5708C9.33122 77.9692 9.40039 78.4507 9.40039 79.0151V85H7.3999V79.1895C7.3999 78.7523 7.3335 78.4092 7.20068 78.1602C7.0734 77.9111 6.88802 77.734 6.64453 77.6289C6.40658 77.5182 6.12158 77.4629 5.78955 77.4629C5.41325 77.4629 5.09229 77.5348 4.82666 77.6787C4.56657 77.8226 4.35352 78.019 4.1875 78.2681C4.02148 78.5171 3.89974 78.8049 3.82227 79.1313C3.74479 79.4578 3.70605 79.8065 3.70605 80.1772ZM9.27588 79.646L8.33789 79.8535C8.33789 79.3112 8.4126 78.7993 8.56201 78.3179C8.71696 77.8309 8.94108 77.4048 9.23438 77.0396C9.5332 76.6688 9.9012 76.3783 10.3384 76.168C10.7756 75.9577 11.2764 75.8525 11.8408 75.8525C12.3001 75.8525 12.7096 75.9162 13.0693 76.0435C13.4346 76.1652 13.7445 76.3589 13.999 76.6245C14.2536 76.8901 14.4473 77.236 14.5801 77.6621C14.7129 78.0827 14.7793 78.5918 14.7793 79.1895V85H12.7705V79.1812C12.7705 78.7274 12.7041 78.376 12.5713 78.127C12.444 77.8779 12.2614 77.7064 12.0234 77.6123C11.7855 77.5127 11.5005 77.4629 11.1685 77.4629C10.8586 77.4629 10.5846 77.521 10.3467 77.6372C10.1143 77.7479 9.91781 77.9056 9.75732 78.1104C9.59684 78.3096 9.4751 78.5392 9.39209 78.7993C9.31462 79.0594 9.27588 79.3416 9.27588 79.646ZM21.9014 83.1987V78.9155C21.9014 78.5946 21.8433 78.3179 21.7271 78.0854C21.6108 77.853 21.4338 77.6732 21.1958 77.5459C20.9634 77.4186 20.6701 77.355 20.3159 77.355C19.9894 77.355 19.7072 77.4103 19.4692 77.521C19.2313 77.6317 19.0459 77.7811 18.9131 77.9692C18.7803 78.1574 18.7139 78.3704 18.7139 78.6084H16.7217C16.7217 78.2542 16.8075 77.9111 16.979 77.5791C17.1506 77.2471 17.3996 76.951 17.7261 76.6909C18.0526 76.4308 18.4427 76.2261 18.8965 76.0767C19.3503 75.9272 19.8594 75.8525 20.4238 75.8525C21.099 75.8525 21.6966 75.966 22.2168 76.1929C22.7425 76.4198 23.1548 76.7629 23.4536 77.2222C23.758 77.6759 23.9102 78.2459 23.9102 78.9321V82.9248C23.9102 83.3343 23.9378 83.7023 23.9932 84.0288C24.054 84.3498 24.1398 84.6292 24.2505 84.8672V85H22.2002C22.1061 84.7842 22.0314 84.5103 21.9761 84.1782C21.9263 83.8407 21.9014 83.5142 21.9014 83.1987ZM22.1919 79.5381L22.2085 80.7749H20.7725C20.4017 80.7749 20.0752 80.8109 19.793 80.8828C19.5107 80.9492 19.2756 81.0488 19.0874 81.1816C18.8993 81.3145 18.7581 81.4749 18.6641 81.6631C18.57 81.8512 18.5229 82.0643 18.5229 82.3022C18.5229 82.5402 18.5783 82.7588 18.689 82.958C18.7996 83.1517 18.9601 83.3039 19.1704 83.4146C19.3862 83.5252 19.6463 83.5806 19.9507 83.5806C20.3602 83.5806 20.7171 83.4976 21.0215 83.3315C21.3314 83.16 21.5749 82.9525 21.752 82.709C21.929 82.46 22.0231 82.2248 22.0342 82.0034L22.6816 82.8916C22.6152 83.1185 22.5018 83.362 22.3413 83.6221C22.1808 83.8822 21.9705 84.1312 21.7104 84.3691C21.4559 84.6016 21.1488 84.7925 20.7891 84.9419C20.4349 85.0913 20.0254 85.166 19.5605 85.166C18.974 85.166 18.451 85.0498 17.9917 84.8174C17.5324 84.5794 17.1727 84.2612 16.9126 83.8628C16.6525 83.4588 16.5225 83.0023 16.5225 82.4932C16.5225 82.0173 16.611 81.5967 16.7881 81.2314C16.9707 80.8607 17.2363 80.5508 17.585 80.3018C17.9391 80.0527 18.3708 79.8646 18.8799 79.7373C19.389 79.6045 19.9701 79.5381 20.623 79.5381H22.1919ZM31.0405 82.5679C31.0405 82.3687 30.9907 82.1888 30.8911 82.0283C30.7915 81.8623 30.6006 81.7129 30.3184 81.5801C30.0417 81.4473 29.6322 81.3255 29.0898 81.2148C28.6139 81.1097 28.1768 80.9852 27.7783 80.8413C27.3854 80.6919 27.0479 80.512 26.7656 80.3018C26.4834 80.0915 26.2648 79.8424 26.1099 79.5547C25.9549 79.2669 25.8774 78.9349 25.8774 78.5586C25.8774 78.1934 25.9577 77.8475 26.1182 77.521C26.2786 77.1945 26.5083 76.9067 26.8071 76.6577C27.106 76.4087 27.4684 76.2122 27.8945 76.0684C28.3262 75.9245 28.8076 75.8525 29.3389 75.8525C30.0915 75.8525 30.7362 75.9798 31.2729 76.2344C31.8153 76.4834 32.2303 76.8237 32.5181 77.2554C32.8058 77.6815 32.9497 78.1629 32.9497 78.6997H30.9492C30.9492 78.4618 30.8883 78.2404 30.7666 78.0356C30.6504 77.8254 30.4733 77.6566 30.2354 77.5293C29.9974 77.3965 29.6986 77.3301 29.3389 77.3301C28.9958 77.3301 28.7108 77.3854 28.4839 77.4961C28.2625 77.6012 28.0965 77.7396 27.9858 77.9111C27.8807 78.0827 27.8281 78.2708 27.8281 78.4756C27.8281 78.625 27.8558 78.7606 27.9111 78.8823C27.972 78.9985 28.0716 79.1064 28.21 79.2061C28.3483 79.3001 28.5365 79.3887 28.7744 79.4717C29.0179 79.5547 29.3223 79.6349 29.6875 79.7124C30.3737 79.8563 30.9631 80.0417 31.4556 80.2686C31.9536 80.4899 32.3354 80.7777 32.6011 81.1318C32.8667 81.4805 32.9995 81.9232 32.9995 82.46C32.9995 82.8584 32.9137 83.2236 32.7422 83.5557C32.5762 83.8822 32.3327 84.1672 32.0117 84.4106C31.6908 84.6486 31.3062 84.834 30.8579 84.9668C30.4152 85.0996 29.9172 85.166 29.3638 85.166C28.5503 85.166 27.8613 85.0221 27.2969 84.7344C26.7324 84.4411 26.3035 84.0675 26.0103 83.6138C25.7225 83.1545 25.5786 82.6785 25.5786 82.186H27.5127C27.5348 82.5568 27.6372 82.8529 27.8198 83.0742C28.008 83.29 28.2404 83.4478 28.5171 83.5474C28.7993 83.6414 29.0898 83.6885 29.3887 83.6885C29.7484 83.6885 30.05 83.6414 30.2935 83.5474C30.5369 83.4478 30.7223 83.3149 30.8496 83.1489C30.9769 82.9774 31.0405 82.7837 31.0405 82.5679ZM38.8682 76.0186V77.4795H33.8047V76.0186H38.8682ZM35.2656 73.8188H37.2661V82.5181C37.2661 82.7948 37.3049 83.0078 37.3823 83.1572C37.4653 83.3011 37.5788 83.3979 37.7227 83.4478C37.8665 83.4976 38.0353 83.5225 38.229 83.5225C38.3674 83.5225 38.5002 83.5142 38.6274 83.4976C38.7547 83.481 38.8571 83.4644 38.9346 83.4478L38.9429 84.9751C38.7769 85.0249 38.5832 85.0692 38.3618 85.1079C38.146 85.1466 37.897 85.166 37.6147 85.166C37.1554 85.166 36.7487 85.0858 36.3945 84.9253C36.0404 84.7593 35.7637 84.4909 35.5645 84.1201C35.3652 83.7493 35.2656 83.2568 35.2656 82.6426V73.8188ZM44.3716 85.166C43.7075 85.166 43.1071 85.0581 42.5703 84.8423C42.0391 84.6209 41.5853 84.3138 41.209 83.9209C40.8382 83.528 40.5532 83.0659 40.354 82.5347C40.1548 82.0034 40.0552 81.4307 40.0552 80.8164V80.4844C40.0552 79.7816 40.1576 79.1452 40.3623 78.5752C40.5671 78.0052 40.8521 77.5182 41.2173 77.1143C41.5825 76.7048 42.0142 76.3921 42.5122 76.1763C43.0103 75.9604 43.5498 75.8525 44.1309 75.8525C44.7728 75.8525 45.3345 75.9604 45.8159 76.1763C46.2974 76.3921 46.6958 76.6965 47.0112 77.0894C47.3322 77.4767 47.5701 77.9388 47.7251 78.4756C47.8856 79.0124 47.9658 79.6045 47.9658 80.252V81.1069H41.0264V79.6709H45.9902V79.5132C45.9792 79.1535 45.9072 78.8159 45.7744 78.5005C45.6471 78.1851 45.4507 77.9305 45.1851 77.7368C44.9194 77.5431 44.5653 77.4463 44.1226 77.4463C43.7905 77.4463 43.4945 77.5182 43.2344 77.6621C42.9798 77.8005 42.7668 78.0024 42.5952 78.2681C42.4237 78.5337 42.2909 78.8547 42.1968 79.231C42.1082 79.6017 42.064 80.0195 42.064 80.4844V80.8164C42.064 81.2093 42.1165 81.5745 42.2217 81.9121C42.3324 82.2441 42.4928 82.5347 42.7031 82.7837C42.9134 83.0327 43.168 83.2292 43.4668 83.373C43.7656 83.5114 44.106 83.5806 44.4878 83.5806C44.9692 83.5806 45.3981 83.4837 45.7744 83.29C46.1507 83.0964 46.4772 82.8224 46.7539 82.4683L47.8081 83.4893C47.6144 83.7715 47.3626 84.0426 47.0527 84.3027C46.7428 84.5573 46.3638 84.7648 45.9155 84.9253C45.4728 85.0858 44.9582 85.166 44.3716 85.166ZM51.5352 77.7285V85H49.5347V76.0186H51.4438L51.5352 77.7285ZM54.2827 75.9604L54.2661 77.8198C54.1444 77.7977 54.0116 77.7811 53.8677 77.77C53.7293 77.759 53.591 77.7534 53.4526 77.7534C53.1095 77.7534 52.8079 77.8032 52.5479 77.9028C52.2878 77.9969 52.0692 78.1353 51.8921 78.3179C51.7205 78.495 51.5877 78.7108 51.4937 78.9653C51.3996 79.2199 51.3442 79.5049 51.3276 79.8203L50.8711 79.8535C50.8711 79.2891 50.9264 78.7661 51.0371 78.2847C51.1478 77.8032 51.3138 77.3799 51.5352 77.0146C51.762 76.6494 52.0443 76.3644 52.3818 76.1597C52.7249 75.9549 53.1206 75.8525 53.5688 75.8525C53.6906 75.8525 53.8206 75.8636 53.959 75.8857C54.1029 75.9079 54.2108 75.9328 54.2827 75.9604ZM59.0391 83.5723C59.3656 83.5723 59.6589 83.5086 59.9189 83.3813C60.1846 83.2485 60.3976 83.0659 60.5581 82.8335C60.7241 82.6011 60.8154 82.3327 60.832 82.0283H62.7163C62.7052 82.6094 62.5337 83.1379 62.2017 83.6138C61.8696 84.0897 61.4297 84.4688 60.8818 84.751C60.334 85.0277 59.728 85.166 59.064 85.166C58.3778 85.166 57.7801 85.0498 57.271 84.8174C56.7619 84.5794 56.3385 84.2529 56.001 83.8379C55.6634 83.4229 55.4089 82.9442 55.2373 82.4019C55.0713 81.8595 54.9883 81.2785 54.9883 80.6587V80.3682C54.9883 79.7484 55.0713 79.1673 55.2373 78.625C55.4089 78.0771 55.6634 77.5957 56.001 77.1807C56.3385 76.7656 56.7619 76.4419 57.271 76.2095C57.7801 75.9715 58.375 75.8525 59.0557 75.8525C59.7751 75.8525 60.4059 75.9964 60.9482 76.2842C61.4906 76.5664 61.9167 76.9621 62.2266 77.4712C62.542 77.9748 62.7052 78.5614 62.7163 79.231H60.832C60.8154 78.8989 60.7324 78.6001 60.583 78.3345C60.4391 78.0633 60.2344 77.8475 59.9688 77.687C59.7087 77.5265 59.396 77.4463 59.0308 77.4463C58.6268 77.4463 58.292 77.5293 58.0264 77.6953C57.7607 77.8558 57.5532 78.0771 57.4038 78.3594C57.2544 78.6361 57.1465 78.9487 57.0801 79.2974C57.0192 79.6405 56.9888 79.9974 56.9888 80.3682V80.6587C56.9888 81.0295 57.0192 81.3892 57.0801 81.7378C57.141 82.0864 57.2461 82.3991 57.3955 82.6758C57.5505 82.9469 57.7607 83.1655 58.0264 83.3315C58.292 83.492 58.6296 83.5723 59.0391 83.5723ZM69.3154 83.1987V78.9155C69.3154 78.5946 69.2573 78.3179 69.1411 78.0854C69.0249 77.853 68.8478 77.6732 68.6099 77.5459C68.3774 77.4186 68.0841 77.355 67.73 77.355C67.4035 77.355 67.1213 77.4103 66.8833 77.521C66.6453 77.6317 66.46 77.7811 66.3271 77.9692C66.1943 78.1574 66.1279 78.3704 66.1279 78.6084H64.1357C64.1357 78.2542 64.2215 77.9111 64.3931 77.5791C64.5646 77.2471 64.8136 76.951 65.1401 76.6909C65.4666 76.4308 65.8568 76.2261 66.3105 76.0767C66.7643 75.9272 67.2734 75.8525 67.8379 75.8525C68.513 75.8525 69.1107 75.966 69.6309 76.1929C70.1566 76.4198 70.5688 76.7629 70.8677 77.2222C71.172 77.6759 71.3242 78.2459 71.3242 78.9321V82.9248C71.3242 83.3343 71.3519 83.7023 71.4072 84.0288C71.4681 84.3498 71.5539 84.6292 71.6646 84.8672V85H69.6143C69.5202 84.7842 69.4455 84.5103 69.3901 84.1782C69.3403 83.8407 69.3154 83.5142 69.3154 83.1987ZM69.606 79.5381L69.6226 80.7749H68.1865C67.8158 80.7749 67.4893 80.8109 67.207 80.8828C66.9248 80.9492 66.6896 81.0488 66.5015 81.1816C66.3133 81.3145 66.1722 81.4749 66.0781 81.6631C65.984 81.8512 65.937 82.0643 65.937 82.3022C65.937 82.5402 65.9924 82.7588 66.103 82.958C66.2137 83.1517 66.3742 83.3039 66.5845 83.4146C66.8003 83.5252 67.0604 83.5806 67.3647 83.5806C67.7743 83.5806 68.1312 83.4976 68.4355 83.3315C68.7454 83.16 68.9889 82.9525 69.166 82.709C69.3431 82.46 69.4372 82.2248 69.4482 82.0034L70.0957 82.8916C70.0293 83.1185 69.9159 83.362 69.7554 83.6221C69.5949 83.8822 69.3846 84.1312 69.1245 84.3691C68.87 84.6016 68.5628 84.7925 68.2031 84.9419C67.849 85.0913 67.4395 85.166 66.9746 85.166C66.388 85.166 65.8651 85.0498 65.4058 84.8174C64.9465 84.5794 64.5868 84.2612 64.3267 83.8628C64.0666 83.4588 63.9365 83.0023 63.9365 82.4932C63.9365 82.0173 64.0251 81.5967 64.2021 81.2314C64.3848 80.8607 64.6504 80.5508 64.999 80.3018C65.3532 80.0527 65.7848 79.8646 66.2939 79.7373C66.8031 79.6045 67.3841 79.5381 68.0371 79.5381H69.606ZM75.4248 77.7285V85H73.4243V76.0186H75.3335L75.4248 77.7285ZM78.1724 75.9604L78.1558 77.8198C78.034 77.7977 77.9012 77.7811 77.7573 77.77C77.619 77.759 77.4806 77.7534 77.3423 77.7534C76.9992 77.7534 76.6976 77.8032 76.4375 77.9028C76.1774 77.9969 75.9588 78.1353 75.7817 78.3179C75.6102 78.495 75.4774 78.7108 75.3833 78.9653C75.2892 79.2199 75.2339 79.5049 75.2173 79.8203L74.7607 79.8535C74.7607 79.2891 74.8161 78.7661 74.9268 78.2847C75.0374 77.8032 75.2035 77.3799 75.4248 77.0146C75.6517 76.6494 75.9339 76.3644 76.2715 76.1597C76.6146 75.9549 77.0103 75.8525 77.4585 75.8525C77.5802 75.8525 77.7103 75.8636 77.8486 75.8857C77.9925 75.9079 78.1004 75.9328 78.1724 75.9604ZM84.7383 83.1406V72.25H86.7471V85H84.9292L84.7383 83.1406ZM78.8945 80.6089V80.4346C78.8945 79.7539 78.9748 79.1341 79.1353 78.5752C79.2957 78.0107 79.5282 77.5265 79.8325 77.1226C80.1369 76.7131 80.5076 76.4004 80.9448 76.1846C81.382 75.9632 81.8745 75.8525 82.4224 75.8525C82.9647 75.8525 83.4406 75.9577 83.8501 76.168C84.2596 76.3783 84.6082 76.6799 84.896 77.0728C85.1838 77.4601 85.4134 77.925 85.585 78.4673C85.7565 79.0041 85.8783 79.6017 85.9502 80.2603V80.8164C85.8783 81.4583 85.7565 82.0449 85.585 82.5762C85.4134 83.1074 85.1838 83.5667 84.896 83.9541C84.6082 84.3415 84.2568 84.6403 83.8418 84.8506C83.4323 85.0609 82.9536 85.166 82.4058 85.166C81.8634 85.166 81.3737 85.0526 80.9365 84.8257C80.5049 84.5988 80.1369 84.2806 79.8325 83.8711C79.5282 83.4616 79.2957 82.9801 79.1353 82.4268C78.9748 81.8678 78.8945 81.2619 78.8945 80.6089ZM80.895 80.4346V80.6089C80.895 81.0184 80.931 81.4002 81.0029 81.7544C81.0804 82.1086 81.1994 82.4212 81.3599 82.6924C81.5203 82.958 81.7279 83.1683 81.9824 83.3232C82.2425 83.4727 82.5524 83.5474 82.9121 83.5474C83.3659 83.5474 83.7394 83.4478 84.0327 83.2485C84.326 83.0493 84.5557 82.7809 84.7217 82.4434C84.8932 82.1003 85.0094 81.7184 85.0703 81.2979V79.7954C85.0371 79.4689 84.9679 79.1646 84.8628 78.8823C84.7632 78.6001 84.6276 78.3538 84.4561 78.1436C84.2845 77.9277 84.0715 77.7617 83.8169 77.6455C83.5679 77.5238 83.2718 77.4629 82.9287 77.4629C82.5635 77.4629 82.2536 77.5404 81.999 77.6953C81.7445 77.8503 81.5342 78.0633 81.3682 78.3345C81.2077 78.6056 81.0887 78.9211 81.0112 79.2808C80.9338 79.6405 80.895 80.0251 80.895 80.4346Z" fill="#4B4B4B"/>
</svg>
