<svg width="118" height="27" viewBox="0 0 118 27" fill="none" xmlns="http://www.w3.org/2000/svg">
<path d="M3.29231 20.7725C2.86084 20.7736 2.43686 20.6387 2.06367 20.3815C1.69049 20.1243 1.38149 19.754 1.16822 19.3086C0.958186 18.8663 0.853419 18.3645 0.865144 17.8569C0.87687 17.3493 1.00465 16.855 1.23479 16.4271L5.60922 8.26919C5.83308 7.83072 6.15093 7.47068 6.5303 7.22584C6.90967 6.981 7.33696 6.86013 7.76853 6.87558C8.19979 6.88785 8.62057 7.03597 8.9878 7.3048C9.35503 7.57363 9.65552 7.95351 9.85853 8.40556C10.0585 8.85412 10.1519 9.35886 10.1287 9.86566C10.1056 10.3725 9.96669 10.8622 9.727 11.2824L5.35532 19.4411C5.13359 19.8514 4.82824 20.1886 4.46756 20.4214C4.10689 20.6542 3.70257 20.775 3.29208 20.7728L3.29231 20.7725Z" fill="#8F95B3" fill-opacity="0.28"/>
<path d="M10.7942 20.7727C9.9119 20.7727 9.1001 20.2126 8.67373 19.312C8.46421 18.8709 8.35973 18.3704 8.3715 17.8642C8.38327 17.358 8.51083 16.8651 8.74052 16.4384L13.1065 8.29896C13.327 7.8543 13.6437 7.48782 14.0237 7.23752C14.4038 6.98722 14.8332 6.86221 15.2676 6.87547C16.1574 6.89883 16.9637 7.48996 17.3716 8.41441C17.5706 8.86721 17.6611 9.37618 17.6332 9.88587C17.6054 10.3956 17.4603 10.8864 17.2137 11.3049L12.8489 19.444C12.6279 19.8526 12.3238 20.1884 11.9647 20.4205C11.6056 20.6527 11.203 20.7737 10.7942 20.7724V20.7727Z" fill="#8F95B3" fill-opacity="0.28"/>
<path d="M18.1286 20.8423C19.3725 20.8423 20.3808 19.6699 20.3808 18.2237C20.3808 16.7776 19.3725 15.6052 18.1286 15.6052C16.8848 15.6052 15.8765 16.7776 15.8765 18.2237C15.8765 19.6699 16.8848 20.8423 18.1286 20.8423Z" fill="#8F95B3" fill-opacity="0.28"/>
<path d="M115.969 15.7582C116.649 15.7582 117.056 16.3327 117.056 17.2737V20.4986H117.98V17.1999C117.98 15.5998 117.345 14.6718 116.152 14.6718C115.684 14.6718 114.943 14.8237 114.501 15.844C114.398 15.543 114.229 15.2807 114.011 15.0849C113.793 14.8891 113.534 14.7672 113.262 14.7321C113.091 14.6949 112.916 14.6828 112.743 14.696C112.363 14.7321 111.686 15.013 111.433 15.649V14.7938H110.508V20.4986H111.433V17.4202C111.433 16.2224 112.093 15.7582 112.754 15.7582C113.373 15.7582 113.78 16.3205 113.78 17.2615V20.4986H114.699V17.4202C114.699 16.4666 115.181 15.747 115.969 15.7582H115.969ZM107.114 19.5453C107.323 19.5505 107.531 19.504 107.725 19.4089C107.919 19.3138 108.094 19.1722 108.24 18.9928C108.386 18.8121 108.501 18.5981 108.576 18.3636C108.652 18.129 108.686 17.8788 108.678 17.628C108.678 16.4789 107.966 15.7582 107.114 15.7582C106.26 15.7582 105.549 16.4789 105.549 17.628C105.541 17.8781 105.575 18.1277 105.65 18.3617C105.725 18.5956 105.839 18.8092 105.985 18.9895C106.129 19.1688 106.304 19.3106 106.497 19.4062C106.69 19.5019 106.897 19.5492 107.106 19.5453H107.114ZM107.114 20.6151C105.762 20.6151 104.635 19.4299 104.635 17.6215C104.635 15.813 105.762 14.665 107.114 14.665C108.465 14.665 109.602 15.813 109.602 17.6215C109.602 19.4299 108.458 20.6206 107.107 20.6206L107.114 20.6151ZM99.8756 17.6215L99.8664 17.628C99.8664 15.8196 101.024 14.6718 102.384 14.665C102.726 14.6571 103.065 14.7346 103.38 14.8923C103.695 15.0501 103.979 15.2846 104.213 15.5808L103.512 16.2898C103.363 16.1162 103.187 15.9794 102.993 15.8872C102.8 15.7949 102.593 15.7492 102.384 15.7525C101.532 15.7525 100.79 16.4734 100.79 17.6215C100.79 18.3973 101.178 19.0966 101.775 19.3935C102.066 19.5385 102.387 19.5763 102.697 19.5022C103.007 19.428 103.291 19.2453 103.512 18.9776L104.223 19.6863C103.988 19.9856 103.704 20.2229 103.387 20.383C103.07 20.543 102.728 20.6222 102.384 20.6154C101.034 20.6154 99.8756 19.4299 99.8756 17.6215ZM96.9164 19.4035C96.9144 19.2021 96.9799 19.0081 97.0984 18.864C97.2169 18.7199 97.3788 18.6377 97.5484 18.6353C97.718 18.6377 97.8798 18.7199 97.9983 18.864C98.1169 19.0081 98.1823 19.2021 98.1804 19.4035C98.1721 19.5966 98.1021 19.7787 97.9846 19.9126C97.8672 20.0465 97.7112 20.1222 97.5484 20.1243C97.3856 20.1222 97.2296 20.0465 97.1121 19.9126C96.9947 19.7787 96.9247 19.5966 96.9164 19.4035ZM99.4446 7.54158H96.1535L93.8469 14.6047L91.5522 7.54158H88.2611L92.262 18.7024L89.7737 26.0812H93.0406L99.4446 7.54158ZM79.4299 13.7492C79.4299 15.5324 80.7422 16.7057 82.0313 16.7057C83.2983 16.7057 84.5429 15.6136 84.5429 13.7482C84.5429 11.8827 83.2983 10.7898 82.0313 10.7898C80.7422 10.7898 79.4299 11.9642 79.4299 13.7482V13.7492ZM84.5429 19.9811V18.569C83.8757 19.7689 82.3186 20.2223 81.5199 20.2223C78.8747 20.2223 76.2289 17.7459 76.2289 13.7482C76.2289 9.75179 78.8738 7.27508 81.5197 7.27508C82.1862 7.27508 83.743 7.5394 84.5429 8.92622V7.54619H87.6105V19.9835L84.5431 19.9824V19.9814L84.5429 19.9811ZM75.3558 19.9811H72.2884V18.4359C71.7758 19.5807 70.5328 20.2479 69.2427 20.2479C66.5747 20.2479 64.2178 17.7171 64.2178 13.7987C64.2178 9.80666 66.5747 7.27291 69.2427 7.27291C70.531 7.27291 71.7776 7.9113 72.2882 9.05716V0.765869H75.3558V19.9814V19.9811ZM72.2214 13.7207C72.2214 11.8561 71.088 10.7632 69.8212 10.7632C68.5089 10.7632 67.419 11.9354 67.419 13.7207C67.419 15.5631 68.5089 16.7299 69.8203 16.7299C71.1113 16.7321 72.2214 15.5061 72.2214 13.7207Z" fill="#8F95B3" fill-opacity="0.28"/>
<path d="M56.6318 13.3992C56.6318 11.5085 57.4548 10.8687 58.5436 10.8687C59.588 10.8687 60.3444 11.6943 60.3444 13.3452V19.9791H63.4342V12.5473C63.4342 9.00543 61.9662 7.27279 59.6317 7.27279C58.4093 7.27279 57.1869 8.09863 56.6306 9.35098V7.54146H53.5426V19.9791H56.6318V13.3992ZM47.2685 20.1926C44.3342 20.1926 41.8867 17.6357 41.8867 13.7195C41.8867 9.80112 44.3315 7.26953 47.2685 7.26953C50.2055 7.26953 52.6713 9.80112 52.6713 13.7195C52.6713 17.6379 50.2026 20.1937 47.2685 20.1937V20.1926ZM47.2685 16.5714C48.5568 16.5714 49.6252 15.4508 49.6252 13.7206C49.6252 12.042 48.5577 10.8962 47.2685 10.8962C46.9581 10.8904 46.65 10.9598 46.3628 11.1001C46.0757 11.2403 45.8157 11.4485 45.5985 11.712C45.38 11.9768 45.2086 12.2911 45.0945 12.6361C44.9803 12.9812 44.9258 13.35 44.934 13.7206C44.9349 15.453 46.0015 16.5714 47.2685 16.5714Z" fill="#8F95B3" fill-opacity="0.28"/>
<path d="M36.3467 10.8687C37.2578 10.8687 38.0586 11.7217 38.0586 13.3452V19.9802H41.126V12.916C41.126 9.16055 39.5886 7.26953 37.1242 7.26953C36.3922 7.26953 35.0129 7.53386 34.0122 9.47975C33.4339 8.04104 32.3227 7.2948 30.6803 7.2948C30.1101 7.29136 29.5512 7.48304 29.0703 7.8469C28.5894 8.21077 28.2069 8.73143 27.9686 9.34663V7.54146H24.877V19.9791H27.9659V13.3981C27.9659 11.5074 28.8333 10.8676 29.7665 10.8676C30.6563 10.8676 31.4553 11.6932 31.4784 13.265V19.9791H34.5682V13.3981C34.5682 11.5897 35.3688 10.8698 36.3467 10.8698V10.8687Z" fill="#8F95B3" fill-opacity="0.28"/>
</svg>
