<svg width="185" height="39" viewBox="0 0 185 39" fill="none" xmlns="http://www.w3.org/2000/svg">
<path d="M59.9186 9.8634H58.9203C57.9458 9.8634 57.5179 10.1527 56.8762 11.2376L51.552 19.9892L49.3416 11.3341C49.0801 10.2974 48.7949 9.88751 47.6778 9.88751H46.8459C45.7525 9.88751 45.0632 10.5385 44.8493 11.6957L42.3774 25.7754C42.1873 26.8362 42.6626 27.3907 43.5658 27.3907H43.9461C44.8969 27.3907 45.3247 26.9085 45.4911 25.8718L47.4876 14.4923L49.4129 22.1108C49.5793 22.8823 49.7219 23.3886 51.1718 23.3886C52.3839 23.3886 52.6692 22.9546 53.097 22.2554L57.8032 14.42L55.8066 25.7995C55.6165 26.8844 56.0918 27.4148 56.9713 27.4148H57.3753C58.3261 27.4148 58.7539 26.9085 58.9203 25.8959L61.3684 11.7198C61.5824 10.5867 61.0357 9.8634 59.9186 9.8634Z" fill="black"/>
<path d="M74.7738 19.9409C74.6549 16.5175 72.3731 14.0101 68.5226 14.0101C64.1255 14.0101 61.4396 17.6506 61.5585 21.6286C61.7011 25.269 64.173 27.6076 67.8096 27.6076C72.3256 27.5835 74.8926 23.9189 74.7738 19.9409ZM67.8334 25.1003C65.7655 25.1003 64.4582 23.5814 64.3869 21.508C64.2919 18.8319 66.027 16.4693 68.4989 16.4693C70.4004 16.4693 71.8978 17.9881 71.9691 20.0856C72.0404 22.9064 70.3053 25.1003 67.8334 25.1003Z" fill="black"/>
<path d="M84.5913 14.0101C82.7611 14.0101 81.3113 14.9263 80.3367 16.4693C80.4318 14.7093 79.4811 14.203 78.5066 14.203C78.055 14.203 77.6984 14.3235 77.6747 14.3718L75.6781 25.8235C75.488 27.0049 76.1297 27.3424 76.9854 27.3424H77.3419C78.2689 27.3424 78.6492 26.9567 78.8393 25.8235L80.0278 18.9525C80.8834 17.4336 81.8342 16.7103 83.3078 16.7103C84.7815 16.7103 85.6609 17.6024 85.6847 19.073C85.7084 19.4588 85.6133 19.9409 85.542 20.5196L84.6151 25.8235C84.4249 27.0049 85.0904 27.3424 85.9223 27.3424H86.2789C87.2058 27.3424 87.5861 26.9567 87.7763 25.8235L88.7983 19.9651C88.9172 19.3141 88.9885 18.7355 88.9647 18.2051C88.8934 15.746 87.2771 14.0101 84.5913 14.0101Z" fill="black"/>
<path d="M140.827 14.0101C139.329 14.0101 138.212 14.8781 137.452 16.4693C137.571 14.7093 136.62 14.203 135.645 14.203C135.17 14.203 134.837 14.3235 134.813 14.3718L132.793 25.8235C132.603 27.0049 133.364 27.3424 134.219 27.3424H134.576C135.384 27.3424 135.764 26.9567 135.978 25.8235L136.644 21.9902C137.143 19.0007 138.236 16.9273 139.995 16.9273C140.851 16.9273 141.397 17.289 141.754 17.6988C141.801 17.747 143.132 17.2166 143.085 15.6254C143.014 14.637 142.039 14.0101 140.827 14.0101Z" fill="black"/>
<path d="M156.182 14.2029C154.946 14.2029 154.257 14.8057 153.853 16.3969C153.069 14.9021 151.453 13.986 149.575 13.986C145.582 13.986 142.801 17.6023 142.801 21.7008C142.801 25.0761 144.845 27.5834 148.077 27.5834C150.05 27.5834 151.571 26.7637 152.546 25.1002C152.403 26.8361 152.736 27.3665 153.972 27.3665C155.065 27.3665 155.422 26.9566 155.541 25.7271C155.683 23.4608 156.444 19.7721 157.323 14.5887C157.323 14.4923 156.824 14.2029 156.182 14.2029ZM148.767 25.1002C146.818 25.1002 145.701 23.8465 145.701 21.6285C145.701 19.0247 147.198 16.421 149.979 16.421C152.237 16.421 153.188 18.1086 153.188 19.965C153.188 22.3036 151.619 25.1002 148.767 25.1002Z" fill="black"/>
<path d="M175.148 14.0101C172.961 14.0101 171.511 15.1433 170.489 16.8068C169.99 15.0468 168.493 14.0101 166.591 14.0101C164.927 14.0101 163.478 14.8057 162.479 16.3246C162.527 14.7093 161.6 14.2271 160.649 14.2271C160.174 14.2271 159.841 14.3477 159.817 14.3959L157.821 25.8477C157.631 27.029 158.272 27.3665 159.128 27.3665H159.484C160.293 27.3665 160.792 27.029 160.982 25.8477L162.218 18.7355C163.121 17.3131 163.977 16.7103 165.308 16.7103C166.615 16.7103 167.423 17.6988 167.423 19.1936C167.423 19.4347 167.399 19.6999 167.352 19.9892L166.354 25.8477C166.163 27.029 166.829 27.3665 167.661 27.3665H167.994C168.802 27.3665 169.325 27.0049 169.515 25.8477L170.751 18.7355C171.654 17.3131 172.51 16.7103 173.841 16.7103C175.1 16.7103 176.027 17.4818 176.027 19.073C176.027 19.4588 175.956 19.9409 175.861 20.5196L174.934 25.8235C174.744 27.0049 175.386 27.3424 176.241 27.3424H176.598C177.525 27.3424 177.905 26.9567 178.095 25.8235L179.117 19.9651C179.236 19.3141 179.284 18.7355 179.284 18.2051C179.307 15.6254 177.596 14.0101 175.148 14.0101Z" fill="black"/>
<path d="M103.391 19.7482C103.391 17.9641 103.035 16.7828 102.25 15.7461C101.394 14.6371 99.802 13.962 97.9481 13.962C92.3387 13.962 90.3184 18.157 90.3184 21.7975C90.3184 25.2692 92.7903 27.5836 96.5932 27.5836C100.396 27.5836 102.535 25.8719 102.535 24.4977C102.535 23.5815 101.894 23.2681 101.157 23.1958C100.159 24.4977 98.78 25.1245 96.9022 25.1245C95.2384 25.1245 93.2657 24.4736 93.123 21.4599H101.751C102.678 21.484 103.391 20.9537 103.391 19.7482ZM100.61 19.3383H93.4083C94.0976 17.482 95.69 16.3247 97.7104 16.3247C98.7324 16.3247 99.5168 16.614 100.04 17.1926C100.491 17.723 100.658 18.4463 100.61 19.3383Z" fill="black"/>
<path d="M130.178 17.9881H125.044C124.426 17.9881 124.141 18.1328 123.951 18.3257C123.642 18.6632 123.476 19.4347 123.476 19.7722C123.499 20.3026 123.951 20.616 124.783 20.616H128.419C127.92 23.1957 126.304 24.9798 123.523 24.9798C120.6 24.9798 118.651 23.0993 118.532 19.8928C118.389 15.8666 121.027 12.5395 124.759 12.5395C126.946 12.5395 128.657 13.7208 129.346 15.2879C129.441 15.4085 131.462 15.4085 131.39 13.6485C131.367 13.0217 131.01 12.2743 130.345 11.6475C129.275 10.5626 127.255 9.62231 124.569 9.62231C120.813 9.62231 117.842 11.7198 116.297 14.7575C116.297 14.7334 116.274 14.7334 116.274 14.7334C115.965 14.3236 115.466 14.1307 114.966 14.1307C114.135 14.1307 113.588 14.3959 112.78 15.8424L108.787 22.9546L107.289 15.8665C107.004 14.5406 106.529 14.1307 105.697 14.1307C104.722 14.1307 103.938 14.854 103.962 15.0227L106.814 26.4745L103.867 31.3928C103.558 31.9232 103.534 32.6223 104.651 32.6223H105.269C106.434 32.6223 106.814 31.899 107.384 30.9106L115.418 17.1202C115.18 18.0846 115.062 19.1213 115.109 20.1821C115.252 24.811 118.342 27.6076 122.858 27.6076C124.997 27.6076 126.708 26.7879 127.659 25.5343C127.588 26.8844 128.301 27.4148 129.251 27.4148C129.774 27.4148 130.155 27.246 130.155 27.1496L131.462 19.724C131.676 18.5668 131.248 17.9881 130.178 17.9881Z" fill="black"/>
<path d="M182.684 25.9441C182.779 26.1129 182.85 26.1852 182.969 26.1852C182.969 26.1852 182.993 26.3781 182.755 26.3781C182.612 26.3781 182.517 26.3057 182.375 26.0405L182.113 25.5584H181.876L181.757 26.2334C181.733 26.3298 181.685 26.3781 181.59 26.3781H181.543C181.448 26.3781 181.4 26.3298 181.424 26.2093L181.757 24.4735C181.781 24.3529 181.852 24.3047 181.971 24.3047H182.47C182.921 24.3047 183.183 24.4976 183.183 24.8351C183.183 25.2449 182.921 25.5101 182.47 25.5342L182.684 25.9441ZM182.375 25.2932C182.684 25.2932 182.85 25.1244 182.826 24.8592C182.826 24.6663 182.684 24.5458 182.422 24.5458H182.066L181.923 25.269H182.375V25.2932Z" fill="black"/>
<path d="M182.304 23.7502C183.231 23.7502 183.968 24.5217 183.968 25.4379C183.968 26.3781 183.208 27.1255 182.304 27.1255C181.378 27.1255 180.641 26.354 180.641 25.4379C180.617 24.5217 181.378 23.7502 182.304 23.7502ZM182.304 23.4609C181.235 23.4609 180.355 24.353 180.355 25.4379C180.355 26.5228 181.235 27.4148 182.304 27.4148C183.374 27.4148 184.254 26.5228 184.254 25.4379C184.254 24.353 183.374 23.4609 182.304 23.4609Z" fill="black"/>
<path d="M18.8484 38.63C29.2581 38.63 37.6968 29.9824 37.6968 19.315C37.6968 8.64762 29.2581 0 18.8484 0C8.43873 0 0 8.64762 0 19.315C0 29.9824 8.43873 38.63 18.8484 38.63Z" fill="white"/>
<path d="M38.6968 19.315C38.6968 29.9833 30.259 38.63 19.8484 38.63C9.43782 38.63 1 29.9833 1 19.315C1 16.3678 1.64175 13.5911 2.78264 11.1067C2.02205 13.0796 1.66552 15.0525 1.66552 16.8793C1.66552 25.6234 8.55838 26.89 11.4819 26.8656C15.9504 26.8169 21.1557 24.5761 25.5529 20.4354C25.5529 20.4354 24.9824 23.6992 24.816 24.6979C24.6497 25.6721 25.2676 26.5246 26.2184 26.5246H26.5987C27.5732 26.5246 28.2862 25.6965 28.4526 24.6979L30.0451 15.5884C30.2353 14.5654 29.5935 13.7616 28.5952 13.7616H19.7058C18.7075 13.7616 17.8043 14.2975 17.638 15.3205C17.638 15.3692 17.5666 15.6615 17.5666 15.7345C17.424 16.7088 18.0896 17.4395 19.0403 17.4395H23.6752C23.6038 17.5126 23.5325 17.5857 23.4612 17.6587C20.2525 20.7521 16.2831 22.457 13.0031 22.457C9.74681 22.457 6.08646 20.338 6.08646 15.5884C6.08646 5.72386 15.1185 0 19.8484 0C30.2353 0 38.6968 8.64669 38.6968 19.315Z" fill="#DF2127"/>
</svg>
