<svg width="17" height="16" viewBox="0 0 17 16" fill="none" xmlns="http://www.w3.org/2000/svg">
<path d="M16.065 11.0044C14.9033 11.0044 13.7794 10.8267 12.7311 10.5067C12.5669 10.4543 12.3903 10.4465 12.2216 10.4842C12.0529 10.522 11.8989 10.6037 11.7772 10.72L10.2944 12.4711C7.62167 11.2711 5.11889 9.00445 3.78722 6.4L5.62889 4.92444C5.88389 4.67556 5.95944 4.32889 5.85556 4.01778C5.50611 3.03111 5.32667 1.97333 5.32667 0.88C5.32667 0.4 4.90167 0 4.39167 0H1.12389C0.613889 0 0 0.213333 0 0.88C0 9.13778 7.30056 16 16.065 16C16.7356 16 17 15.44 17 14.9511V11.8844C17 11.4044 16.575 11.0044 16.065 11.0044Z" fill="white"/>
</svg>
