<svg width="29" height="23" viewBox="0 0 29 23" fill="none" xmlns="http://www.w3.org/2000/svg">
<path d="M10.15 11.5C13.3536 11.5 15.95 9.03789 15.95 6C15.95 2.96211 13.3536 0.5 10.15 0.5C6.94641 0.5 4.35 2.96211 4.35 6C4.35 9.03789 6.94641 11.5 10.15 11.5ZM8.07922 13.5625C3.61594 13.5625 0 16.9914 0 21.2238C0 21.9285 0.602656 22.5 1.34578 22.5H17.7897C17.545 22.0961 17.4 21.6277 17.4 21.125V15.625C17.4 15.5348 17.4045 15.4445 17.4136 15.3543C16.0089 14.2371 14.1964 13.5625 12.2208 13.5625H8.07922V13.5625ZM23.925 10.8125C24.727 10.8125 25.375 11.427 25.375 12.1875V14.25H22.475V12.1875C22.475 11.427 23.123 10.8125 23.925 10.8125ZM20.3 12.1875V14.25C19.498 14.25 18.85 14.8645 18.85 15.625V21.125C18.85 21.8855 19.498 22.5 20.3 22.5H27.55C28.352 22.5 29 21.8855 29 21.125V15.625C29 14.8645 28.352 14.25 27.55 14.25V12.1875C27.55 10.2883 25.9278 8.75 23.925 8.75C21.9222 8.75 20.3 10.2883 20.3 12.1875Z" fill="#0F3E50"/>
</svg>
