<svg width="65" height="65" viewBox="0 0 65 65" fill="none" xmlns="http://www.w3.org/2000/svg">
<path d="M64.159 7.43341L57.8104 1.18666C57.5793 0.960137 57.2601 0.832031 56.9265 0.832031C56.5928 0.832031 56.2737 0.960137 56.0425 1.18666L49.6486 7.43101C49.3074 7.76454 49.2107 8.25802 49.403 8.68441C49.5953 9.1108 50.0395 9.38773 50.5314 9.38773H50.7681C51.4452 9.38773 51.9942 9.90483 51.9942 10.5428V63.6767C51.9942 64.3146 52.543 64.8318 53.2202 64.8318H60.5765C61.2536 64.8318 61.8026 64.3147 61.8026 63.6767V10.543C61.8026 9.90508 62.3514 9.38785 63.0286 9.38785H63.2739C63.7651 9.38785 64.209 9.11181 64.4017 8.68605C64.5943 8.26042 64.4989 7.76745 64.159 7.43341Z" fill="#12CD86"/>
<path d="M5.40429 37.1098C4.72722 37.1098 4.17822 37.6269 4.17822 38.2649V44.0403H6.63036V38.2649C6.63036 37.627 6.08136 37.1098 5.40429 37.1098Z" fill="#12CD86"/>
<path d="M1.72607 46.3505H9.08234C9.75941 46.3505 10.3084 46.8676 10.3084 47.5056V63.6768C10.3084 64.3147 9.75954 64.8319 9.08234 64.8319H1.72607C1.049 64.8319 0.5 64.3148 0.5 63.6768V47.5056C0.5 46.8678 1.049 46.3505 1.72607 46.3505Z" fill="#12CD86"/>
<path d="M22.569 25.559C21.8919 25.559 21.3429 26.0761 21.3429 26.7141V32.4895H23.795V26.7141C23.795 26.0761 23.246 25.559 22.569 25.559Z" fill="#12CD86"/>
<path d="M18.8907 34.7997H26.247C26.9241 34.7997 27.4731 35.3168 27.4731 35.9548V63.6769C27.4731 64.3148 26.9242 64.832 26.247 64.832H18.8907C18.2137 64.832 17.6647 64.3149 17.6647 63.6769V35.9547C17.6647 35.3168 18.2137 34.7997 18.8907 34.7997Z" fill="#12CD86"/>
<path d="M36.0542 23.2488H43.4117C44.0887 23.2488 44.6377 23.7659 44.6377 24.4039V63.6768C44.6377 64.3147 44.0889 64.8319 43.4117 64.8319H36.0542C35.3771 64.8319 34.8281 64.3148 34.8281 63.6768V24.4039C34.8281 23.7659 35.3771 23.2488 36.0542 23.2488Z" fill="#12CD86"/>
<path d="M39.7336 14.0081C39.0566 14.0081 38.5076 14.5252 38.5076 15.1632V20.9386H40.9597V15.1632C40.9597 14.5253 40.4107 14.0081 39.7336 14.0081Z" fill="#12CD86"/>
</svg>
