<?xml version="1.0" encoding="utf-8"?>
<!-- Generator: Adobe Illustrator 26.0.0, SVG Export Plug-In . SVG Version: 6.00 Build 0)  -->
<svg version="1.1" id="Bold" xmlns="http://www.w3.org/2000/svg" xmlns:xlink="http://www.w3.org/1999/xlink" x="0px" y="0px"
	 viewBox="0 0 512 512" style="enable-background:new 0 0 512 512;" xml:space="preserve">
<path style="fill:#9DAFBD;" d="M256,512c141.42,0,256-114.58,256-256S397.42,0,256,0S0,114.58,0,256S114.58,512,256,512z
	 M117.14,250.45l246.83-95.17c11.46-4.14,21.46,2.79,17.75,20.12l0.02-0.02l-42.03,197.99c-3.11,14.04-11.46,17.45-23.13,10.84
	l-64-47.17l-30.87,29.74c-3.41,3.41-6.29,6.29-12.91,6.29l4.54-65.13l118.61-107.16c5.16-4.54-1.15-7.1-7.96-2.58L177.43,290.5
	l-63.19-19.71C100.52,266.43,100.22,257.07,117.14,250.45L117.14,250.45z"/>
</svg>
