<svg width="43" height="38" viewBox="0 0 43 38" fill="none" xmlns="http://www.w3.org/2000/svg">
<path d="M13.7272 16.7772C12.6709 16.4629 11.6145 16.3034 10.5869 16.3034C9.00012 16.3034 7.67607 16.6782 6.64939 17.1371C7.63917 13.3921 10.0169 6.93018 14.7534 6.20247C15.1921 6.13505 15.5516 5.80723 15.6712 5.36596L16.7065 1.53911C16.7937 1.21548 16.742 0.869062 16.5634 0.58821C16.3848 0.307357 16.0977 0.119967 15.7761 0.074398C15.4265 0.0251093 15.0702 0 14.717 0C9.03162 0 3.40112 6.13319 1.0252 14.9149C-0.369494 20.067 -0.778453 27.8128 2.65698 32.6882C4.57941 35.4163 7.38408 36.8731 10.9932 37.0186C11.008 37.0191 11.0224 37.0195 11.0373 37.0195C15.4904 37.0195 19.4391 33.9199 20.6404 29.4826C21.358 26.8298 21.0336 24.0478 19.7262 21.647C18.4327 19.2733 16.3024 17.5431 13.7272 16.7772Z" fill="#ECECEC" fill-opacity="0.8"/>
<path d="M41.6027 21.6475C40.3093 19.2733 38.179 17.5431 35.6038 16.7772C34.5474 16.4629 33.491 16.3034 32.4639 16.3034C30.8771 16.3034 29.5526 16.6782 28.5259 17.1371C29.5157 13.3921 31.8934 6.93018 36.6304 6.20247C37.0691 6.13505 37.4281 5.80723 37.5482 5.36596L38.5835 1.53911C38.6707 1.21548 38.619 0.869062 38.4404 0.58821C38.2622 0.307357 37.9752 0.119967 37.6531 0.074398C37.3039 0.0251093 36.9476 0 36.594 0C30.9086 0 25.2781 6.13319 22.9017 14.9149C21.5075 20.067 21.0985 27.8128 24.5344 32.6891C26.4564 35.4167 29.2615 36.874 32.8702 37.0191C32.885 37.0195 32.8994 37.02 32.9147 37.02C37.3674 37.02 41.3166 33.9204 42.5178 29.483C43.2345 26.8303 42.9097 24.0478 41.6027 21.6475Z" fill="#ECECEC" fill-opacity="0.8"/>
</svg>
