<svg width="65" height="56" viewBox="0 0 65 56" fill="none" xmlns="http://www.w3.org/2000/svg">
<path d="M44.2881 9.50122C43.6679 9.50122 43.1653 10.004 43.1653 10.624V40.9786L47.6566 39.4807V10.6241C47.6566 10.004 47.1539 9.50135 46.5339 9.50135H44.2881V9.50122Z" fill="#12CD86"/>
<path d="M2.74338 29.7122H8.3575C8.97764 29.7122 9.48027 30.2149 9.48027 30.8349V54.4144C9.48027 55.0346 8.97751 55.5372 8.3575 55.5372H2.74338C2.12324 55.5372 1.62061 55.0344 1.62061 54.4144V30.8351C1.62061 30.2149 2.12337 29.7122 2.74338 29.7122Z" fill="#12CD86"/>
<path d="M31.937 16.2382C31.3168 16.2382 30.8142 16.741 30.8142 17.361V34.2035H32.4221C33.4214 34.2105 34.4065 34.4407 35.3056 34.8771V17.361C35.3056 16.7409 34.8028 16.2382 34.1828 16.2382H31.937Z" fill="#12CD86"/>
<path d="M19.5859 22.9753C18.9658 22.9753 18.4631 23.478 18.4631 24.0981V30.743C19.3155 31.1293 20.117 31.6196 20.8492 32.2026C21.4908 32.7145 22.1991 33.1369 22.9545 33.4579V24.0979C22.9545 23.4778 22.4517 22.9752 21.8317 22.9752H19.5859V22.9753Z" fill="#12CD86"/>
<path d="M64.4632 39.3225C64.5706 38.7811 64.4415 38.2197 64.1084 37.7797C63.6047 37.1032 62.7238 36.8262 61.9234 37.0926L41.1443 44.0216C40.5701 44.2127 39.9687 44.3098 39.3635 44.309H29.3827C27.6092 44.3071 25.8751 44.8324 24.4007 45.818L23.5777 46.3659C23.2439 46.5968 22.8117 46.6298 22.4468 46.4519C22.082 46.2741 21.8415 45.9133 21.8178 45.5081C21.794 45.103 21.9908 44.7166 22.3324 44.4975L23.1554 43.9496C24.9984 42.7176 27.1658 42.0609 29.3827 42.0632H36.214C36.967 41.0699 36.9996 39.706 36.2948 38.6779C36.2836 38.6576 36.2701 38.6318 36.2579 38.6037C36.0815 38.3195 35.874 38.0558 35.6392 37.8177L35.6302 37.8087C34.7861 36.9443 33.6305 36.4544 32.4223 36.4489H26.5476C23.966 36.4457 21.4617 35.5674 19.4435 33.9574C18.6823 33.3512 17.8291 32.871 16.9159 32.5347L16.8912 32.5246C15.8847 32.1521 14.8204 31.9602 13.7472 31.9576H11.7261V54.4142H39.0109C40.2463 54.4146 41.458 54.0746 42.513 53.4317L63.5604 40.6205C64.0331 40.3368 64.3616 39.8643 64.4632 39.3225Z" fill="#12CD86"/>
<path d="M58.885 2.76422H56.6394C56.0192 2.76422 55.5166 3.26698 55.5166 3.887V36.8612L60.0079 35.3633V3.88712C60.0079 3.26698 59.5052 2.76422 58.885 2.76422Z" fill="#12CD86"/>
<path d="M1.62059 7.25548H3.86627V15.1153C3.86627 15.7354 4.36903 16.2381 4.98904 16.2381H7.23471C7.85485 16.2381 8.35749 15.7353 8.35749 15.1153V7.25548H10.6032C11.0417 7.25548 11.4401 7.0001 11.6233 6.60159C11.8064 6.20309 11.7409 5.73458 11.4554 5.40157L6.96633 0.518589C6.75308 0.269959 6.4417 0.126831 6.11406 0.126831C5.78643 0.126831 5.47517 0.269959 5.2618 0.518589L0.770574 5.40169C0.485318 5.73433 0.419566 6.20234 0.602195 6.60059C0.784824 6.99898 1.18246 7.25461 1.62059 7.25548Z" fill="#12CD86"/>
<path d="M17.3402 7.25555H19.5859V15.1153C19.5859 15.7355 20.0886 16.2381 20.7086 16.2381H22.9543C23.5745 16.2381 24.0771 15.7354 24.0771 15.1153V7.25555H26.3228C26.7613 7.25555 27.1597 7.00017 27.3429 6.60166C27.526 6.20315 27.4605 5.73464 27.175 5.40164L22.6859 0.518407C22.4727 0.269776 22.1613 0.126648 21.8337 0.126648C21.506 0.126648 21.1948 0.269776 20.9814 0.518407L16.4901 5.40164C16.2048 5.73427 16.139 6.20228 16.3217 6.60054C16.5046 6.99905 16.9021 7.25468 17.3402 7.25555Z" fill="#12CD86"/>
</svg>
