<svg width="26" height="26" viewBox="0 0 26 26" fill="none" xmlns="http://www.w3.org/2000/svg">
<path d="M18.5249 2.99133C18.2065 2.69697 17.8034 2.37987 17.3103 2.08611L18.0141 0.716025C18.107 0.501353 18.0141 0.243767 17.782 0.157938C17.5498 0.0721099 17.2712 0.157938 17.1784 0.37261L16.5106 1.67277C15.5944 1.26636 14.4484 0.973661 13.0463 0.973661C11.6281 0.973661 10.4325 1.2401 9.44177 1.67075L8.77488 0.37256C8.68201 0.157888 8.40344 0.0720596 8.17133 0.157888C7.93917 0.243767 7.84635 0.501353 7.93917 0.715974L8.63951 2.07932C6.64408 3.25777 5.69003 5.13916 5.57131 6.51166L5.5249 6.98392H20.4749L20.4285 6.51166C20.3356 5.61011 19.7784 4.19339 18.5249 2.99133ZM6.59272 6.12528C7.01058 4.27926 8.96058 1.8322 13.0927 1.8322C14.4053 1.8322 15.4921 2.11343 16.3759 2.54886C16.4168 2.59102 16.4677 2.62543 16.5284 2.64792C16.5564 2.67378 16.6012 2.68394 16.6426 2.68802C18.3056 3.60788 19.1853 5.07864 19.4534 6.12533H6.59272V6.12528Z" fill="black"/>
<path d="M2.32144 7.84277C1.02146 7.84277 0 8.78724 0 9.98934V15.9997C0 17.2017 1.02141 18.1463 2.32144 18.1463C3.62143 18.1463 4.64289 17.2018 4.64289 15.9997V9.98929C4.64284 8.78724 3.62143 7.84277 2.32144 7.84277ZM3.7143 15.9996C3.7143 16.7295 3.11075 17.2876 2.32144 17.2876C1.53214 17.2876 0.928589 16.7295 0.928589 15.9996V9.98929C0.928589 9.25945 1.53214 8.70136 2.32144 8.70136C3.11075 8.70136 3.7143 9.25945 3.7143 9.98929V15.9996Z" fill="black"/>
<path d="M23.6784 7.84277C22.3784 7.84277 21.3569 8.78724 21.3569 9.98934V15.9997C21.3569 17.2017 22.3783 18.1463 23.6784 18.1463C24.9784 18.1463 25.9998 17.2018 25.9998 15.9997V9.98929C25.9998 8.78724 24.9784 7.84277 23.6784 7.84277ZM25.0712 15.9996C25.0712 16.7295 24.4677 17.2876 23.6784 17.2876C22.8891 17.2876 22.2855 16.7295 22.2855 15.9996V9.98929C22.2855 9.25945 22.8891 8.70136 23.6784 8.70136C24.4677 8.70136 25.0712 9.25945 25.0712 9.98929V15.9996Z" fill="black"/>
<path d="M5.57129 20.2927H7.42841V24.1565C7.42841 25.101 8.26413 25.8737 9.28554 25.8737C10.3069 25.8737 11.1427 25.101 11.1427 24.1565V20.2927H14.857V24.1565C14.857 25.101 15.6927 25.8737 16.7141 25.8737C17.7355 25.8737 18.5712 25.101 18.5712 24.1565V20.2927H20.4283V7.84277H5.57129V20.2927ZM6.49988 8.70136H19.4999V19.4341H17.6427V24.1565C17.6427 24.6288 17.2249 25.0152 16.7141 25.0152C16.2034 25.0152 15.7855 24.6288 15.7855 24.1565V19.4341H10.2141V24.1565C10.2141 24.6288 9.79627 25.0152 9.28554 25.0152C8.7748 25.0152 8.35695 24.6288 8.35695 24.1565V19.4341H6.49982V8.70136H6.49988Z" fill="black"/>
<path d="M10.6786 3.54932C10.1679 3.54932 9.75 3.93591 9.75 4.40842C9.75 4.88093 10.1679 5.26752 10.6786 5.26752C11.1893 5.26752 11.6072 4.88093 11.6072 4.40842C11.6071 3.93591 11.1893 3.54932 10.6786 3.54932Z" fill="black"/>
<path d="M15.3217 3.54932C14.8109 3.54932 14.3931 3.93591 14.3931 4.40842C14.3931 4.88093 14.8109 5.26752 15.3217 5.26752C15.8324 5.26752 16.2502 4.88093 16.2502 4.40842C16.2502 3.93591 15.8324 3.54932 15.3217 3.54932Z" fill="black"/>
</svg>
