<svg width="22" height="26" viewBox="0 0 22 26" fill="none" xmlns="http://www.w3.org/2000/svg">
<path d="M11.2977 6.28219H10.7324V5.72257C10.7324 2.06315 12.6895 0.125 16.3847 0.125H16.9497V0.684819C16.9497 4.34404 14.9927 6.28219 11.2977 6.28219ZM15.7981 1.26555C13.3394 1.43343 12.0536 2.70681 11.8769 5.14882C14.3781 4.98093 15.6356 3.73543 15.7981 1.26555Z" fill="black"/>
<path d="M15.8191 25.8739C14.9086 25.8733 14.0119 25.6547 13.2051 25.2372C12.0155 24.6064 10.5862 24.6064 9.39688 25.2372C8.58983 25.6547 7.69315 25.8733 6.78261 25.8739C2.98167 25.8739 0 20.7101 0 14.1191C0 10.1098 3.04522 6.84229 6.78261 6.84229C7.48244 6.84229 8.17751 6.9581 8.83863 7.18523L10.9371 7.90576C11.1774 7.98796 11.4386 7.98796 11.6789 7.90576L13.7701 7.18523C14.4292 6.95913 15.1216 6.84331 15.8191 6.84229C17.8609 6.84229 19.7685 7.81495 21.0686 9.50814L21.5631 10.1588L20.7717 10.3826C18.7399 10.9625 17.3866 12.8611 17.5156 14.9514C17.6443 17.0416 19.2208 18.7631 21.3087 19.0937L21.9518 19.1987L21.7539 19.8145C20.5811 23.5508 18.2991 25.8739 15.8191 25.8739ZM11.2974 23.6348C12.1451 23.6414 12.9788 23.8502 13.7277 24.2436C14.3723 24.5806 15.0903 24.7559 15.8191 24.7542C17.6702 24.7542 19.4294 22.97 20.4892 20.0594C18.0554 19.3832 16.3761 17.182 16.3844 14.6787C16.3941 12.5022 17.6708 10.5265 19.6625 9.60612C18.624 8.55659 17.2604 7.96172 15.8191 7.96172C15.2468 7.96192 14.6784 8.05642 14.1375 8.24173L12.0393 8.96226C11.5607 9.12502 11.041 9.12502 10.5626 8.96226L8.45715 8.24173C7.91629 8.05642 7.34789 7.96172 6.77557 7.96172C3.65977 7.96172 1.12354 10.7256 1.12354 14.1191C1.12354 19.8846 3.70924 24.7542 6.77557 24.7542C7.50438 24.7561 8.22263 24.5808 8.86699 24.2436C9.61587 23.8502 10.4496 23.6414 11.2974 23.6348Z" fill="black"/>
</svg>
