<svg width="88" height="90" viewBox="0 0 88 90" fill="none" xmlns="http://www.w3.org/2000/svg">
<path fill-rule="evenodd" clip-rule="evenodd" d="M85.2472 23.7686C85.6854 24.3929 86.0287 25.1513 86.1802 26.0061C86.3848 27.1123 85.7457 28.4825 85.1595 29.3017C84.5733 30.1543 83.4814 30.4917 82.7035 29.8883C81.9256 29.2849 81.4271 27.7764 80.7296 26.6095C80.3223 25.9537 79.8512 25.4006 79.3728 24.9879C76.6904 22.5932 73.2757 24.0535 69.9469 23.2888C67.6241 22.7504 65.3124 21.1162 64.288 18.8745C63.658 17.5714 63.4991 16.044 63.3841 15.0468C63.3439 14.479 63.2965 14.0537 63.0718 11.8141C62.8034 13.2492 62.5332 14.6864 62.5387 16.2075C62.5387 17.9045 62.8107 19.6853 63.5558 21.1351C64.6751 23.3454 66.8061 24.8999 69.1598 25.4048C72.5216 26.1339 76.3325 24.7658 78.6168 27.106C79.0332 27.5167 79.413 28.0635 79.6997 28.6794C80.2749 29.7689 80.6894 31.0259 81.4947 31.7361C82.6012 32.6747 84.4236 32.5155 85.6909 31.5895C86.8011 30.7598 87.442 29.2702 87.5717 27.4748C87.6484 26.2051 87.4877 24.7847 86.6879 23.0835L74.7913 6.589C75.8157 5.57917 76.8419 4.53164 77.6874 3.33745C78.405 2.31086 78.9711 1.13762 79.5682 0C77.8298 0.375018 76.0896 0.712324 74.2453 0.657852C72.8594 0.626426 71.4515 0.34359 70.2628 0.852692C69.2603 1.26333 68.4221 2.24591 67.6168 3.23269C65.6301 2.78225 63.6763 2.29619 61.7589 2.44913C58.8866 2.62722 56.1165 4.22366 53.1656 4.82076C51.5806 5.16644 49.9464 5.2272 48.4527 4.76628C47.4483 4.43526 46.5134 3.89264 45.5785 3.35211C46.1628 4.19433 46.7782 5.07217 47.5269 5.63993C48.4855 6.35854 49.6743 6.70003 50.8721 6.82993C52.6233 6.98706 54.3233 6.78593 55.9777 6.26635C57.6577 5.78449 59.2938 4.94436 60.9372 4.672C63.3238 4.2928 65.7945 4.97998 68.2322 5.66507C68.8567 4.66991 69.4465 3.71037 70.3303 3.15098C70.774 2.85558 71.3328 2.70474 71.8605 2.62512C73.1625 2.40724 74.4535 2.53922 75.7408 2.70892C75.3227 3.18451 74.9027 3.69361 74.4535 4.165C73.714 4.94227 72.947 5.71745 72.2093 6.49472L85.0171 23.4334C85.0992 23.5507 85.1887 23.6596 85.2472 23.7686Z" fill="black"/>
<path fill-rule="evenodd" clip-rule="evenodd" d="M47.0091 12.3859C48.5266 11.418 50.0422 10.6407 51.6454 9.91374C53.8787 8.88715 56.3201 8.30472 58.7286 7.7202C56.5392 7.5044 54.3808 7.33261 52.2882 7.70763C49.3738 8.21254 46.6604 9.90116 43.8373 11.154C41.4014 12.1638 38.9143 12.9369 36.3981 13.048C33.5422 13.1695 30.6662 12.5095 27.792 11.814C30.2553 13.138 32.7533 14.2401 35.423 14.9608C37.4919 15.5139 39.7215 15.6563 41.7538 15.1179C43.6182 14.6046 45.3128 13.4963 47.0091 12.3859Z" fill="black"/>
<path fill-rule="evenodd" clip-rule="evenodd" d="M56.2312 36.8375C58.563 32.7794 60.6867 26.7518 63.9005 23.6616C60.4438 25.5975 57.9604 30.4748 55.1063 33.4707C52.8567 29.2282 48.235 27.615 44.3364 29.5509C47.4699 29.2743 51.1694 31.0719 52.8165 34.1621C54.4636 37.2963 54.4234 41.2183 52.696 44.2603C61.2162 42.8776 69.857 43.4286 78.1746 45.9657C71.2211 42.599 63.7471 40.8014 56.2312 40.5709C56.4339 39.3265 56.4339 38.082 56.2312 36.8375Z" fill="black"/>
<path fill-rule="evenodd" clip-rule="evenodd" d="M25.5466 28.7928C27.5461 27.4603 29.5913 26.0818 31.7095 25.0678C34.6585 23.6368 37.8979 22.7904 41.0916 21.944C38.17 21.7199 35.2921 21.5522 32.5166 22.1137C28.6509 22.87 25.0755 25.1956 21.3449 26.9429C18.1256 28.357 14.8297 29.4569 11.4844 29.6748C7.68624 29.9178 3.84246 29.1238 0.00231934 28.2774C3.30743 29.9723 6.61436 31.6651 10.1824 32.5493C12.9489 33.2281 15.918 33.3517 18.6132 32.5786C21.0802 31.8411 23.3134 30.3159 25.5466 28.7928Z" fill="black"/>
<path fill-rule="evenodd" clip-rule="evenodd" d="M39.6317 19.3506C41.0286 18.8625 42.4602 18.3492 43.89 18.0768C45.884 17.6851 47.9821 17.6976 50.0547 17.7039C48.2853 17.0838 46.5359 16.5055 44.7592 16.3924C42.2849 16.2185 39.7942 17.0586 37.2798 17.5175C35.1214 17.8569 32.9558 17.9889 30.8704 17.5698C28.5039 17.0922 26.2396 15.9692 23.9827 14.8148C25.8032 16.4029 27.6256 17.9909 29.7091 19.1223C31.3269 19.9959 33.1384 20.5616 34.8932 20.5323C36.5037 20.4904 38.0686 19.9205 39.6317 19.3506Z" fill="black"/>
<path d="M0.00182781 74.5049V74.0042H0.598938C1.24353 74.0042 1.54117 73.7926 1.84064 73.3443C2.04698 73.0531 2.14011 72.368 2.14011 71.2597V59.3052C2.14011 58.1969 2.02507 57.5097 1.84064 57.2206C1.51926 56.7723 1.24353 56.5355 0.575199 56.5355H0V56.06H4.6929H7.26943C7.26943 56.06 13.6185 55.664 13.6185 60.8891C13.6185 60.8891 13.8724 63.8452 10.7663 65.0583C10.7663 65.0583 14.1937 65.823 14.1937 69.5438C14.1937 73.2374 11.3177 74.5049 7.27126 74.5049H4.69473H0.00182781ZM4.69473 73.1851H6.92614C8.23723 73.1851 11.6647 73.0258 11.6647 69.6234C11.6647 68.1192 10.9288 65.5066 8.07654 65.5066V64.2936C9.52641 64.2936 11.2739 64.0024 11.2739 60.9163C11.2739 57.2751 8.46731 57.2751 6.92614 57.2751H4.69473V73.1851Z" fill="black"/>
<path d="M20.9339 74.5049H17.4152V74.0042H18.0123C18.6569 74.0042 18.9545 73.7926 19.254 73.3443C19.4603 73.053 19.5534 72.368 19.5534 71.2597V59.3052C19.5534 58.1969 19.4384 57.5097 19.254 57.2206C18.9326 56.7723 18.6568 56.5355 17.9885 56.5355H17.4133V56.0599H22.1281V73.1871H30.5005V74.507H22.1281H20.9339V74.5049Z" fill="black"/>
<path d="M49.8759 74.0149H50.4383V74.5052H43.7148V74.0149H44.2992C46.0978 74.0149 45.9864 72.5693 45.6705 71.4087L41.6003 60.1854L37.395 71.3312C37.0133 72.4143 37.8898 74.0149 38.9233 74.0149H39.4858V74.5052H33.9091V74.0149H34.4715C35.1015 74.0149 35.8885 72.3892 36.3158 71.4087L41.9819 56.0581H42.4768L48.121 71.6161C48.4589 72.5191 49.0651 74.0149 49.8759 74.0149Z" fill="black"/>
<path d="M61.1277 74.5049C56.6466 74.5049 53.0238 70.3714 53.0238 65.2824C53.0238 60.1914 56.6485 56.0599 61.1277 56.0599C62.028 56.0599 62.7748 56.2359 63.4121 56.5648C64.599 57.1955 66.0251 58.1781 66.0251 56.0599H66.4196V60.5958H65.6727C64.6848 58.1005 63.2788 56.9922 61.1259 56.9922C57.8975 56.9922 55.2169 60.1935 55.2169 65.2824C55.2169 70.3734 57.8956 73.5978 61.1259 73.5978C63.2788 73.5978 65.0135 72.0097 66.0014 69.5145L66.8578 69.944C65.565 72.8163 63.9617 74.5049 61.1277 74.5049Z" fill="black"/>
<path d="M82.7815 58.4067C83.7475 57.5624 83.5174 56.5337 82.4601 56.5337H81.8849V56.0581H87.5894V56.5337H87.29C86.2783 56.5337 79.9986 61.918 77.4221 64.1597L84.1839 72.077C84.781 72.7893 86.6454 74.0045 87.4726 74.0045H87.584V74.5052H81.1709V74.0045H81.4467C82.5277 74.0045 81.3097 72.7118 80.4351 71.7355L75.1213 65.5341V74.5073H70.4065V74.0066H71.0036C71.6482 74.0066 71.9477 73.795 72.2453 73.3466C72.4516 73.0554 72.5448 72.3703 72.5448 71.262V59.3076C72.5448 58.1993 72.4297 57.5121 72.2453 57.223C71.9239 56.7746 71.6464 56.5379 70.9799 56.5379H70.4047V56.0623H75.1195V64.8511L82.7815 58.4067Z" fill="black"/>
<path d="M15.0905 80.6392C15.547 80.6392 15.9268 80.7293 16.25 80.8948C16.8526 81.2153 17.5757 81.7139 17.5757 80.6392H17.7766V82.9396H17.3986C16.8964 81.6741 16.1843 81.1106 15.0923 81.1106C13.4543 81.1106 12.7751 82.9773 15.4265 84.536C19.3031 86.7211 17.9774 89.9434 15.1471 89.9434C14.6577 89.9434 14.3107 89.8658 13.9875 89.7129C13.374 89.407 12.6509 88.921 12.6728 89.9936H12.461L12.4281 87.6933H12.8061C13.3302 88.9461 14.0642 89.4699 15.1452 89.4699C16.6499 89.4699 17.6195 87.1695 14.4313 85.5186C11.3142 83.7985 12.817 80.6392 15.0905 80.6392Z" fill="#12CD86"/>
<path d="M27.1768 80.6392V81.2551H23.9556V88.3511C23.9556 88.9126 24.0031 89.2625 24.1072 89.4091C24.2588 89.6375 24.4103 89.7443 24.7372 89.7443H25.0403V89.9978H21.5508V89.7443H21.8539C22.1808 89.7443 22.3323 89.6375 22.4839 89.4091C22.5898 89.2625 22.6354 88.9147 22.6354 88.3511V81.2551H19.418V80.6392H27.1768Z" fill="#12CD86"/>
<path d="M35.0757 89.7486H35.3606V89.9979H31.9496V89.7486H32.2454C33.1584 89.7486 33.1018 89.0154 32.9411 88.4266L30.8759 82.7343L28.7431 88.3889C28.5495 88.9378 28.9932 89.7507 29.5191 89.7507H29.804V90H26.9773V89.7507H27.2622C27.5817 89.7507 27.9816 88.9253 28.1971 88.4287L31.0713 80.6414H31.3214L34.1846 88.5335C34.3563 88.9902 34.6649 89.7486 35.0757 89.7486Z" fill="#12CD86"/>
<path d="M38.6695 89.9978H36.8837V89.7443H37.1868C37.5136 89.7443 37.6652 89.6375 37.8168 89.4091C37.9209 89.2625 37.9683 88.9147 37.9683 88.3511V82.2859C37.9683 81.7244 37.9099 81.3745 37.8168 81.2279C37.6524 80.9995 37.5136 80.8801 37.1758 80.8801H36.8837V80.6392H39.2758V89.3274H43.5231V89.9957H39.2758H38.6695V89.9978Z" fill="#12CD86"/>
<path d="M46.7573 89.9978H44.9714V89.7443H45.2745C45.6014 89.7443 45.753 89.6375 45.9045 89.4091C46.0104 89.2625 46.0561 88.9147 46.0561 88.3511V82.2859C46.0561 81.7244 45.9977 81.3745 45.9045 81.2279C45.7402 80.9995 45.6014 80.8801 45.2618 80.8801H44.9696V80.6392H47.3617V89.3274H51.6091V89.9957H47.3617H46.7573V89.9978Z" fill="#12CD86"/>
<path d="M56.5961 80.8801H56.293C55.9661 80.8801 55.8145 81.0016 55.663 81.2279C55.5571 81.3745 55.5114 81.7223 55.5114 82.2859L55.5005 88.3511C55.5005 88.9126 55.5589 89.2625 55.652 89.4091C55.8164 89.6375 55.9551 89.7443 56.293 89.7443H56.5851V89.9978H53.0956V89.7443H53.3987C53.7256 89.7443 53.8771 89.6375 54.0287 89.4091C54.1346 89.2625 54.1802 88.9147 54.1802 88.3511V82.2859C54.1802 81.7244 54.1218 81.3745 54.0287 81.2279C53.8662 80.9995 53.7256 80.8801 53.3878 80.8801H53.0956V80.6392H56.5961V80.8801Z" fill="#12CD86"/>
<path d="M62.3627 80.6392C64.6252 80.6392 66.4749 82.7363 66.4749 85.3175C66.4749 87.8986 64.6252 89.9957 62.3627 89.9957C60.0893 89.9957 58.2505 87.8986 58.2505 85.3175C58.2505 82.7363 60.0911 80.6392 62.3627 80.6392ZM62.3298 89.5369C63.9678 89.5369 65.2935 87.9007 65.2935 85.3175C65.2935 82.7342 63.9678 81.1106 62.3298 81.1106C60.6919 81.1106 59.3662 82.7342 59.3662 85.3175C59.3662 87.9007 60.6919 89.5369 62.3298 89.5369Z" fill="#12CD86"/>
<path d="M75.0733 87.775V82.2859C75.0733 81.7244 75.0149 81.3745 74.9217 81.2279C74.7574 80.9995 74.6186 80.8801 74.279 80.8801H73.9868V80.6392H75.7727V83.4508L75.7617 89.9978H75.0733L69.8691 81.4562V83.4508L69.8581 88.3511C69.8581 88.9126 69.9056 89.2625 70.0097 89.4091C70.1722 89.6375 70.3128 89.7443 70.6507 89.7443H70.9428V89.9978H68.0833V89.7443H68.3864C68.7132 89.7443 68.8648 89.6375 69.0164 89.4091C69.1223 89.2625 69.1679 88.9147 69.1679 88.3511V82.2859C69.1679 81.7244 69.1095 81.3745 69.0164 81.2279C68.8538 80.9995 68.7132 80.8801 68.3754 80.8801H68.0833V80.6392H69.3669H69.8691H70.5922L75.0733 87.775Z" fill="#12CD86"/>
</svg>
