<svg id="a" height="512" fill="#12CD86" viewBox="0 0 64 64" width="512" xmlns="http://www.w3.org/2000/svg"><path d="m35 42c0 .552.447 1 1 1s1-.448 1-1c0-2.414-1.721-4.434-4-4.899v-1.681c0-.552-.448-1-1-1s-1 .448-1 1v1.681c-2.279.465-4 2.484-4 4.899s1.721 4.434 4 4.899v5.917c-1.161-.414-2-1.514-2-2.816 0-.552-.448-1-1-1s-1 .448-1 1c0 2.414 1.721 4.434 4 4.899v1.681c0 .552.448 1 1 1s1-.448 1-1v-1.681c2.279-.465 4-2.484 4-4.899s-1.721-4.434-4-4.899v-5.917c1.161.414 2 1.514 2 2.816zm-6 0c0-1.302.839-2.402 2-2.816v5.631c-1.161-.414-2-1.514-2-2.816zm6 8c0 1.302-.839 2.402-2 2.816v-5.631c1.161.414 2 1.514 2 2.816z"/><path d="m54.347 2h-44.694c-.552 0-1 .448-1 1v39.644c0 .552.448 1 1 1h6.54c-.115.771-.193 1.554-.193 2.356 0 8.822 7.178 16 16 16s16-7.178 16-16c0-.803-.079-1.585-.193-2.356h6.54c.553 0 1-.448 1-1v-39.644c0-.552-.447-1-1-1zm-17.871 2v10.774l-3.886-2.839c-.176-.128-.383-.192-.59-.192s-.414.064-.59.192l-3.885 2.838v-10.773zm-4.476 56c-7.72 0-14-6.28-14-14s6.28-14 14-14 14 6.28 14 14-6.28 14-14 14zm21.347-18.356h-5.965c-1.904-6.709-8.071-11.644-15.382-11.644s-13.478 4.935-15.382 11.644h-5.965v-37.644h14.872v12.743c0 .376.211.721.547.892.334.17.738.138 1.042-.084l4.885-3.569 4.886 3.569c.305.223.706.255 1.043.084.335-.17.547-.515.547-.892v-12.743h14.871v37.644z"/></svg>