<svg width="20" height="19" viewBox="0 0 20 19" fill="none" xmlns="http://www.w3.org/2000/svg">
<path d="M11.925 0.504052C12.317 0.50402 12.7023 0.606427 13.0426 0.801124C13.3829 0.995822 13.6664 1.27605 13.865 1.61405L14.679 3.00105H16.75C17.6118 3.00105 18.4383 3.34332 19.0477 3.9526C19.6572 4.56188 19.9997 5.38827 20 6.25005V15.7501C20 16.1768 19.9159 16.5995 19.7526 16.9938C19.5893 17.3881 19.3499 17.7464 19.0481 18.0481C18.7463 18.3499 18.388 18.5893 17.9937 18.7527C17.5994 18.916 17.1768 19.0001 16.75 19.0001H3.25C2.38805 19.0001 1.5614 18.6576 0.951903 18.0481C0.34241 17.4387 0 16.612 0 15.7501V6.25005C0 5.3881 0.34241 4.56145 0.951903 3.95195C1.5614 3.34246 2.38805 3.00005 3.25 3.00005H5.33L6.205 1.57605C6.40619 1.24827 6.68804 0.977533 7.02364 0.789686C7.35925 0.601839 7.7374 0.503153 8.122 0.503052H11.925V0.504052ZM10 6.00005C8.80653 6.00005 7.66193 6.47416 6.81802 7.31807C5.97411 8.16198 5.5 9.30658 5.5 10.5001C5.5 11.6935 5.97411 12.8381 6.81802 13.682C7.66193 14.5259 8.80653 15.0001 10 15.0001C11.1935 15.0001 12.3381 14.5259 13.182 13.682C14.0259 12.8381 14.5 11.6935 14.5 10.5001C14.5 9.30658 14.0259 8.16198 13.182 7.31807C12.3381 6.47416 11.1935 6.00005 10 6.00005ZM10 7.50005C10.394 7.50005 10.7841 7.57765 11.1481 7.72841C11.512 7.87918 11.8427 8.10015 12.1213 8.37873C12.3999 8.65731 12.6209 8.98802 12.7716 9.352C12.9224 9.71598 13 10.1061 13 10.5001C13 10.894 12.9224 11.2841 12.7716 11.6481C12.6209 12.0121 12.3999 12.3428 12.1213 12.6214C11.8427 12.8999 11.512 13.1209 11.1481 13.2717C10.7841 13.4225 10.394 13.5001 10 13.5001C9.20435 13.5001 8.44129 13.184 7.87868 12.6214C7.31607 12.0588 7 11.2957 7 10.5001C7 9.7044 7.31607 8.94134 7.87868 8.37873C8.44129 7.81612 9.20435 7.50005 10 7.50005Z" fill="black"/>
</svg>
