<svg width="42" height="41" viewBox="0 0 42 41" fill="none" xmlns="http://www.w3.org/2000/svg">
<path d="M26.6878 14.6561L26.6466 14.6166C25.279 13.3129 23.4717 12.5185 21.5485 12.3756C19.6254 12.2327 17.7119 12.7506 16.151 13.8366C14.59 14.9226 13.4835 16.5058 13.0297 18.3024C12.5758 20.0991 12.8043 21.9919 13.6742 23.6419L14.0319 24.3168L13.3633 27.4228V27.4624L16.5741 26.732L17.3059 27.0801C18.8291 27.8046 20.5511 28.0529 22.2293 27.7899C23.9075 27.5269 25.4573 26.7659 26.6603 25.6141C28.1707 24.1596 29.0209 22.1925 29.0261 20.1405C29.0312 18.0885 28.1909 16.1175 26.6878 14.6561ZM26.3632 23.3571C25.9697 23.9504 25.3452 24.6754 24.5666 24.8574C23.1909 25.1764 21.0972 24.8574 18.4752 22.5345L18.4422 22.5055C16.1614 20.4647 15.5561 18.764 15.6909 17.4167C15.7707 16.6521 16.4365 15.9613 16.9978 15.5078C17.0868 15.4351 17.1924 15.3835 17.306 15.3572C17.4197 15.3309 17.5382 15.3305 17.652 15.3562C17.7658 15.3819 17.8717 15.4328 17.9612 15.5049C18.0507 15.5771 18.1212 15.6684 18.1671 15.7714L19.0117 17.6171C19.0668 17.7349 19.0875 17.8648 19.0715 17.993C19.0555 18.1212 19.0035 18.2428 18.9209 18.3448L18.4917 18.8721C18.4025 18.9816 18.3494 19.1141 18.3391 19.2526C18.3288 19.3912 18.3618 19.5295 18.4339 19.65C18.8418 20.2249 19.3296 20.7438 19.8839 21.1924C20.4789 21.7442 21.1557 22.2089 21.8923 22.5714C22.0265 22.6236 22.1739 22.6362 22.3155 22.6075C22.4572 22.5788 22.5867 22.5103 22.6874 22.4105L23.1799 21.9333C23.2718 21.8323 23.3915 21.7581 23.5252 21.7189C23.6589 21.6798 23.8014 21.6773 23.9365 21.7118L25.945 22.2655C26.0566 22.2968 26.1592 22.3526 26.2445 22.4284C26.3298 22.5041 26.3956 22.5979 26.4367 22.7022C26.4778 22.8065 26.493 22.9185 26.4812 23.0294C26.4694 23.1403 26.4309 23.2471 26.3687 23.3413L26.3632 23.3571Z" fill="#9DAFBD"/>
<path d="M20.9099 0.154541C16.7743 0.154541 12.7316 1.32979 9.29298 3.53166C5.85437 5.73353 3.1743 8.86314 1.59168 12.5247C0.00905987 16.1863 -0.405025 20.2154 0.401787 24.1025C1.2086 27.9896 3.20007 31.5602 6.12437 34.3626C9.04867 37.1651 12.7744 39.0736 16.8306 39.8468C20.8867 40.62 25.091 40.2231 28.9117 38.7064C32.7325 37.1898 35.9982 34.6214 38.2958 31.326C40.5934 28.0307 41.8198 24.1564 41.8198 20.1932C41.8198 14.8786 39.6168 9.78169 35.6954 6.02372C31.774 2.26575 26.4555 0.154541 20.9099 0.154541V0.154541ZM31.274 20.4278C31.2175 22.092 30.7258 23.716 29.844 25.1507C28.9622 26.5854 27.7186 27.785 26.2272 28.6392C24.7358 29.4935 23.0444 29.9751 21.3082 30.0399C19.572 30.1047 17.8467 29.7506 16.2904 29.0102L11.063 30.2019C10.9839 30.2193 10.9013 30.2135 10.8257 30.1853C10.7502 30.1571 10.6852 30.1078 10.6393 30.0437C10.6079 30.0009 10.5861 29.9524 10.5752 29.9011C10.5643 29.8498 10.5646 29.797 10.576 29.7458L11.6765 24.6254C10.9572 23.2746 10.5698 21.7839 10.5443 20.2676C10.5187 18.7512 10.8555 17.2493 11.5289 15.8769C12.2023 14.5045 13.1944 13.298 14.4294 12.3497C15.6643 11.4013 17.1093 10.7364 18.6538 10.4057C20.1982 10.0751 21.8011 10.0875 23.3398 10.4419C24.8784 10.7964 26.3121 11.4836 27.5309 12.4509C28.7497 13.4182 29.7215 14.6399 30.3717 16.0225C31.0219 17.4052 31.3334 18.9121 31.2823 20.4278H31.274Z" fill="#9DAFBD"/>
</svg>
