<svg width="64" height="64" viewBox="0 0 64 64" fill="none" xmlns="http://www.w3.org/2000/svg">
<path d="M14.2221 4.64008C11.9952 4.88345 10.6665 5.76808 10.6665 6.28583C10.6665 6.80358 11.9951 7.68808 14.2221 7.93158V4.64008Z" fill="#12CD86"/>
<path d="M15.4074 18.2857C23.9028 18.2857 30.8148 14.184 30.8148 9.14287C30.8148 4.10175 23.9028 0 15.4074 0C6.91199 0 0 4.10175 0 9.14287C0 14.184 6.91199 18.2857 15.4074 18.2857ZM8.2963 6.28575C8.2963 4.23438 10.7734 2.64112 14.2222 2.34063V2.28575C14.2222 1.65462 14.7528 1.14287 15.4074 1.14287C16.0619 1.14287 16.5926 1.6545 16.5926 2.28575V2.34063C20.0415 2.64125 22.5185 4.23438 22.5185 6.28575C22.5185 6.91687 21.9879 7.42863 21.3333 7.42863C20.6787 7.42863 20.1481 6.917 20.1481 6.28575C20.1481 5.768 18.8195 4.8835 16.5925 4.64V8.05488C20.0414 8.3555 22.5184 9.94863 22.5184 12C22.5184 14.0514 20.0413 15.6446 16.5925 15.9451V16C16.5925 16.6311 16.0619 17.1429 15.4073 17.1429C14.7528 17.1429 14.2221 16.6313 14.2221 16V15.9451C10.7733 15.6446 8.2963 14.0514 8.2963 12C8.2963 11.3689 8.82688 10.8571 9.48151 10.8571C10.1361 10.8571 10.6667 11.3687 10.6667 12C10.6667 12.5177 11.9953 13.4023 14.2223 13.6458V10.2309C10.7733 9.93025 8.2963 8.34287 8.2963 6.28575Z" fill="#12CD86"/>
<path d="M0 30.8206V33.1429C0 37.9429 6.28147 41.8891 14.2222 42.2502V36.536C8.13504 36.2731 2.88478 34.0422 0 30.8206Z" fill="#12CD86"/>
<path d="M30.8148 19.4582V14.8204C27.744 18.2502 21.9947 20.5713 15.4074 20.5713C8.82014 20.5713 3.0708 18.2502 0 14.8206V17.1428C0 22.1839 6.91199 26.2857 15.4074 26.2857C15.5046 26.2857 15.6017 26.2857 15.6989 26.2788C18.3277 22.3839 24.1434 19.7393 30.8148 19.4582Z" fill="#12CD86"/>
<path d="M0 22.8206V25.1429C0 29.9429 6.28147 33.8891 14.2222 34.2502V30.8571C14.2271 30.0729 14.3529 29.2936 14.5955 28.5451C8.35204 28.3622 2.94402 26.1086 0 22.8206Z" fill="#12CD86"/>
<path d="M20.148 12.0001C20.148 11.4824 18.8194 10.5979 16.5924 10.3544V13.6457C18.8194 13.4024 20.148 12.5179 20.148 12.0001Z" fill="#12CD86"/>
<path d="M49.7778 13.6459C52.0047 13.4025 53.3334 12.5179 53.3334 12.0001C53.3334 11.4824 52.0049 10.5979 49.7778 10.3544V13.6459Z" fill="#12CD86"/>
<path d="M43.8519 6.28583C43.8519 6.80358 45.1805 7.68808 47.4075 7.93158V4.64008C45.1805 4.88345 43.8519 5.76808 43.8519 6.28583Z" fill="#12CD86"/>
<path d="M48.5926 0C40.0972 0 33.1852 4.10175 33.1852 9.14287C33.1852 14.184 40.0972 18.2857 48.5926 18.2857C57.088 18.2857 64 14.184 64 9.14287C64 4.10175 57.088 0 48.5926 0ZM55.7037 12C55.7037 14.0571 53.2266 15.6446 49.7778 15.9451V16C49.7778 16.6311 49.2472 17.1429 48.5926 17.1429C47.9381 17.1429 47.4074 16.6313 47.4074 16V15.9451C43.9584 15.6445 41.4815 14.0514 41.4815 12C41.4815 11.3689 42.0121 10.8571 42.6667 10.8571C43.3212 10.8571 43.8519 11.3687 43.8519 12C43.8519 12.5177 45.1805 13.4023 47.4075 13.6458V10.2309C43.9586 9.93025 41.4816 8.34287 41.4816 6.28575C41.4816 4.22862 43.9587 2.64112 47.4075 2.34063V2.28575C47.4075 1.65462 47.9381 1.14287 48.5927 1.14287C49.2472 1.14287 49.7779 1.6545 49.7779 2.28575V2.34063C53.2268 2.64125 55.7038 4.23438 55.7038 6.28575C55.7038 6.91687 55.1732 7.42863 54.5186 7.42863C53.8641 7.42863 53.3334 6.917 53.3334 6.28575C53.3334 5.768 52.0048 4.8835 49.7778 4.64V8.05488C53.2267 8.35538 55.7037 9.94863 55.7037 12Z" fill="#12CD86"/>
<path d="M31.9999 58.2857C25.4127 58.2857 19.6633 55.9646 16.5925 52.5349V54.8571C16.5925 59.8982 23.5045 64 31.9999 64C40.4953 64 47.4073 59.8982 47.4073 54.8571V52.5349C44.3365 55.9646 38.5872 58.2857 31.9999 58.2857Z" fill="#12CD86"/>
<path d="M31.9999 50.2857C25.4127 50.2857 19.6633 47.9646 16.5925 44.5349V46.8571C16.5925 51.8982 23.5045 56 31.9999 56C40.4953 56 47.4073 51.8982 47.4073 46.8571V44.5349C44.3365 47.9646 38.5872 50.2857 31.9999 50.2857Z" fill="#12CD86"/>
<path d="M32.916 21.736C32.8704 21.7348 32.8248 21.7305 32.7798 21.7234L31.9999 21.7143C31.7439 21.7143 31.4927 21.7143 31.239 21.7143C31.1878 21.7237 31.1358 21.729 31.0837 21.7303C24.9207 21.9485 19.4226 24.4503 17.4043 27.9554C16.8797 28.8393 16.6001 29.8387 16.5924 30.8572C16.5925 35.8983 23.5045 40 31.9999 40C40.4953 40 47.4073 35.8983 47.4073 30.8572C47.3986 29.8402 47.1186 28.8424 46.5943 27.96C44.5771 24.4572 39.0802 21.9543 32.916 21.736ZM39.111 33.7143C39.111 35.7714 36.6339 37.3589 33.1851 37.6594V37.7143C33.1851 38.3454 32.6546 38.8572 31.9999 38.8572C31.3454 38.8572 30.8147 38.3455 30.8147 37.7143V37.6594C27.3658 37.3588 24.8888 35.7657 24.8888 33.7143C24.8888 33.0832 25.4194 32.5714 26.074 32.5714C26.7287 32.5714 27.2592 33.083 27.2592 33.7143C27.2592 34.232 28.5878 35.1165 30.8149 35.36V31.9452C27.3659 31.6445 24.889 30.0514 24.889 28C24.889 25.9487 27.3661 24.3554 30.8149 24.0549V24C30.8149 23.3689 31.3454 22.8572 32.0001 22.8572C32.6546 22.8572 33.1853 23.3688 33.1853 24V24.0549C36.6342 24.3555 39.1112 25.9487 39.1112 28C39.1112 28.6312 38.5806 29.1429 37.926 29.1429C37.2715 29.1429 36.7408 28.6313 36.7408 28C36.7408 27.4823 35.4122 26.5978 33.1851 26.3543V29.7692C36.6341 30.0698 39.111 31.6629 39.111 33.7143Z" fill="#12CD86"/>
<path d="M49.7778 36.5326V42.2469C57.7186 41.8891 64 37.9429 64 33.1429V30.8206C61.1152 34.0422 55.865 36.2731 49.7778 36.5326Z" fill="#12CD86"/>
<path d="M48.5927 20.5713C42.0054 20.5713 36.2561 18.2502 33.1853 14.8204V19.4593C39.8567 19.7382 45.6736 22.3839 48.3 26.2787C48.3984 26.2787 48.4956 26.2856 48.5927 26.2856C57.0881 26.2856 64.0001 22.1838 64.0001 17.1427V14.8204C60.9293 18.2502 55.18 20.5713 48.5927 20.5713Z" fill="#12CD86"/>
<path d="M49.4033 28.5451C49.6469 29.2935 49.7732 30.0727 49.7778 30.8571V34.2502C57.7185 33.8891 64 29.9429 64 25.1429V22.8206C61.056 26.1086 55.648 28.3622 49.4033 28.5451Z" fill="#12CD86"/>
<path d="M31.9999 42.2857C25.4127 42.2857 19.6633 39.9646 16.5925 36.5349V38.8571C16.5925 43.8982 23.5045 48 31.9999 48C40.4953 48 47.4073 43.8982 47.4073 38.8571V36.5349C44.3365 39.9646 38.5872 42.2857 31.9999 42.2857Z" fill="#12CD86"/>
<path d="M27.2593 28.0001C27.2593 28.5178 28.5879 29.4023 30.8149 29.6458V26.3544C28.5879 26.5978 27.2593 27.4823 27.2593 28.0001Z" fill="#12CD86"/>
<path d="M33.1853 35.3601C35.4122 35.1167 36.7409 34.2321 36.7409 33.7144C36.7409 33.1966 35.4123 32.3121 33.1853 32.0686V35.3601Z" fill="#12CD86"/>
</svg>
