<svg id="Layer_1" fill="#12CD86" enable-background="new 0 0 53 53" height="512" viewBox="0 0 53 53" width="512" xmlns="http://www.w3.org/2000/svg"><g id="_x35_1"><path d="m8.2216797 47.3363075c.8183594 0 1.5212402-.494873 1.8306274-1.2001953h2.6298218c1.0415039 0 2.0395508.3203125 2.8862305.9262695l2.3955078 1.7143555c3.3731441 2.4254112 7.9682598 2.2751846 11.1757813-.3681641l11.109375-9.1582031c.8611679-.709259.8759193-2.0241547.0336914-2.7558594-1.4785156-1.2827148-3.6411133-1.4106445-5.2587891-.3139648l-5.222168 3.5244141c-.3658028-1.2169724-1.5551453-2.1132813-2.9072266-2.1132813h-5.0551758c-1.3129883 0-2.5888672-.5273438-3.5039063-1.4487305-1.2983398-1.2983398-3.09375-2.0429688-4.9262695-2.0429688h-3.3592529c-.3104248-.7028198-1.0116577-1.1958008-1.8282471-1.1958008h-4.736328c-.5522461 0-1 .4477539-1 1s.4477539 1 1 1h4.7363281v10.4321289h-4.7363281c-.5522461 0-1 .4477539-1 1s.4477539 1 1 1h4.7363281zm2.0004883-11.2363281h3.1870117c1.3061523 0 2.5859375.53125 3.5092773 1.4545898 1.2851563 1.2944336 3.0786133 2.0371094 4.9208984 2.0371094h5.0551758c.5373955 0 1.0560589.4328728 1.0224609.9604492-.0273399.4374504-.3905602.8432617-.8999023.8432617h-6.9199218c-.5522461 0-1 .4477539-1 1s.4477539 1 1 1h6.9199219c.5855103 0 1.1437988-.170166 1.6154175-.4918823.9197979-.6131973 7.6151619-5.1360168 7.5125122-5.0667114.8061523-.5458984 1.8608398-.5283203 2.644043.0253906l-10.921875 9.003418c-2.5058594 2.0649414-6.0986328 2.1821289-8.737793.2861328l-2.3969727-1.715332c-1.1884766-.8505859-2.5888672-1.300293-4.050293-1.300293h-2.4599609z"/><path d="m7.0307617 43.3260536c0-.5522461-.4477539-1-1-1h-.0073242c-.5522461 0-.9960938.4477539-.9960938 1s.4511719 1 1.003418 1 1-.4477539 1-1z"/><path d="m26.1918945 35.5916786c5.1567383 0 9.3520508-4.1953125 9.3520508-9.3520508 0-5.15625-4.1953125-9.3510742-9.3520508-9.3510742s-9.3520508 4.1948242-9.3520508 9.3510742c.0000001 5.1567383 4.1953126 9.3520508 9.3520508 9.3520508zm0-16.703125c4.0537109 0 7.3520508 3.2978516 7.3520508 7.3510742 0 4.0537109-3.2983398 7.3520508-7.3520508 7.3520508s-7.3520508-3.2983398-7.3520508-7.3520508c.0000001-4.0532226 3.2983399-7.3510742 7.3520508-7.3510742z"/><path d="m26.1918945 27.2391396c.4980469 0 .9033203.4052734.9033203.9033203 0 .5029297-.4052734.9121094-.9033203.9121094-.3989258 0-.7446289-.2568359-.8613281-.6396484-.1601563-.5288086-.7197266-.8271484-1.2475586-.6655273-.5283203.1606445-.8261719.7192383-.6655273 1.2475586.2719727.8947754.9382935 1.5713501 1.7744141 1.8765869v.130249c0 .5522461.4477539 1 1 1s1-.4477539 1-1v-.1381226c1.107605-.4107666 1.9033203-1.4711914 1.9033203-2.7232056 0-1.6010742-1.3022461-2.9033203-2.9033203-2.9033203-.3081055 0-.5239258-.1474609-.6328125-.2529297-.1230469-.1264648-.2705078-.3422852-.2705078-.6503906 0-.5011597.4034424-.9088135.8997192-.9108887.0012817 0 .0023193.0007324.0036011.0007324.0014038 0 .0026245-.0007935.0040283-.0007935.3971558.0018311.7410278.2575073.8568115.6389771.1606445.527832.7158203.8276367 1.2480469.6655273.5283203-.1601563.8261719-.71875.6660156-1.2475586-.2723389-.8948364-.9385376-1.5714722-1.7749023-1.876709v-.1286621c0-.5522461-.4477539-1-1-1s-1 .4477539-1 1v.1366577c-1.107605.4107056-1.9033203 1.4710693-1.9033203 2.7227173 0 .7651367.2978516 1.4921875.8564453 2.0644531.5546874.5410157 1.2817382.8388673 2.0468749.8388673z"/><path d="m25.940918 6.663456-4.9165039 1.2646484c-.5351563.137207-.8569336.6826172-.7192383 1.2172852.137392.5362358.6831932.8566656 1.2172852.7192383l4.6674805-1.2001953 4.6669922 1.2001953c.5375977.1401367 1.0805664-.1845703 1.2172852-.7192383.1376953-.534668-.184082-1.0800781-.7192383-1.2172852l-4.9160158-1.2646484c-.1630859-.0419922-.3349609-.0419922-.4980468 0z"/><path d="m50.5146484 25.1029091c0-1.3002319-.8399658-2.3984375-2.003418-2.8117676v-13.3059082c0-.4355402-.349514-.8654795-.7509766-.9682617l-21.321289-5.4838867c-.1630859-.0419922-.3349609-.0419922-.4980469 0l-21.3217773 5.4838867c-.9981444.2558784-.9975328 1.6808023 0 1.9365234l5.1108398 1.3145142v10.3812866c0 1.7749023 1.1894531 3.3583984 2.8886719 3.8496094.3481445.1020508.7070313.2045898 1.0556641.296875.5322266.1396484 1.0810547-.1777344 1.222168-.7114258s-.1772461-1.0810547-.7114258-1.222168c-.3310547-.0874023-.6723633-.1850586-1.0073242-.2832031-.8525391-.246582-1.4477539-1.0400391-1.4477539-1.9296875v-9.8608398l14.2114258 3.649414c.1630859.0419922.3339844.0419922.4970703 0l14.2114258-3.6494141v9.8608398c0 .8896484-.5952148 1.6831055-1.4506836 1.9301758-.3320313.097168-.6738281.1953125-1.0048828.2827148-.5341797.1411133-.8525391.6884766-.7114258 1.222168.1186523.4487305.5234375.7451172.9663086.7451172.0844727 0 .1704102-.0112305.2558594-.0336914.3486328-.0922852.7070313-.1943359 1.0527344-.2958984 1.7026367-.4921875 2.8920898-2.0756836 2.8920898-3.8505859v-10.3814087l3.8613281-.9931641v12.0167847c-1.1595459.4136963-1.996582 1.5115356-1.996582 2.8114014 0 1.3033447.8365479 2.4042969 1.9956055 2.819397v.324707c-.8461304.1833496-1.5075684.9060669-1.5761719 1.7987671l-.3334961 4.3305664c-.0424805.5537109.1499023 1.1044922.5273438 1.512207.3769531.4072266.9116211.640625 1.4667969.640625h1.840332c.5551758 0 1.0898438-.2333984 1.4667969-.640625.3774414-.4077148.5698242-.9584961.5273438-1.5126953l-.3334961-4.3300781c-.0688477-.8960571-.7347412-1.621521-1.5854492-1.8015137v-.3210449c1.1639402-.4143067 2.0043943-1.5158692 2.0043943-2.8203125zm-3.0043945 1.0043945c-.5488281 0-.9956055-.4506836-.9956055-1.0043945 0-.5488281.4467773-.9956055.9956055-.9956055.5537109 0 1.0043945.4467773 1.0043945.9956055 0 .5537109-.4506836 1.0043945-1.0043945 1.0043945zm-21.3203125-12.6708984-17.3071289-4.4511719 17.3071289-4.4511719 17.3066406 4.4511719zm20.4047852 21.0927734.3334961-4.3300781 1.1733398.0004997.3334961 4.3295784zm1.5073242-4.3300781c-.0004883-.0004883-.0004883-.0004883-.0004883-.0009766l.9970703-.0756836z"/></g></svg>