<svg width="23" height="18" viewBox="0 0 23 18" fill="none" xmlns="http://www.w3.org/2000/svg">
<path d="M11.3371 5.875L14.375 8.64V8.5C14.375 7.80381 14.0721 7.13613 13.5329 6.64385C12.9938 6.15156 12.2625 5.875 11.5 5.875H11.3371ZM7.21626 6.575L8.70168 7.93125C8.65376 8.115 8.62501 8.29875 8.62501 8.5C8.62501 9.19619 8.92791 9.86387 9.46708 10.3562C10.0062 10.8484 10.7375 11.125 11.5 11.125C11.7108 11.125 11.9217 11.0988 12.1229 11.055L13.6083 12.4113C12.9663 12.7 12.2571 12.875 11.5 12.875C10.2292 12.875 9.0104 12.4141 8.11179 11.5936C7.21318 10.7731 6.70834 9.66032 6.70834 8.5C6.70834 7.80875 6.90001 7.16125 7.21626 6.575ZM1.91668 1.73625L4.10168 3.73125L4.53293 4.125C2.95168 5.2625 1.70584 6.75 0.958344 8.5C2.61626 12.3413 6.70834 15.0625 11.5 15.0625C12.9854 15.0625 14.4038 14.8 15.6975 14.3275L16.1096 14.695L18.9079 17.25L20.125 16.1388L3.13376 0.625M11.5 4.125C12.7708 4.125 13.9896 4.58594 14.8882 5.40641C15.7868 6.22688 16.2917 7.33968 16.2917 8.5C16.2917 9.06 16.1671 9.6025 15.9467 10.0925L18.7546 12.6563C20.1921 11.5625 21.3421 10.1275 22.0417 8.5C20.3838 4.65875 16.2917 1.9375 11.5 1.9375C10.1583 1.9375 8.87418 2.15625 7.66668 2.55L9.74626 4.43125C10.2925 4.23875 10.8771 4.125 11.5 4.125Z" fill="#B8BCCA"/>
</svg>
