<svg width="64" height="64" viewBox="0 0 64 64" fill="none" xmlns="http://www.w3.org/2000/svg">
<path d="M1.1439 22.857C0.512207 22.857 0 23.3686 0 23.9999V61.7141C0.000125112 62.9765 1.02429 63.9999 2.28779 63.9999H40.0357C40.6674 63.9999 41.1796 63.4882 41.1796 62.857C41.1796 62.2259 40.6676 61.7141 40.0357 61.7141H3.43169C2.8 61.7141 2.28779 61.2025 2.28779 60.5712V23.9999C2.28779 23.3687 1.77571 22.857 1.1439 22.857Z" fill="#12CD86"/>
<path d="M10.2951 26.2857C9.66343 26.2857 9.15122 26.7973 9.15122 27.4286V30.8572C8.51953 30.8572 8.00732 31.3688 8.00732 32.0001V49.143C8.00732 49.7741 8.51941 50.2858 9.15122 50.2858V53.7145C9.15122 54.3456 9.6633 54.8573 10.2951 54.8573C10.9268 54.8573 11.439 54.3457 11.439 53.7145V50.2858C12.0707 50.2858 12.5829 49.7742 12.5829 49.143V32C12.5829 31.3688 12.0708 30.8571 11.439 30.8571V27.4285C11.439 26.7973 10.9269 26.2857 10.2951 26.2857Z" fill="#12CD86"/>
<path d="M19.446 36.5713C18.8143 36.5713 18.3021 37.0829 18.3021 37.7142V45.7142C17.6704 45.7142 17.1582 46.2258 17.1582 46.857V51.4284C17.1582 52.0595 17.6703 52.5713 18.3021 52.5713V55.9999C18.3021 56.631 18.8142 57.1428 19.446 57.1428C20.0778 57.1428 20.5899 56.6312 20.5899 55.9999V52.5713C21.2216 52.5713 21.7338 52.0597 21.7338 51.4284V46.857C21.7338 46.2259 21.2217 45.7142 20.5899 45.7142V37.7142C20.5899 37.083 20.0778 36.5713 19.446 36.5713Z" fill="#12CD86"/>
<path d="M28.5969 54.857C29.2286 54.857 29.7408 54.3454 29.7408 53.7141V50.2855C30.3725 50.2855 30.8847 49.7739 30.8847 49.1426V38.8569C30.8847 38.2257 30.3726 37.714 29.7408 37.714V31.9999C29.7408 31.3687 29.2287 30.857 28.5969 30.857C27.9651 30.857 27.453 31.3686 27.453 31.9999V37.7141C26.8213 37.7141 26.3091 38.2257 26.3091 38.857V49.1427C26.3091 49.7739 26.8212 50.2856 27.453 50.2856V53.7142C27.453 54.3454 27.9652 54.857 28.5969 54.857Z" fill="#12CD86"/>
<path d="M37.7482 52.5715C38.3799 52.5715 38.8921 52.0599 38.8921 51.4286V48.0001C39.5238 48.0001 40.036 47.4885 40.036 46.8573V33.143C40.036 32.5119 39.5239 32.0001 38.8921 32.0001V26.2859C38.8921 25.6548 38.3801 25.143 37.7482 25.143C37.1166 25.143 36.6043 25.6546 36.6043 26.2859V32.0001C35.9727 32.0001 35.4604 32.5118 35.4604 33.143V46.8573C35.4604 47.4884 35.9725 48.0001 36.6043 48.0001V51.4288C36.6043 52.0599 37.1164 52.5715 37.7482 52.5715Z" fill="#12CD86"/>
<path d="M51.4746 2.04584C52.6457 3.28884 53.6598 4.67059 54.4944 6.16009C55.2265 5.92009 55.9243 5.65721 56.5877 5.37146C55.0484 4.02809 53.3271 2.90859 51.4746 2.04584Z" fill="#12CD86"/>
<path d="M42.3237 43.4287C43.2503 43.4287 44.6801 40.7087 45.6981 35.5658C44.5885 35.4858 43.4675 35.4287 42.3237 35.4287V43.4287Z" fill="#12CD86"/>
<path d="M20.647 20.5713H26.3434C26.4443 16.3138 27.3769 12.1171 29.0888 8.21709C28.1463 7.88584 27.2222 7.50434 26.3205 7.07422C22.9146 10.7763 20.9081 15.5497 20.647 20.5713Z" fill="#12CD86"/>
<path d="M46.8874 22.857H37.7593C39.6482 22.8676 41.1751 24.3982 41.1795 26.2856V30.5942C41.9066 31.2422 42.3227 32.1694 42.3234 33.1429C43.5931 33.1429 44.8514 33.2115 46.0981 33.3142C46.5934 29.8499 46.8571 26.3564 46.8874 22.857Z" fill="#12CD86"/>
<path d="M33.1724 34.0912V33.1426C33.173 32.1691 33.5891 31.2421 34.3163 30.594V26.2854C34.3201 25.3011 34.7447 24.3654 35.4831 23.714C35.4831 23.4282 35.4717 23.1426 35.4717 22.8569H28.6313C28.6935 24.8056 28.9309 26.7449 29.3406 28.6511C30.9088 29.0041 32.0243 30.3936 32.0288 31.9997V34.354C32.4061 34.2512 32.7836 34.1712 33.1724 34.0912Z" fill="#12CD86"/>
<path d="M25.1653 35.0056V31.9999C25.167 30.7021 25.902 29.5166 27.0641 28.937C26.6507 26.9346 26.4096 24.9005 26.3434 22.857H20.647C20.8768 27.2724 22.4535 31.5117 25.1653 35.0056Z" fill="#12CD86"/>
<path d="M38.9492 7.86287C40.0588 7.94287 41.1798 8 42.3236 8C43.4675 8 44.5885 7.94287 45.698 7.86287C44.6801 2.72 43.2502 0 42.3236 0C41.3972 0 39.9673 2.72 38.9492 7.86287Z" fill="#12CD86"/>
<path d="M45.9153 0.777161C46.9135 2.95629 47.6174 5.25841 48.0085 7.62291C49.4447 7.43141 50.8691 7.16054 52.2752 6.81154C50.8397 4.18454 48.6152 2.07391 45.9153 0.777161Z" fill="#12CD86"/>
<path d="M30.1527 6.16009C30.9873 4.67059 32.0015 3.28884 33.1725 2.04584C31.32 2.90859 29.5987 4.02821 28.0593 5.37159C28.7229 5.65721 29.4207 5.92009 30.1527 6.16009Z" fill="#12CD86"/>
<path d="M52.2752 36.617C50.8691 36.2679 49.4447 35.997 48.0085 35.8057C47.6174 38.1702 46.9135 40.4722 45.9153 42.6514C48.6152 41.3547 50.8397 39.244 52.2752 36.617Z" fill="#12CD86"/>
<path d="M48.3862 33.5541C50.0675 33.7782 51.7331 34.1065 53.3736 34.537C55.0242 30.8584 55.9225 26.8872 56.0159 22.857H49.1756C49.1473 26.4361 48.8837 30.0096 48.3862 33.5541Z" fill="#12CD86"/>
<path d="M53.3736 8.89136C51.7331 9.32186 50.0675 9.65011 48.3862 9.87423C48.8835 13.4189 49.1473 16.9922 49.1756 20.5714H56.0159C55.9226 16.5411 55.0242 12.5701 53.3736 8.89136Z" fill="#12CD86"/>
<path d="M36.261 9.87423C34.5798 9.65011 32.9142 9.32186 31.2737 8.89136C29.6231 12.57 28.7248 16.5411 28.6313 20.5714H35.4717C35.5001 16.9922 35.7637 13.4189 36.261 9.87423Z" fill="#12CD86"/>
<path d="M54.4944 37.2687C53.6598 38.7582 52.6457 40.1399 51.4746 41.3829C53.3271 40.5202 55.0484 39.4006 56.5878 38.0572C55.9243 37.7714 55.2266 37.5087 54.4944 37.2687Z" fill="#12CD86"/>
<path d="M58.3263 7.07422C57.4248 7.50434 56.5007 7.88584 55.5581 8.21709C57.27 12.1172 58.2026 16.314 58.3034 20.5713H63.9999C63.7389 15.5497 61.7324 10.7763 58.3263 7.07422Z" fill="#12CD86"/>
<path d="M63.9999 22.857H58.3034C58.2026 27.1145 57.27 31.3112 55.5581 35.2112C56.5006 35.5425 57.4246 35.924 58.3263 36.3541C61.7324 32.6521 63.7389 27.8787 63.9999 22.857Z" fill="#12CD86"/>
<path d="M37.7593 20.5713H46.8874C46.8571 17.0719 46.5934 13.5784 46.0981 10.1142C44.8512 10.2171 43.593 10.2856 42.3234 10.2856C41.0536 10.2856 39.7953 10.2169 38.5486 10.1142C38.0533 13.5786 37.7897 17.0721 37.7593 20.5713Z" fill="#12CD86"/>
<path d="M32.3716 6.81135C33.7777 7.16048 35.2021 7.43135 36.6383 7.62273C37.0294 5.25823 37.7332 2.95623 38.7315 0.776978C36.0317 2.07385 33.8072 4.18448 32.3716 6.81135Z" fill="#12CD86"/>
</svg>
