<svg width="14" height="19" viewBox="0 0 14 19" fill="none" xmlns="http://www.w3.org/2000/svg">
<path d="M6.835 8.86825C6.18759 8.86825 5.56669 8.62237 5.1089 8.18471C4.65111 7.74705 4.39393 7.15345 4.39393 6.5345C4.39393 5.91555 4.65111 5.32195 5.1089 4.88429C5.56669 4.44663 6.18759 4.20075 6.835 4.20075C7.48241 4.20075 8.10331 4.44663 8.5611 4.88429C9.01889 5.32195 9.27607 5.91555 9.27607 6.5345C9.27607 6.84097 9.21293 7.14444 9.09026 7.42759C8.96758 7.71073 8.78777 7.968 8.5611 8.18471C8.33442 8.40142 8.06532 8.57332 7.76916 8.6906C7.47299 8.80789 7.15557 8.86825 6.835 8.86825ZM6.835 0C5.02225 0 3.28374 0.688454 2.00192 1.91391C0.720114 3.13937 0 4.80144 0 6.5345C0 11.4354 6.835 18.67 6.835 18.67C6.835 18.67 13.67 11.4354 13.67 6.5345C13.67 4.80144 12.9499 3.13937 11.6681 1.91391C10.3863 0.688454 8.64775 0 6.835 0Z" fill="white"/>
</svg>
