<svg width="87" height="80" viewBox="0 0 87 80" fill="none" xmlns="http://www.w3.org/2000/svg">
<path fill-rule="evenodd" clip-rule="evenodd" d="M84.6607 20.8789C85.096 21.4273 85.4369 22.0935 85.5874 22.8444C85.7905 23.8161 85.1558 25.0197 84.5737 25.7393C83.9915 26.4883 82.907 26.7846 82.1345 26.2546C81.3619 25.7246 80.8668 24.3995 80.1741 23.3744C79.7696 22.7984 79.3018 22.3126 78.8266 21.95C76.1625 19.8465 72.7712 21.1292 69.4652 20.4575C67.1584 19.9845 64.8624 18.549 63.8451 16.5798C63.2194 15.4351 63.0616 14.0935 62.9474 13.2175C62.9075 12.7187 62.8603 12.3451 62.6373 10.3778C62.3707 11.6384 62.1023 12.9009 62.1077 14.237C62.1077 15.7277 62.3779 17.292 63.1178 18.5656C64.2295 20.5072 66.3459 21.8727 68.6836 22.3162C72.0223 22.9567 75.8071 21.7549 78.0758 23.8106C78.4893 24.1713 78.8665 24.6516 79.1512 25.1927C79.7225 26.1497 80.1342 27.2539 80.9339 27.8778C82.0329 28.7023 83.8428 28.5624 85.1014 27.749C86.204 27.0202 86.8406 25.7117 86.9693 24.1345C87.0455 23.0192 86.8859 21.7715 86.0916 20.2771L74.2765 5.78794C75.2939 4.90088 76.3131 3.9807 77.1527 2.9317C77.8654 2.02992 78.4276 0.999317 79.0207 0C77.2942 0.329425 75.5659 0.625723 73.7342 0.577874C72.3578 0.550268 70.9595 0.301818 69.7789 0.749026C68.7833 1.10974 67.9509 1.97287 67.1511 2.83968C65.178 2.444 63.2375 2.01703 61.3333 2.15138C58.4807 2.30781 55.7295 3.71017 52.7989 4.23467C51.2247 4.53833 49.6016 4.5917 48.1182 4.18682C47.1207 3.89605 46.1922 3.41939 45.2637 2.94458C45.844 3.6844 46.4552 4.45552 47.1987 4.95425C48.1508 5.5855 49.3314 5.88548 50.5211 5.99958C52.2603 6.13761 53.9487 5.96093 55.5917 5.50452C57.2602 5.08124 58.8851 4.34325 60.5172 4.10401C62.8875 3.7709 65.3412 4.37454 67.7623 4.97634C68.3825 4.10217 68.9683 3.25928 69.846 2.7679C70.2867 2.50841 70.8417 2.37591 71.3658 2.30597C72.6588 2.11458 73.941 2.23052 75.2195 2.37959C74.8042 2.79735 74.3871 3.24456 73.941 3.65864C73.2065 4.34141 72.4448 5.02235 71.7121 5.70512L84.4322 20.5844C84.5138 20.6875 84.6027 20.7832 84.6607 20.8789Z" fill="white"/>
<path fill-rule="evenodd" clip-rule="evenodd" d="M46.6861 10.8802C48.1932 10.03 49.6984 9.34718 51.2907 8.70857C53.5086 7.80679 55.9333 7.29517 58.3254 6.78171C56.151 6.59215 54.0074 6.44125 51.9291 6.77067C49.0347 7.2142 46.3398 8.69753 43.5361 9.79807C41.1168 10.6851 38.6468 11.3642 36.1477 11.4618C33.3114 11.5685 30.4551 10.9888 27.6006 10.3778C30.047 11.5409 32.5279 12.5089 35.1793 13.142C37.2341 13.6279 39.4484 13.753 41.4668 13.28C43.3184 12.8291 45.0014 11.8556 46.6861 10.8802Z" fill="white"/>
<path fill-rule="evenodd" clip-rule="evenodd" d="M55.8446 32.3591C58.1604 28.7943 60.2696 23.4996 63.4614 20.785C60.0284 22.4855 57.562 26.7699 54.7274 29.4016C52.4932 25.6749 47.9031 24.2578 44.0312 25.9583C47.1433 25.7154 50.8175 27.2944 52.4533 30.0089C54.0891 32.7621 54.0492 36.2073 52.3336 38.8795C60.7955 37.6648 69.3771 38.1488 77.6377 40.3775C70.7318 37.4201 63.309 35.841 55.8446 35.6386C56.0459 34.5454 56.0459 33.4522 55.8446 32.3591Z" fill="white"/>
<path fill-rule="evenodd" clip-rule="evenodd" d="M25.3694 25.2921C27.3552 24.1216 29.3864 22.9106 31.4901 22.0199C34.4189 20.7629 37.6361 20.0194 40.808 19.2759C37.9063 19.079 35.0482 18.9318 32.2916 19.425C28.4524 20.0894 24.9015 22.1322 21.1965 23.667C17.9992 24.9093 14.7258 25.8755 11.4034 26.0669C7.63131 26.2804 3.81384 25.5829 0 24.8393C3.28248 26.3282 6.56677 27.8152 10.1104 28.5918C12.8579 29.1881 15.8067 29.2967 18.4835 28.6176C20.9335 27.9698 23.1515 26.63 25.3694 25.2921Z" fill="white"/>
<path fill-rule="evenodd" clip-rule="evenodd" d="M39.3593 16.9979C40.7466 16.5691 42.1684 16.1182 43.5884 15.879C45.5688 15.5348 47.6525 15.5459 49.7109 15.5514C47.9536 15.0067 46.2162 14.4987 44.4517 14.3993C41.9943 14.2466 39.5207 14.9846 37.0235 15.3876C34.8799 15.6858 32.729 15.8017 30.658 15.4336C28.3077 15.014 26.0589 14.0276 23.8174 13.0135C25.6255 14.4085 27.4354 15.8035 29.5046 16.7973C31.1114 17.5648 32.9104 18.0617 34.6532 18.0359C36.2527 17.9991 37.8069 17.4985 39.3593 16.9979Z" fill="white"/>
<path d="M0.0018153 65.447V65.0071H0.594837C1.23501 65.0071 1.53062 64.8212 1.82803 64.4274C2.03296 64.1716 2.12546 63.5698 2.12546 62.5963V52.0951C2.12546 51.1216 2.0112 50.518 1.82803 50.264C1.50885 49.8701 1.23501 49.6622 0.57126 49.6622H0V49.2444H4.66076H7.21966C7.21966 49.2444 13.5253 48.8966 13.5253 53.4865C13.5253 53.4865 13.7774 56.0832 10.6926 57.1488C10.6926 57.1488 14.0966 57.8205 14.0966 61.089C14.0966 64.3336 11.2403 65.447 7.22147 65.447H4.66258H0.0018153ZM4.66258 64.2875H6.87871C8.18083 64.2875 11.5848 64.1477 11.5848 61.1589C11.5848 59.8376 10.854 57.5426 8.02124 57.5426V56.477C9.46118 56.477 11.1967 56.2212 11.1967 53.5104C11.1967 50.3118 8.40933 50.3118 6.87871 50.3118H4.66258V64.2875Z" fill="white"/>
<path d="M20.7894 65.4471H17.2948V65.0072H17.8878C18.528 65.0072 18.8236 64.8213 19.121 64.4275C19.3259 64.1717 19.4184 63.5699 19.4184 62.5963V52.0952C19.4184 51.1217 19.3042 50.518 19.121 50.2641C18.8018 49.8702 18.528 49.6623 17.8642 49.6623H17.293V49.2445H21.9755V64.2895H30.2905V65.4489H21.9755H20.7894V65.4471Z" fill="white"/>
<path d="M49.5352 65.0165H50.0938V65.4472H43.4164V65.0165H43.9967C45.783 65.0165 45.6724 63.7467 45.3587 62.7271L41.3163 52.8683L37.1398 62.659C36.7607 63.6105 37.6312 65.0165 38.6577 65.0165H39.2163V65.4472H33.6777V65.0165H34.2363C34.862 65.0165 35.6436 63.5884 36.068 62.7271L41.6953 49.2428H42.1868L47.7924 62.9093C48.1279 63.7025 48.73 65.0165 49.5352 65.0165Z" fill="white"/>
<path d="M60.7086 65.4471C56.2582 65.4471 52.6602 61.816 52.6602 57.3458C52.6602 52.8737 56.26 49.2445 60.7086 49.2445C61.6027 49.2445 62.3444 49.3991 62.9773 49.688C64.1561 50.242 65.5725 51.1051 65.5725 49.2445H65.9642V53.2289H65.2225C64.2413 51.037 62.8449 50.0635 60.7068 50.0635C57.5005 50.0635 54.8382 52.8755 54.8382 57.3458C54.8382 61.8179 57.4986 64.6502 60.7068 64.6502C62.8449 64.6502 64.5678 63.2552 65.5489 61.0633L66.3994 61.4406C65.1155 63.9637 63.5232 65.4471 60.7086 65.4471Z" fill="white"/>
<path d="M82.214 51.3058C83.1733 50.5642 82.9448 49.6606 81.8948 49.6606H81.3235V49.2428H86.989V49.6606H86.6916C85.6869 49.6606 79.4502 54.3903 76.8913 56.3595L83.6068 63.3142C84.1998 63.9399 86.0514 65.0073 86.8729 65.0073H86.9835V65.4472H80.6144V65.0073H80.8883C81.9619 65.0073 80.7523 63.8718 79.8836 63.0142L74.6062 57.5668V65.449H69.9237V65.0092H70.5167C71.1569 65.0092 71.4543 64.8233 71.7499 64.4295C71.9548 64.1736 72.0473 63.5718 72.0473 62.5983V52.0972C72.0473 51.1236 71.9331 50.52 71.7499 50.266C71.4307 49.8722 71.1551 49.6642 70.4931 49.6642H69.9219V49.2465H74.6044V56.9668L82.214 51.3058Z" fill="white"/>
<path d="M14.9869 70.8354C15.4403 70.8354 15.8175 70.9146 16.1385 71.06C16.737 71.3416 17.4551 71.7796 17.4551 70.8354H17.6546V72.8562H17.2792C16.7805 71.7446 16.0732 71.2495 14.9887 71.2495C13.362 71.2495 12.6874 72.8893 15.3206 74.2585C19.1707 76.178 17.8541 79.0085 15.0431 79.0085C14.5571 79.0085 14.2125 78.9404 13.8915 78.806C13.2822 78.5374 12.564 78.1104 12.5858 79.0527H12.3754L12.3428 77.0319H12.7182C13.2387 78.1325 13.9677 78.5926 15.0413 78.5926C16.5357 78.5926 17.4986 76.5719 14.3322 75.1217C11.2365 73.6107 12.7291 70.8354 14.9869 70.8354Z" fill="#12CD86"/>
<path d="M26.9908 70.8354V71.3765H23.7918V77.6098C23.7918 78.103 23.8389 78.4104 23.9423 78.5392C24.0928 78.7398 24.2433 78.8337 24.568 78.8337H24.869V79.0563H21.4034V78.8337H21.7044C22.029 78.8337 22.1795 78.7398 22.3301 78.5392C22.4352 78.4104 22.4806 78.1049 22.4806 77.6098V71.3765H19.2852V70.8354H26.9908Z" fill="#12CD86"/>
<path d="M34.836 78.8375H35.1189V79.0565H31.7312V78.8375H32.025C32.9318 78.8375 32.8755 78.1933 32.7159 77.6762L30.6648 72.6759L28.5466 77.6431C28.3544 78.1252 28.7951 78.8393 29.3174 78.8393H29.6003V79.0583H26.793V78.8393H27.0759C27.3932 78.8393 27.7904 78.1142 28.0044 77.678L30.8589 70.8374H31.1073L33.951 77.77C34.1214 78.1712 34.4279 78.8375 34.836 78.8375Z" fill="#12CD86"/>
<path d="M38.4055 79.0563H36.6318V78.8337H36.9329C37.2575 78.8337 37.408 78.7398 37.5585 78.5392C37.6619 78.4104 37.7091 78.1049 37.7091 77.6098V72.282C37.7091 71.7888 37.651 71.4814 37.5585 71.3526C37.3953 71.152 37.2575 71.0471 36.922 71.0471H36.6318V70.8354H39.0076V78.4674H43.2258V79.0545H39.0076H38.4055V79.0563Z" fill="#12CD86"/>
<path d="M46.4366 79.0563H44.6629V78.8337H44.964C45.2886 78.8337 45.4391 78.7398 45.5897 78.5392C45.6948 78.4104 45.7402 78.1049 45.7402 77.6098V72.282C45.7402 71.7888 45.6821 71.4814 45.5897 71.3526C45.4264 71.152 45.2886 71.0471 44.9513 71.0471H44.6611V70.8354H47.0369V78.4674H51.2551V79.0545H47.0369H46.4366V79.0563Z" fill="#12CD86"/>
<path d="M56.208 71.0471H55.9069C55.5823 71.0471 55.4318 71.1538 55.2813 71.3526C55.1761 71.4814 55.1307 71.7869 55.1307 72.282L55.1199 77.6098C55.1199 78.103 55.1779 78.4104 55.2704 78.5392C55.4336 78.7398 55.5714 78.8337 55.9069 78.8337H56.1971V79.0563H52.7314V78.8337H53.0325C53.3571 78.8337 53.5076 78.7398 53.6582 78.5392C53.7633 78.4104 53.8087 78.1049 53.8087 77.6098V72.282C53.8087 71.7888 53.7506 71.4814 53.6582 71.3526C53.4968 71.152 53.3571 71.0471 53.0216 71.0471H52.7314V70.8354H56.208V71.0471Z" fill="#12CD86"/>
<path d="M61.9366 70.8354C64.1836 70.8354 66.0207 72.6777 66.0207 74.945C66.0207 77.2123 64.1836 79.0545 61.9366 79.0545C59.6788 79.0545 57.8525 77.2123 57.8525 74.945C57.8525 72.6777 59.6806 70.8354 61.9366 70.8354ZM61.904 78.6515C63.5307 78.6515 64.8473 77.2141 64.8473 74.945C64.8473 72.6758 63.5307 71.2495 61.904 71.2495C60.2772 71.2495 58.9606 72.6758 58.9606 74.945C58.9606 77.2141 60.2772 78.6515 61.904 78.6515Z" fill="#12CD86"/>
<path d="M74.5603 77.1037V72.282C74.5603 71.7888 74.5023 71.4814 74.4098 71.3526C74.2466 71.152 74.1088 71.0471 73.7715 71.0471H73.4813V70.8354H75.2549V73.3052L75.2441 79.0563H74.5603L69.3918 71.5532V73.3052L69.3809 77.6098C69.3809 78.103 69.4281 78.4104 69.5314 78.5392C69.6928 78.7398 69.8325 78.8337 70.168 78.8337H70.4581V79.0563H67.6182V78.8337H67.9192C68.2438 78.8337 68.3944 78.7398 68.5449 78.5392C68.6501 78.4104 68.6954 78.1049 68.6954 77.6098V72.282C68.6954 71.7888 68.6374 71.4814 68.5449 71.3526C68.3835 71.152 68.2438 71.0471 67.9083 71.0471H67.6182V70.8354H68.8931H69.3918H70.11L74.5603 77.1037Z" fill="#12CD86"/>
</svg>
