<?xml version="1.0" encoding="utf-8"?>
<!-- Generator: Adobe Illustrator 26.0.0, SVG Export Plug-In . SVG Version: 6.00 Build 0)  -->
<svg version="1.1" id="Layer_1" xmlns="http://www.w3.org/2000/svg" xmlns:xlink="http://www.w3.org/1999/xlink" x="0px" y="0px"
	 viewBox="0 0 1080 489" style="enable-background:new 0 0 1080 489;" xml:space="preserve">
<g>
	<g>
		<path style="fill-rule:evenodd;clip-rule:evenodd;" d="M1045.52,252.87c5.35,6.68,9.58,14.7,11.36,23.84
			c2.45,11.81-5.35,26.29-12.47,34.97c-7.13,9.13-20.49,12.7-30.07,6.24s-15.59-22.5-24.06-34.75c-4.9-6.91-10.69-12.92-16.48-17.15
			c-32.75-25.39-74.4-10.02-114.94-18.04c-28.29-5.79-56.58-23.17-69.05-47c-7.8-13.81-9.58-30.07-11.14-40.76
			c-0.45-6.01-1.11-10.47-3.79-34.3c-3.34,15.37-6.68,30.52-6.46,46.78c0,18.04,3.34,36.98,12.47,52.35
			c13.59,23.39,39.65,40.1,68.39,45.44c40.99,7.8,87.54-6.68,115.39,18.04c5.12,4.46,9.8,10.25,13.14,16.71
			c7.13,11.58,12.03,24.95,21.83,32.52c13.59,10.02,35.64,8.24,51.23-1.56c13.59-8.91,21.38-24.73,22.94-43.66
			c0.89-13.59-1.11-28.51-10.69-46.78L917.88,70.43c12.47-10.69,24.95-21.83,35.42-34.53c8.69-10.92,15.59-23.39,22.94-35.42
			c-21.16,4.01-42.32,7.57-65.05,6.91c-16.71-0.45-33.86-3.56-48.34,2c-12.25,4.46-22.5,14.7-32.3,25.39
			c-24.28-4.68-48.12-10.02-71.51-8.24c-34.97,2-68.83,18.93-104.92,25.17c-19.38,3.56-39.21,4.23-57.47-0.67
			c-12.25-3.56-23.61-9.36-34.97-15.15c7.13,8.91,14.7,18.27,23.84,24.28c11.58,7.57,26.29,11.36,40.76,12.7
			c21.38,1.78,42.1-0.45,62.37-6.01c20.49-5.12,40.54-14.03,60.59-16.93c29.18-4.01,59.25,3.34,89.1,10.47
			c7.57-10.69,14.92-20.72,25.62-26.73c5.35-3.12,12.25-4.68,18.71-5.57c15.82-2.23,31.63-0.89,47.22,0.89
			c-5.12,5.12-10.25,10.47-15.59,15.37c-8.91,8.24-18.27,16.48-27.4,24.73l156.15,180.21
			C1043.74,250.64,1044.85,251.75,1045.52,252.87L1045.52,252.87z"/>
		<path style="fill-rule:evenodd;clip-rule:evenodd;" d="M579.06,131.91c18.49-10.25,36.98-18.49,56.58-26.29
			c27.18-10.92,57.03-17.15,86.43-23.39c-26.73-2.23-53.02-4.23-78.63-0.22c-35.64,5.35-68.61,23.39-103.14,36.53
			c-29.63,10.69-60.14,18.93-90.66,20.05c-34.75,1.34-69.95-5.79-104.92-13.14c30.07,14.03,60.59,25.84,93.11,33.41
			c25.17,5.79,52.35,7.35,77.3,1.78C537.85,155.52,558.35,143.72,579.06,131.91L579.06,131.91z"/>
		<path style="fill-rule:evenodd;clip-rule:evenodd;" d="M691.56,391.87c28.51-43.21,54.35-107.15,93.56-140.11
			c-42.1,20.49-72.4,72.4-107.37,104.25c-27.4-45-83.76-62.37-131.43-41.66c38.31-2.9,83.31,16.26,103.36,49.01
			c20.05,33.41,19.6,75.07-1.56,107.37c104.03-14.7,209.39-8.91,310.75,18.04C874,452.9,782.89,433.97,691.11,431.3
			C694.23,418.38,694.23,405.23,691.56,391.87L691.56,391.87z"/>
		<path style="fill-rule:evenodd;clip-rule:evenodd;" d="M317.32,306.33c24.5-14.26,49.45-28.74,75.29-39.65
			c36.09-15.15,75.51-24.28,114.5-33.19c-35.64-2.45-70.84-4.23-104.7,1.78c-47.22,8.02-90.89,32.75-136.33,51.23
			c-39.21,15.15-79.52,26.73-120.29,28.96c-46.33,2.9-93.34-5.57-140.11-14.48c40.32,18.04,80.64,36.09,124.3,45.44
			c33.86,7.13,69.95,8.46,102.91,0.22C262.75,338.85,290.15,322.59,317.32,306.33L317.32,306.33z"/>
		<path style="fill-rule:evenodd;clip-rule:evenodd;" d="M489.07,206.09c17.15-5.12,34.53-10.69,51.9-13.59
			c24.28-4.23,49.9-4.01,75.29-4.01c-21.61-6.68-42.99-12.7-64.6-14.03c-30.07-1.78-60.59,7.13-91.33,12.03
			c-26.29,3.56-52.79,4.9-78.19,0.45c-28.96-5.12-56.58-16.93-83.98-29.18c22.28,16.93,44.55,33.86,69.95,45.89
			c19.83,9.36,41.88,15.37,63.26,14.92C450.98,218.12,470.14,212.1,489.07,206.09L489.07,206.09z"/>
	</g>
</g>
</svg>
