<svg width="64" height="64" viewBox="0 0 64 64" fill="none" xmlns="http://www.w3.org/2000/svg">
<path d="M26.0741 28.3023H37.9259C38.5804 28.3023 39.1111 27.7868 39.1111 27.1508V15.6354C39.1111 14.9995 39.6416 14.4838 40.2963 14.4838H44.481C44.96 14.4837 45.3918 14.2035 45.5755 13.7737C45.759 13.3439 45.6583 12.8489 45.3203 12.5194L32.8295 0.337137C32.3668 -0.112379 31.6165 -0.112379 31.1537 0.337137L18.6075 12.4801C18.2689 12.8083 18.1664 13.3021 18.3479 13.7321C18.5292 14.162 18.9589 14.444 19.4371 14.4469L23.7037 14.4838C24.3582 14.4838 24.8889 14.9994 24.8889 15.6354V27.1509C24.8889 27.7868 25.4196 28.3023 26.0741 28.3023Z" fill="#12CD86"/>
<path d="M4.74123 40.9691H11.8522C12.5067 40.9691 13.0374 40.4535 13.0374 39.8175V27.1504C13.0374 26.5145 13.568 25.9989 14.2226 25.9989H14.4597C14.9348 25.9994 15.3643 25.7243 15.5509 25.2999C15.7376 24.8754 15.6454 24.3837 15.3167 24.0506L9.17866 17.823C8.95518 17.597 8.64667 17.4694 8.32415 17.4694C8.00164 17.4694 7.69312 17.5971 7.46964 17.823L1.29234 24.0482C0.962439 24.3807 0.868977 24.8726 1.05486 25.2977C1.24088 25.7228 1.67021 25.9989 2.14569 25.9989H2.37085C3.02534 25.9989 3.55604 26.5144 3.55604 27.1504V39.8175C3.55604 40.4534 4.08661 40.9691 4.74123 40.9691Z" fill="#12CD86"/>
<path d="M52.1481 40.9691H59.2591C59.9136 40.9691 60.4443 40.4535 60.4443 39.8175V27.1504C60.4443 26.5145 60.9749 25.9989 61.6295 25.9989H61.8666C62.3417 25.9994 62.7711 25.7243 62.9578 25.2999C63.1444 24.8754 63.0523 24.3837 62.7235 24.0506L56.5855 17.823C56.362 17.597 56.0535 17.4694 55.731 17.4694C55.4085 17.4694 55.1 17.5971 54.8765 17.823L48.6993 24.0482C48.3694 24.3807 48.276 24.8726 48.4618 25.2977C48.6479 25.7228 49.0772 25.9989 49.5527 25.9989H49.7778C50.4323 25.9989 50.963 26.5144 50.963 27.1504V39.8175C50.9629 40.4534 51.4936 40.9691 52.1481 40.9691Z" fill="#12CD86"/>
<path d="M63.8456 63.4104C64.0599 63.0478 64.0503 62.5997 63.8207 62.2462L57.2561 51.8823C57.0393 51.5426 56.6578 51.3351 56.2463 51.333H40.9387C40.5275 51.3349 40.1461 51.542 39.9289 51.8811L33.3642 62.2451C33.1396 62.5999 33.1296 63.045 33.3383 63.4088C33.547 63.7728 33.9417 63.9988 34.3704 63.9999H62.8146C63.2439 64.0035 63.6403 63.7768 63.8456 63.4104ZM47.4074 55.9391H42.9249L41.1472 58.7501C40.9375 59.1245 40.5321 59.3558 40.0934 59.3511C39.6547 59.3465 39.2544 59.1068 39.0531 58.728C38.8518 58.3493 38.8822 57.8935 39.1324 57.5432L41.2657 54.1841C41.4792 53.8468 41.8562 53.6399 42.2636 53.636H47.4072C48.0617 53.636 48.5924 54.1515 48.5924 54.7876C48.5924 55.4235 48.0619 55.9391 47.4074 55.9391Z" fill="#12CD86"/>
<path d="M16.7472 48.4403C16.9525 48.8068 17.3489 49.0334 17.7782 49.0298H46.2224C46.6515 49.0297 47.0468 48.8043 47.2563 48.4405C47.4658 48.0768 47.4566 47.6313 47.2322 47.2761L40.6676 36.9122C40.4499 36.5715 40.067 36.3638 39.6543 36.3629H24.3465C23.9353 36.3648 23.5539 36.5719 23.3367 36.911L16.7721 47.275C16.542 47.6289 16.5324 48.0774 16.7472 48.4403ZM22.5343 42.5733L24.6616 39.2142C24.8773 38.8735 25.2596 38.6659 25.6714 38.666H30.8151C31.4696 38.666 32.0003 39.1816 32.0003 39.8176C32.0003 40.4535 31.4697 40.9692 30.8151 40.9692H26.3328L24.5551 43.78C24.3453 44.1544 23.94 44.3857 23.5012 44.381C23.0625 44.3764 22.6622 44.1367 22.4609 43.7579C22.2596 43.3792 22.2901 42.9234 22.5401 42.5731H22.5343V42.5733Z" fill="#12CD86"/>
<path d="M0.154638 63.4104C0.359969 63.7769 0.756372 64.0035 1.1857 63.9999H29.6299C30.0589 63.9998 30.4543 63.7744 30.6638 63.4106C30.8733 63.0469 30.8641 62.6014 30.6397 62.2462L24.0751 51.8823C23.8574 51.5416 23.4745 51.3339 23.0618 51.333H7.75396C7.34278 51.3349 6.96141 51.542 6.74416 51.8811L0.179526 62.2449C-0.0505637 62.5989 -0.0601562 63.0475 0.154638 63.4104ZM5.94176 57.5432L8.07505 54.1841C8.28971 53.8452 8.66926 53.6379 9.07889 53.636H14.2225C14.877 53.636 15.4077 54.1515 15.4077 54.7876C15.4077 55.4235 14.8772 55.9391 14.2225 55.9391H9.74025L7.96253 58.7501C7.75279 59.1245 7.34745 59.3558 6.90865 59.3511C6.46999 59.3465 6.0697 59.1068 5.86839 58.728C5.66708 58.3493 5.69754 57.8935 5.94759 57.5432H5.94176Z" fill="#12CD86"/>
</svg>
