<svg width="12" height="7" viewBox="0 0 12 7" fill="none" xmlns="http://www.w3.org/2000/svg">
<path d="M9.60311 6.32966L5.63556 2.53923L1.84514 6.50678C1.75469 6.60145 1.64649 6.67738 1.5267 6.73023C1.40691 6.78309 1.27788 6.81183 1.14699 6.81482C1.01609 6.81781 0.885886 6.79498 0.763809 6.74765C0.641733 6.70032 0.530174 6.62941 0.435503 6.53896C0.340832 6.44852 0.264904 6.34031 0.212051 6.22053C0.159198 6.10074 0.130457 5.97171 0.127469 5.84081C0.12448 5.70992 0.147302 5.57971 0.194634 5.45764C0.241965 5.33556 0.312875 5.224 0.40332 5.12933L4.88736 0.435762C4.97773 0.340971 5.08591 0.264934 5.20571 0.212005C5.32551 0.159075 5.45457 0.130292 5.5855 0.127302C5.71643 0.124313 5.84667 0.147177 5.96876 0.194584C6.09085 0.241991 6.20239 0.313011 6.29699 0.403579L10.9906 4.88762C11.0854 4.97799 11.1614 5.08617 11.2143 5.20597C11.2672 5.32577 11.296 5.45482 11.299 5.58576C11.302 5.71669 11.2791 5.84693 11.2317 5.96902C11.1843 6.09111 11.1133 6.20264 11.0227 6.29725C10.6415 6.68605 10.0019 6.71066 9.60311 6.32966Z" fill="#0F3E50"/>
</svg>
