<svg height="512" viewBox="0 0 60 60" width="512" xmlns="http://www.w3.org/2000/svg"><g id="Page-1" fill="none" fill-rule="evenodd"><g id="041---Trade-Agreement" fill="#12CD86" fill-rule="nonzero" transform="translate(-1)"><path id="Shape" d="m6.275 11.471c.63902897.5317844 1.5175585.6718918 2.29029836.3652556s1.31616872-1.0110006 1.41670164-1.8362556h27.018c1.6568542 0 3-1.34314575 3-3v-2c0-1.65685425-1.3431458-3-3-3h-27.018c-.10045161-.82505347-.64358807-1.52932533-1.41603302-1.83613563-.77244494-.3068103-1.65078927-.1671417-2.28996698.36413563l-4.468 3.721c-.51479061.4383295-.81063931 1.08096502-.80890567 1.75708566.00173364.67612063.300874 1.31723054.81790567 1.75291434zm-3.175-5.693 4.457-3.714c.0463924-.04033484.10553332-.06299962.167-.064.04107372.00094668.08153959.01012801.119.027.09817199.04109306.1606805.1386382.157.245v.728c0 .55228475.44771525 1 1 1h28c.5522847 0 1 .44771525 1 1v2c0 .55228475-.4477153 1-1 1h-28c-.55228475 0-1 .44771525-1 1v.728c.00400926.1058727-.05761315.20327586-.155.245-.09465812.0458643-.20753958.0309183-.287-.038l-4.451-3.706c-.06765268-.05684916-.10680073-.14063331-.107-.229-.00058068-.08503049.03593271-.16609022.1-.222z"/><path id="Shape" d="m55.725 10.529c-.639029-.53178436-1.5175585-.67189181-2.2902984-.3652556-.7727398.3066362-1.3161687 1.0110006-1.4167016 1.8362556h-27.018c-1.6568542 0-3 1.3431458-3 3v2c0 1.6568542 1.3431458 3 3 3h27.018c.0972716.8269145.6401981 1.5338782 1.4140091 1.8412311.7738111.3073529 1.6538496.165582 2.2919909-.3692311l4.468-3.721c.5147906-.4383295.8106393-1.080965.8089057-1.7570857-.0017337-.6761206-.300874-1.3172305-.8179057-1.7529143zm3.175 5.693-4.459 3.714c-.0803774.0668449-.192203.0810679-.2867545.0364722s-.1547026-.1399325-.1542455-.2444722v-.728c0-.5522847-.4477153-1-1-1h-28c-.5522847 0-1-.4477153-1-1v-2c0-.5522847.4477153-1 1-1h28c.5522847 0 1-.4477153 1-1v-.728c-.0040093-.1058727.0576131-.2032759.155-.245.0944764-.0469739.2080038-.0319424.287.038l4.449 3.706c.0683992.056467.1083054.1403068.109.229.0005807.0850305-.0359327.1660902-.1.222z"/><path id="Shape" d="m59 27-5.215.008c-1.2344084-.0036706-2.3230624.8079307-2.672 1.992h-3.173c-.462531.0016787-.9189194-.1059084-1.332-.314l-5.377-2.694c-2.6686941-1.3200086-5.8003059-1.3200086-8.469 0l-.263.132-.268-.136c-2.6689461-1.3189302-5.8000539-1.3189302-8.469 0l-5.375 2.693c-.4110034.20945-.8657051.3187566-1.327.319h-6.173c-.3487301-1.1833567-1.43633148-1.9947806-2.67-1.992l-5.217-.008c-1.1045695 0-2 .8954305-2 2v16c0 1.1045695.8954305 2 2 2l5.019.008 3 1.25c-.0462518 1.3101403.6182742 2.5432222 1.738 3.225.550245.3297209 1.1795291.5042341 1.821.505.3036919-.0005503.6060937-.0395266.9-.116.026-.007.05-.02.076-.028.2153683.9600838.8130897 1.790754 1.655 2.3.5503558.3280264 1.1793033.5008142 1.82.5.3036919-.0005503.6060937-.0395266.9-.116.026-.007.049-.02.075-.027.2172561.9611945.8175952 1.7919887 1.662 2.3.8150289.4908119 1.7939197.6311171 2.714.389.023-.006.044-.018.067-.024.2111237.9462179.8000444 1.764926 1.63 2.266l.014.008.028.018c.5483305.3299168 1.1760694.5044807 1.816.505.3036687.0000786.6061079-.0385664.9-.115.6587805-.1706838 1.2540702-.5284133 1.714-1.03l.583.453c.6129233.4733928 1.3655481.7301293 2.14.73.1608953-.0001056.3215979-.011131.481-.033.904913-.1191186 1.7267021-.5892768 2.288-1.309.016-.018.032-.038.046-.057.5778535-.7647658.8229962-1.7301954.68-2.678l.044-.005c.9283614-.1177614 1.7697303-.6057049 2.333-1.353.4760477-.6172488.7347937-1.3745027.736-2.154.2269426.0136025.4546689.0052302.68-.025.9265459-.118359 1.7660238-.6058908 2.328-1.352.481187-.6198531.7422545-1.3822971.742-2.167.0006438-.3996908-.0649097-.7967291-.194-1.175.4919556-.1271369.9487192-.3640659 1.336-.693l9 .008h.006l5.222-.008c1.1045695 0 2-.8954305 2-2v-16c0-1.1045695-.8954305-2-2-2zm-18.657.784 5.365 2.688c.6925556.3478952 1.456975.5287256 2.232.528h3.166l1.557 14.006-6.741-.006c.071149-.3231877.0973962-.6546422.078-.985-.11418-1.1902716-.7331139-2.2744982-1.7-2.978l-10.1-7.064c-1.2769329-.9146154-3.0438578-.6852864-4.045.525l-4.644 5.554c-.8617413 1.0231202-2.3823914 1.1718119-3.426.335-.2369814-.1884755-.3744523-.4752112-.373-.778-.0000883-.2075583.0661302-.4097174.189-.577l4.611-6.589c.7638359-1.0906834 1.7873095-1.9739364 2.978-2.57l4.163-2.086c2.1076281-1.0422215 4.5804378-1.0433306 6.689-.003zm-37.343 1.216 5.217.008c.22588466.0000308.44106389.0962702.59166589.2646237.15060199.1683536.22236919.3928833.19733411.6173763l-1.681 15.117-4.325-.007zm10.784 20.767c-.7605667-.4652397-1.0112911-1.452162-.565-2.224l.442-.755c.2097743-.3664064.5583658-.6328067.967-.739.128803-.0325569.2611461-.0490158.394-.049.2819041.0007806.5583423.0778378.8.223.48991.2951669.7864443.828091.779 1.4.0012253.2875547-.0732711.5703649-.216.82l-.442.754c-.2098032.3667857-.5582705.6338119-.967.741-.4041671.1055213-.8337977.0438881-1.192-.171zm4.452 2.661c-.7602076-.4655707-1.0104696-1.4524194-.564-2.224l.443-.757c.2100345-.3653596.5581355-.6309398.966-.737.1287045-.0333026.2610579-.0504347.394-.051.2819109.0007308.5583622.0777916.8.223.7446411.4610865.9974322 1.4247698.575 2.192v.006l-.453.78-.006.012c-.2101919.3604078-.5556741.6218924-.9596199.7263061-.4039457.1044136-.8328663.0431001-1.1913801-.1703061zm4.464 2.656c-.7604052-.4568402-1.0170331-1.4371765-.578-2.208l.008-.011.442-.757c.007-.011.012-.024.018-.036.2105442-.3549418.5537054-.6114857.9537172-.7129897.4000119-.1015039.8239749-.0396196 1.1782828.1719897.7639491.4592601 1.0192592 1.4458068.574 2.218l-.454.78c-.2086204.3596339-.552571.6207466-.9550437.7250288-.4024726.1042821-.8299445.0430477-1.1869563-.1700288zm5.639 2.827c-.4023506.1066126-.8307472.0452584-1.187-.17l-.014-.009c-.7552071-.454086-1.0081653-1.4290199-.569-2.193l.281-.484.179-.308c.2794378-.4786642.7917398-.7732569 1.346-.774.2858572.0011491.5660829.0795846.811.227.7576049.4557286 1.0103002 1.4344777.568 2.2l-.462.794c-.2098878.358133-.5552216.6165926-.958.717zm13.126-12.472c-.4354765-.3399312-1.0640687-.2624765-1.404.173-.3399312.4354765-.2624765 1.0640687.173 1.404l.792.62c.3272906.2518848.5403594.6241103.5918163 1.0338874s-.062965.8231266-.3178163 1.1481126c-.2417968.3228064-.6034026.5346388-1.0032207.587697-.399818.0530582-.8041577-.0571288-1.1217793-.305697l-.657-.512c-.0085039-.0076155-.0175255-.0146323-.027-.021-.4366218-.3308601-1.0581734-.2488299-1.3940092.1839764s-.2609249 1.0552561.1680092 1.3960236l.017.013c.6761477.5335882.7969906 1.5119253.271 2.194-.2425662.3195266-.6030168.5285745-1.0008181.5804371s-.7998008-.0577822-1.1161819-.3044371c-.3022276-.233801-.7112692-.274938-1.054-.106-.312532.1525367-.5241154.4556735-.5595257.8016356-.0354102.3459622.1103755.6856767.3855257.8983644.6501931.5202856.7857367 1.4555362.31 2.139l-.036.045c-.2410164.3211326-.6017276.5310666-1 .582-.4016062.0547672-.8084444-.0532429-1.13-.3l-.743-.577c.7897978-1.6794368.1811792-3.6841203-1.409-4.641-.8143426-.4916457-1.7931438-.6323506-2.713-.39-.027.007-.05.021-.077.028-.2170394-.9612923-.8174343-1.7921637-1.662-2.3-.8147979-.4904279-1.7932242-.6307183-2.713-.389-.026.007-.049.02-.074.027-.2111429-.9442465-.7964112-1.762397-1.621854-2.2672008s-1.8203968-.6530464-2.757146-.4107992c-.026.007-.049.021-.075.028-.2158003-.9598897-.813411-1.790406-1.655-2.3-.8193836-.489351-1.8008002-.6296239-2.7244605-.3894045-.9236604.2402193-1.7123855.8408588-2.1895395 1.6674045l-.325.556-2.313-.958 1.594-14.374h6.166c.7734333.0010324 1.5363992-.1787509 2.228-.525l5.363-2.688c1.6994658-.8351043 3.6505177-1.0017663 5.467-.467l-1.525.765c-1.4889677.7451004-2.7683273 1.8501894-3.722 3.215l-4.605 6.581c-.9223639 1.2923791-.6728867 3.0804451.568 4.071 1.8955496 1.5141724 4.6528671 1.2399052 6.213-.618l4.64-5.549c.3359657-.4085633.9319955-.4848201 1.36-.174l10.068 7.037c.4966124.3596675.8180624.9124888.885 1.522.0428146.4395113-.1046086.8763208-.405 1.2-.5911899.5564121-1.5040381.5859832-2.13.069zm17.535-.439-4.324.007-1.676-15.117c-.0250744-.2248398.0469537-.4496989.1980004-.6181227.1510467-.1684237.3667666-.2644164.5929996-.2638773l5.209-.008z"/></g></g></svg>