<?xml version="1.0" encoding="UTF-8" standalone="no"?>
<!-- Created with Inkscape (http://www.inkscape.org/) -->

<svg
   version="1.1"
   id="svg966"
   xml:space="preserve"
   width="682.66669"
   height="682.66669"
   viewBox="0 0 682.66669 682.66669"
   xmlns="http://www.w3.org/2000/svg"
   xmlns:svg="http://www.w3.org/2000/svg"><defs
     id="defs970"><clipPath
       clipPathUnits="userSpaceOnUse"
       id="clipPath980"><path
         d="M 0,512 H 512 V 0 H 0 Z"
         id="path978" /></clipPath></defs><g
     id="g972"
     transform="matrix(1.3333333,0,0,-1.3333333,0,682.66667)"><g
       id="g974"><g
         id="g976"
         clip-path="url(#clipPath980)"><path
           d="M 104,122 H 24 V 10 h 80 z"
           style="fill:none;stroke:#12CD86;stroke-width:20;stroke-linecap:round;stroke-linejoin:round;stroke-miterlimit:10;stroke-dasharray:none;stroke-opacity:1"
           id="path982" /><path
           d="M 360,256 H 280 V 10 h 80 z"
           style="fill:none;stroke:#12CD86;stroke-width:20;stroke-linecap:round;stroke-linejoin:round;stroke-miterlimit:10;stroke-dasharray:none;stroke-opacity:1"
           id="path984" /><path
           d="M 232,198.108 H 152 V 10 h 80 z"
           style="fill:none;stroke:#12CD86;stroke-width:20;stroke-linecap:round;stroke-linejoin:round;stroke-miterlimit:10;stroke-dasharray:none;stroke-opacity:1"
           id="path986" /><path
           d="M 488,310 H 408 V 10 h 80 z"
           style="fill:none;stroke:#12CD86;stroke-width:20;stroke-linecap:round;stroke-linejoin:round;stroke-miterlimit:10;stroke-dasharray:none;stroke-opacity:1"
           id="path988" /><g
           id="g990"
           transform="translate(502,10)"><path
             d="M 0,0 H -492"
             style="fill:none;stroke:#12CD86;stroke-width:20;stroke-linecap:round;stroke-linejoin:round;stroke-miterlimit:10;stroke-dasharray:none;stroke-opacity:1"
             id="path992" /></g><g
           id="g994"
           transform="translate(471.5211,478.1454)"><path
             d="m 0,0 c 0,0 -15.455,11.709 -34.021,6.131 -18.951,-5.693 -23.652,-31.631 -10.777,-41.73 7.393,-5.799 18.517,-10.566 33.509,-15.866 33.554,-11.86 21.15,-59.18 -12.981,-59.408 -13.32,-0.088 -19.547,0.757 -31.248,8.411"
             style="fill:none;stroke:#12CD86;stroke-width:20;stroke-linecap:round;stroke-linejoin:round;stroke-miterlimit:10;stroke-dasharray:none;stroke-opacity:1"
             id="path996" /></g><g
           id="g998"
           transform="translate(448,502)"><path
             d="M 0,0 V -152"
             style="fill:none;stroke:#12CD86;stroke-width:20;stroke-linecap:round;stroke-linejoin:round;stroke-miterlimit:10;stroke-dasharray:none;stroke-opacity:1"
             id="path1000" /></g><g
           id="g1002"
           transform="translate(366.9801,462)"><path
             d="m 0,0 h -62.16 l 15.331,-15.332 -85.088,-85.09 -40.19,40.19 -154.065,-154.064 31.598,-31.598 122.467,122.467 40.19,-40.19 L -15.231,-46.93 0,-62.16 Z"
             style="fill:none;stroke:#12CD86;stroke-width:20;stroke-linecap:round;stroke-linejoin:round;stroke-miterlimit:10;stroke-dasharray:none;stroke-opacity:1"
             id="path1004" /></g></g></g></g></svg>
