<svg width="164" height="58" viewBox="0 0 164 58" fill="none" xmlns="http://www.w3.org/2000/svg">
<g clip-path="url(#clip0_998_16876)">
<path d="M30.7897 0C13.7855 0 -0.00061356 12.9307 -0.00061356 28.88C-0.00061356 44.8293 13.7861 57.76 30.7897 57.76C47.7934 57.76 61.5801 44.8327 61.5801 28.88C61.5801 12.9273 47.7959 0 30.7897 0Z" fill="#4B4B4B"/>
<path d="M26.9898 25.0321V20.7359H16.5155V14.1899H45.0372V20.7359H34.5617V25.0286C43.0753 25.3954 49.4766 26.9769 49.4766 28.8714C49.4766 30.7659 43.0722 32.3474 34.5617 32.7165V46.4778H26.9873V32.7153C18.4892 32.3474 12.1008 30.7671 12.1008 28.8743C12.1008 26.9815 18.4892 25.4012 26.9873 25.0332M26.9873 31.5497V31.5462C27.201 31.559 28.299 31.6208 30.7437 31.6208C32.6983 31.6208 34.0734 31.5688 34.558 31.5451V31.5509C42.0795 31.2384 47.6938 30.0098 47.6938 28.5398C47.6938 27.0698 42.0789 25.843 34.558 25.53V30.3269C34.0654 30.3587 32.6564 30.4367 30.7117 30.4367C28.3759 30.4367 27.2016 30.3454 26.9861 30.3269V25.53C19.4794 25.8436 13.878 27.0733 13.878 28.5381C13.878 30.0029 19.4818 31.2332 26.9861 31.5468" fill="#D9D9D9"/>
</g>
<mask id="mask0_998_16876" style="mask-type:alpha" maskUnits="userSpaceOnUse" x="73" y="22" width="61" height="18">
<path d="M77.29 22.854V32.514C77.29 33.48 77.5277 34.2237 78.003 34.745C78.4783 35.2663 79.176 35.527 80.096 35.527C81.016 35.527 81.7213 35.2663 82.212 34.745C82.7027 34.2237 82.948 33.48 82.948 32.514V22.854H86.881V32.491C86.881 33.9323 86.5743 35.1513 85.961 36.148C85.3477 37.1447 84.5197 37.896 83.477 38.402C82.4497 38.908 81.2997 39.161 80.027 39.161C78.7543 39.161 77.612 38.9157 76.6 38.425C75.6033 37.919 74.8137 37.1677 74.231 36.171C73.6483 35.159 73.357 33.9323 73.357 32.491V22.854H77.29ZM96.0848 39.161C94.9041 39.161 93.8461 38.9693 92.9108 38.586C91.9755 38.2027 91.2241 37.6353 90.6568 36.884C90.1048 36.1327 89.8135 35.228 89.7828 34.17H93.9688C94.0301 34.768 94.2371 35.228 94.5898 35.55C94.9425 35.8567 95.4025 36.01 95.9698 36.01C96.5525 36.01 97.0125 35.8797 97.3498 35.619C97.6871 35.343 97.8558 34.9673 97.8558 34.492C97.8558 34.0933 97.7178 33.7637 97.4418 33.503C97.1811 33.2423 96.8515 33.0277 96.4528 32.859C96.0695 32.6903 95.5175 32.4987 94.7968 32.284C93.7541 31.962 92.9031 31.64 92.2438 31.318C91.5845 30.996 91.0171 30.5207 90.5418 29.892C90.0665 29.2633 89.8288 28.443 89.8288 27.431C89.8288 25.9283 90.3731 24.7553 91.4618 23.912C92.5505 23.0533 93.9688 22.624 95.7168 22.624C97.4955 22.624 98.9291 23.0533 100.018 23.912C101.106 24.7553 101.689 25.936 101.766 27.454H97.5108C97.4801 26.9327 97.2885 26.5263 96.9358 26.235C96.5831 25.9283 96.1308 25.775 95.5788 25.775C95.1035 25.775 94.7201 25.9053 94.4288 26.166C94.1375 26.4113 93.9918 26.7717 93.9918 27.247C93.9918 27.7683 94.2371 28.1747 94.7278 28.466C95.2185 28.7573 95.9851 29.0717 97.0278 29.409C98.0705 29.7617 98.9138 30.099 99.5578 30.421C100.217 30.743 100.784 31.2107 101.26 31.824C101.735 32.4373 101.973 33.227 101.973 34.193C101.973 35.113 101.735 35.9487 101.26 36.7C100.8 37.4513 100.125 38.0493 99.2358 38.494C98.3465 38.9387 97.2961 39.161 96.0848 39.161ZM111.042 22.854C112.744 22.854 114.232 23.1913 115.504 23.866C116.777 24.5407 117.758 25.4913 118.448 26.718C119.154 27.9293 119.506 29.3323 119.506 30.927C119.506 32.5063 119.154 33.9093 118.448 35.136C117.758 36.3627 116.769 37.3133 115.481 37.988C114.209 38.6627 112.729 39 111.042 39H104.993V22.854H111.042ZM110.789 35.596C112.277 35.596 113.434 35.1897 114.262 34.377C115.09 33.5643 115.504 32.4143 115.504 30.927C115.504 29.4397 115.09 28.282 114.262 27.454C113.434 26.626 112.277 26.212 110.789 26.212H108.926V35.596H110.789ZM133.919 22.854V26.005H129.641V39H125.708V26.005H121.43V22.854H133.919Z" fill="#181818"/>
</mask>
<g mask="url(#mask0_998_16876)">
<rect x="-34" y="3" width="215" height="83" fill="#4B4B4B"/>
</g>
<defs>
<clipPath id="clip0_998_16876">
<rect width="61.5807" height="57.76" fill="white" transform="matrix(-1 0 0 1 61.5801 0)"/>
</clipPath>
</defs>
</svg>
