<svg width="20" height="22" viewBox="0 0 20 22" fill="none" xmlns="http://www.w3.org/2000/svg">
<path d="M18.8327 3.93333C17.322 3.53014 15.8461 3.00623 14.4193 2.36667C13.0156 1.75774 11.6606 1.04232 10.366 0.226667L9.99935 0L9.63935 0.233333C8.34479 1.04899 6.98972 1.76441 5.58602 2.37333C4.15688 3.01096 2.67878 3.53264 1.16602 3.93333L0.666016 4.06V9.62C0.666016 18.5467 9.68602 21.8867 9.77268 21.92L9.99935 22L10.226 21.92C10.3193 21.92 19.3327 18.5533 19.3327 9.62V4.06L18.8327 3.93333ZM17.9993 9.62C17.9993 16.9533 11.3327 20.0267 9.99935 20.5733C8.66602 20.0267 1.99935 16.9467 1.99935 9.62V5.09333C3.40566 4.68904 4.78229 4.18784 6.11935 3.59333C7.45649 3.01533 8.75281 2.34712 9.99935 1.59333C11.2459 2.34712 12.5422 3.01533 13.8793 3.59333C15.2164 4.18784 16.593 4.68904 17.9993 5.09333V9.62Z" fill="black"/>
</svg>
