<svg width="86" height="26" viewBox="0 0 86 26" fill="none" xmlns="http://www.w3.org/2000/svg">
<path d="M32.6513 0.454007L21.3925 25.1151H14.0467L8.50683 5.43162C8.17 4.22094 7.87975 3.7768 6.85492 3.26687C5.18508 2.43452 2.42592 1.65482 0 1.16792L0.164833 0.454007H11.9898C12.7626 0.453296 13.5101 0.706226 14.0976 1.16714C14.685 1.62806 15.0737 2.26659 15.1933 2.96749L18.1209 17.2391L25.3521 0.454007H32.6513ZM61.4363 17.0647C61.4649 10.554 51.6323 10.1954 51.7003 7.28712C51.7218 6.40214 52.6392 5.46123 54.6458 5.22107C56.9975 5.01601 59.3659 5.39793 61.5008 6.32647L62.7191 1.09554C60.6406 0.378159 58.4394 0.00716085 56.2189 0C49.3497 0 44.5158 3.3557 44.4728 8.15566C44.4298 11.7055 47.9235 13.6827 50.5573 14.867C53.2663 16.0744 54.1764 16.8509 54.1621 17.9299C54.1442 19.5881 52.0049 20.3151 50.0054 20.3447C46.5117 20.3941 44.4871 19.4795 42.8674 18.7886L41.6097 24.1906C43.2329 24.8749 46.2286 25.4737 49.3353 25.5C56.6346 25.5 61.4112 22.1904 61.4363 17.0647ZM79.5715 25.1151H86L80.3921 0.454007H74.4581C73.8241 0.448613 73.2029 0.618234 72.6751 0.940874C72.1474 1.26351 71.7373 1.72429 71.4982 2.26345L61.0743 25.1151H68.37L69.8213 21.4304H78.7366L79.5715 25.1151ZM71.8207 16.3771L75.4758 7.11605L77.5827 16.3771H71.8207ZM42.5808 0.454007L36.8367 25.1151H29.885L35.6362 0.454007H42.5808Z" fill="#4B4B4B"/>
</svg>
