<svg id="Layer_1" enable-background="new 0 0 511.988 511.988" height="512" viewBox="0 0 511.988 511.988" width="512" xmlns="http://www.w3.org/2000/svg"><g><path d="m443.837 450.097h-150.32v-22.375c0-4.142-3.358-7.5-7.5-7.5h-22.504v-39.622h240.969c4.142 0 7.5-3.358 7.5-7.5s-3.358-7.5-7.5-7.5h-7.5v-22.616c0-4.142-3.358-7.5-7.5-7.5h-7.5v-140.849c0-4.142-3.358-7.5-7.5-7.5s-7.5 3.358-7.5 7.5v140.849h-16.2v-92.978c0-4.142-3.358-7.5-7.5-7.5h-30.256c-4.142 0-7.5 3.358-7.5 7.5v92.978h-142.996v-200.512h204.452v24.92c0 4.142 3.358 7.5 7.5 7.5s7.5-3.358 7.5-7.5v-24.92h7.5c4.142 0 7.5-3.358 7.5-7.5s-3.358-7.5-7.5-7.5h-27.5v-15.456c0-4.142-3.358-7.5-7.5-7.5s-7.5 3.358-7.5 7.5v15.456h-129.452v-15.456c0-4.142-3.358-7.5-7.5-7.5s-7.5 3.358-7.5 7.5v15.456h-20v-15.456c0-4.142-3.358-7.5-7.5-7.5s-7.5 3.358-7.5 7.5v15.456h-27.5c-4.142 0-7.5 3.358-7.5 7.5s3.358 7.5 7.5 7.5h7.5v200.512h-7.5c-4.142 0-7.5 3.358-7.5 7.5v22.616h-14.661v-22.616c0-4.142-3.358-7.5-7.5-7.5h-7.5v-22.275c0-4.142-3.358-7.5-7.5-7.5s-7.5 3.358-7.5 7.5v22.275h-17.405v-92.978c0-4.142-3.358-7.5-7.5-7.5h-30.256c-4.142 0-7.5 3.358-7.5 7.5v92.978h-80.2v-223.183c0-4.142-3.358-7.5-7.5-7.5s-7.5 3.358-7.5 7.5v223.183h-7.5c-4.142 0-7.5 3.358-7.5 7.5v22.616h-7.5c-4.142 0-7.5 3.358-7.5 7.5s3.358 7.5 7.5 7.5h241.006v39.622h-22.504c-4.142 0-7.5 3.358-7.5 7.5v22.375h-150.359c-4.142 0-7.5 3.358-7.5 7.5s3.358 7.5 7.5 7.5h150.357v22.375c0 4.142 3.358 7.5 7.5 7.5h60.009c4.142 0 7.5-3.358 7.5-7.5v-22.375h150.32c4.142 0 7.5-3.358 7.5-7.5s-3.358-7.5-7.5-7.5zm-23.312-200.091h15.256v85.478h-15.256zm-280.318 0h15.256v85.478h-15.256zm-110.2 115.594v-15.116h172.862v15.116zm217.523-15.116h234.452v15.116h-234.452zm30.987 129.488h-45.009v-44.75h45.009z"/><path d="m46.696 441.503c-2.924-2.936-7.672-2.946-10.607-.023-4.322 4.304-6.702 10.027-6.702 16.117s2.38 11.813 6.702 16.116c1.463 1.457 3.377 2.185 5.292 2.185 1.925 0 3.85-.737 5.315-2.208 2.922-2.936 2.912-7.684-.023-10.606-1.474-1.467-2.285-3.416-2.285-5.486 0-2.071.812-4.02 2.286-5.487 2.934-2.924 2.945-7.673.022-10.608z"/><path d="m25.243 422.43c-2.924-2.936-7.672-2.946-10.607-.023-9.438 9.398-14.636 21.895-14.636 35.189 0 13.295 5.198 25.792 14.636 35.19 1.464 1.458 3.377 2.186 5.292 2.186 1.924 0 3.85-.736 5.314-2.208 2.923-2.935 2.913-7.684-.022-10.606-6.591-6.563-10.22-15.285-10.22-24.561s3.63-17.998 10.22-24.56c2.935-2.923 2.946-7.672.023-10.607z"/><path d="m465.292 441.503c-2.923 2.935-2.913 7.684.022 10.606 1.474 1.468 2.286 3.417 2.286 5.488s-.812 4.019-2.286 5.486c-2.935 2.923-2.945 7.671-.023 10.607 1.466 1.472 3.39 2.208 5.315 2.208 1.914 0 3.829-.728 5.292-2.185 4.321-4.303 6.701-10.026 6.702-16.116 0-6.09-2.38-11.813-6.702-16.117-2.933-2.922-7.682-2.913-10.606.023z"/><path d="m497.352 422.407c-2.936-2.923-7.684-2.913-10.607.023-2.922 2.936-2.912 7.684.023 10.607 6.59 6.562 10.22 15.284 10.22 24.56s-3.629 17.999-10.22 24.561c-2.935 2.922-2.945 7.671-.022 10.606 1.465 1.472 3.39 2.208 5.314 2.208 1.914 0 3.829-.728 5.292-2.186 9.438-9.398 14.636-21.896 14.636-35.19s-5.198-25.791-14.636-35.189z"/><path d="m22.507 54.972h7.5v22.919c0 4.142 3.358 7.5 7.5 7.5s7.5-3.358 7.5-7.5v-22.919h142.862v223.603c0 4.142 3.358 7.5 7.5 7.5s7.5-3.358 7.5-7.5v-223.603h7.5c4.142 0 7.5-3.358 7.5-7.5s-3.358-7.5-7.5-7.5h-27.5v-15.456c0-4.142-3.358-7.5-7.5-7.5s-7.5 3.358-7.5 7.5v15.456h-67.862v-15.456c0-4.142-3.358-7.5-7.5-7.5s-7.5 3.358-7.5 7.5v15.456h-20v-15.456c0-4.142-3.358-7.5-7.5-7.5s-7.5 3.358-7.5 7.5v15.456h-27.5c-4.142 0-7.5 3.358-7.5 7.5s3.358 7.5 7.5 7.5z"/><path d="m107.668 77.891c0-4.142-3.358-7.5-7.5-7.5h-30.256c-4.142 0-7.5 3.358-7.5 7.5v52.703c0 4.142 3.358 7.5 7.5 7.5h30.256c4.142 0 7.5-3.358 7.5-7.5zm-15 7.5v11.351h-15.256v-11.351zm-15.256 37.703v-11.352h15.256v11.352z"/><path d="m170.463 77.891c0-4.142-3.358-7.5-7.5-7.5h-30.256c-4.142 0-7.5 3.358-7.5 7.5v52.703c0 4.142 3.358 7.5 7.5 7.5h30.256c4.142 0 7.5-3.358 7.5-7.5zm-15 7.5v11.351h-15.256v-11.351zm-15.256 37.703v-11.352h15.256v11.352z"/><path d="m107.668 159.893c0-4.142-3.358-7.5-7.5-7.5h-30.256c-4.142 0-7.5 3.358-7.5 7.5v52.703c0 4.142 3.358 7.5 7.5 7.5h30.256c4.142 0 7.5-3.358 7.5-7.5zm-15 7.5v11.352h-15.256v-11.352zm-15.256 37.702v-11.351h15.256v11.351z"/><path d="m162.963 152.393h-30.256c-4.142 0-7.5 3.358-7.5 7.5v52.703c0 4.142 3.358 7.5 7.5 7.5h30.256c4.142 0 7.5-3.358 7.5-7.5v-52.703c0-4.143-3.358-7.5-7.5-7.5zm-7.5 15v11.352h-15.256v-11.352zm-15.256 37.702v-11.351h15.256v11.351z"/><path d="m100.168 235.006h-30.256c-4.142 0-7.5 3.358-7.5 7.5v70.703c0 4.142 3.358 7.5 7.5 7.5h30.256c4.142 0 7.5-3.358 7.5-7.5v-70.703c0-4.142-3.358-7.5-7.5-7.5zm-7.5 15v11.351h-15.256v-11.351zm-15.256 55.703v-29.352h15.256v29.352z"/><path d="m325.191 159.893c0-4.142-3.358-7.5-7.5-7.5h-30.256c-4.142 0-7.5 3.358-7.5 7.5v52.703c0 4.142 3.358 7.5 7.5 7.5h30.256c4.142 0 7.5-3.358 7.5-7.5zm-15 7.5v11.352h-15.256v-11.352zm-15.256 37.702v-11.351h15.256v11.351z"/><path d="m387.986 159.893c0-4.142-3.358-7.5-7.5-7.5h-30.256c-4.142 0-7.5 3.358-7.5 7.5v52.703c0 4.142 3.358 7.5 7.5 7.5h30.256c4.142 0 7.5-3.358 7.5-7.5zm-15 7.5v11.352h-15.256v-11.352zm-15.256 37.702v-11.351h15.256v11.351z"/><path d="m413.025 152.393c-4.142 0-7.5 3.358-7.5 7.5v52.703c0 4.142 3.358 7.5 7.5 7.5h30.256c4.142 0 7.5-3.358 7.5-7.5v-52.703c0-4.142-3.358-7.5-7.5-7.5zm22.756 15v11.352h-15.256v-11.352zm-15.256 37.702v-11.351h15.256v11.351z"/><path d="m317.691 235.006h-30.256c-4.142 0-7.5 3.358-7.5 7.5v70.703c0 4.142 3.358 7.5 7.5 7.5h30.256c4.142 0 7.5-3.358 7.5-7.5v-70.703c0-4.142-3.358-7.5-7.5-7.5zm-7.5 15v11.351h-15.256v-11.351zm-15.256 55.703v-29.352h15.256v29.352z"/><path d="m379.884 234.938h-30.256c-4.142 0-7.5 3.358-7.5 7.5v70.703c0 4.142 3.358 7.5 7.5 7.5h30.256c4.142 0 7.5-3.358 7.5-7.5v-70.703c0-4.142-3.358-7.5-7.5-7.5zm-7.5 15v11.351h-15.256v-11.351zm-15.257 55.703v-29.351h15.256v29.352h-15.256z"/></g></svg>