<svg id="Capa_1" enable-background="new 0 0 512.053 512.053" height="512" viewBox="0 0 512.053 512.053" width="512" xmlns="http://www.w3.org/2000/svg"><g id="XMLID_386_"><path id="XMLID_387_" d="m491.945 282.911v-46.94c0-63.017-24.54-122.261-69.099-166.819-92.197-92.196-241.431-92.208-333.64 0-44.558 44.558-69.098 103.802-69.098 166.819v46.94c-11.685 4.132-20.081 15.284-20.081 28.366v50.204c0 16.587 13.495 30.081 30.081 30.081h30.164v.041c0 16.587 13.495 30.082 30.082 30.082h20.081c16.587 0 30.082-13.495 30.082-30.082v-110.448c0-16.587-13.495-30.081-30.082-30.081h-20.082c-3.535 0-6.928.618-10.082 1.743v-16.846c0-96.911 78.843-175.755 175.755-175.755s175.755 78.844 175.755 175.755v16.846c-3.154-1.125-6.546-1.743-10.082-1.743h-20.082c-16.587 0-30.081 13.494-30.081 30.081v110.449c0 16.587 13.495 30.082 30.081 30.082h20.083c16.587 0 30.082-13.495 30.082-30.082v-.041h20.164v70.327c0 5.559-4.522 10.081-10.082 10.081h-132.288c-4.131-11.685-15.284-20.081-28.366-20.081h-50.204c-16.587 0-30.082 13.494-30.082 30.081s13.495 30.082 30.082 30.082h50.204c13.082 0 24.234-8.398 28.366-20.082h132.287c16.587 0 30.082-13.494 30.082-30.081v-72.043c11.685-4.132 20.081-15.283 20.081-28.365v-50.204c0-13.082-8.396-24.235-20.081-28.367zm-190.735 209.142h-50.204c-5.559 0-10.082-4.522-10.082-10.082 0-5.559 4.523-10.081 10.082-10.081h50.204c5.559 0 10.081 4.522 10.081 10.081.001 5.56-4.522 10.082-10.081 10.082zm-271.102-120.49c-5.559 0-10.081-4.522-10.081-10.081v-50.204c0-5.56 4.522-10.082 10.081-10.082h30.164v70.367zm60.245-100.489h20.081c5.559 0 10.082 4.522 10.082 10.081v110.449c0 5.56-4.522 10.082-10.082 10.082h-20.081c-5.559 0-10.082-4.522-10.082-10.082 0-19.495 0-97.578 0-110.449.001-5.559 4.523-10.081 10.082-10.081zm165.674-230.858c-107.94 0-195.755 87.815-195.755 195.755v45.225h-20.164v-45.225c0-119.058 96.861-215.918 215.919-215.918s215.918 96.86 215.918 215.918v45.225h-20.164c0-26.495 0-18.837 0-45.225 0-107.939-87.815-195.755-195.754-195.755zm175.754 351.388c0 5.56-4.523 10.082-10.082 10.082h-20.082c-5.559 0-10.081-4.522-10.081-10.082v-110.449c0-5.559 4.522-10.081 10.081-10.081h20.083c5.559 0 10.082 4.522 10.082 10.081-.001 12.869-.001 90.954-.001 110.449zm60.246-30.122c0 5.559-4.523 10.081-10.082 10.081h-30.164v-70.367h30.164c5.559 0 10.082 4.522 10.082 10.082z"/><path id="XMLID_395_" d="m333.199 136.745c-.637-7.174-5.023-13.097-11.176-15.09-6.185-2.002-12.896.275-17.952 6.094-5.846 6.731-32.836 54.211-40.969 68.602-1.75 3.096-1.723 6.889.069 9.96 1.793 3.071 5.081 4.96 8.637 4.96h41.331c-.051 6.941-.105 13.61-.158 19.592-.049 5.523 4.389 10.039 9.911 10.088 5.732 0 10.04-4.545 10.088-9.912.032-3.63.094-10.854.161-19.767h3.211c5.523 0 10-4.478 10-10 0-5.523-4.477-10-10-10h-3.074c.149-24.437.232-51.036-.079-54.527zm-19.924 54.527h-24.273c9.368-16.364 18.567-32.088 24.41-41.6.022 10.06-.04 25.531-.137 41.6z"/><path id="XMLID_398_" d="m244.059 161.943c.106-.384.19-.772.251-1.165.512-3.527.693-4.047.693-5.287 0-19.27-17.914-34.947-39.933-34.947-18.859 0-35.305 11.699-39.104 27.817-1.267 5.375 2.064 10.76 7.439 12.027 5.377 1.263 10.761-2.062 12.028-7.439 1.667-7.072 10.109-12.405 19.637-12.405 10.52 0 19.45 6.488 19.914 14.309l-.344 2.246c-1.054 3.439-3.71 9.04-10.31 16.898-24.955 29.718-35.726 41.227-40.279 46.896-1.915 2.384-5.481 6.822-3.775 12.535 1.041 3.485 3.808 6.162 7.398 7.158 1.158.322 2.735.761 23.414.761 8.234 0 19.5-.069 34.97-.244 5.522-.062 9.949-4.589 9.887-10.112-.062-5.483-4.527-9.887-9.997-9.887-2.557 0-16.864.225-35.84.225 6.634-7.58 16.065-18.425 29.538-34.471 7.528-8.963 12.242-17.113 14.413-24.915z"/><path id="XMLID_399_" d="m351.373 271.114c0-5.522-4.477-10-10-10h-170.694c-5.523 0-10 4.478-10 10s4.477 10 10 10h170.694c5.523 0 10-4.478 10-10z"/><path id="XMLID_400_" d="m271.736 321.278-43.812 84.814c-2.535 4.907-.611 10.939 4.295 13.475 4.917 2.539 10.943.603 13.474-4.295l51.349-99.404c3.432-6.647-1.398-14.59-8.885-14.59h-64.261c-5.523 0-10 4.478-10 10s4.477 10 10 10z"/></g></svg>