<svg id="Layer_1" enable-background="new 0 0 512.008 512.008" height="512" viewBox="0 0 512.008 512.008" width="512" xmlns="http://www.w3.org/2000/svg"><g><path d="m237.378 333.674v-44.114c0-8.284-6.716-15-15-15h-44.114l-26.8-26.799v-232.787c-.738-19.881-29.269-19.866-30 0v232.787l-26.798 26.799h-44.115c-8.284 0-15 6.716-15 15v44.114l-31.193 31.194c-5.811 5.584-5.81 15.629 0 21.213l31.193 31.192v44.114c0 8.284 6.716 15 15 15h44.114l31.192 31.193c5.584 5.811 15.629 5.81 21.213 0l31.193-31.193h44.114c8.284 0 15-6.716 15-15v-44.113l31.192-31.193c5.857-5.857 5.857-15.355 0-21.213zm-25.606 66.781c-2.813 2.813-4.394 6.628-4.394 10.606v35.326h-35.327c-3.979 0-7.794 1.58-10.606 4.394l-24.98 24.98-24.979-24.98c-2.812-2.813-6.628-4.394-10.606-4.394h-35.329v-35.327c0-3.979-1.58-7.794-4.394-10.606l-24.98-24.979 24.98-24.98c2.813-2.812 4.394-6.628 4.394-10.606v-35.329h35.327c3.979 0 7.794-1.58 10.606-4.394l24.979-24.979 24.98 24.979c2.813 2.813 6.628 4.394 10.606 4.394h35.327v35.327c0 3.979 1.58 7.793 4.394 10.606l24.979 24.98z"/><path d="m507.614 206.346-27.978-27.978v-39.566c0-8.284-6.716-15-15-15h-39.566l-23.584-23.583v-85.245c-.738-19.881-29.269-19.866-30 0v85.245l-23.584 23.583h-39.566c-8.284 0-15 6.716-15 15v39.567l-27.978 27.977c-5.811 5.584-5.81 15.629 0 21.213l27.978 27.978v39.566c0 8.284 6.716 15 15 15h39.566l27.978 27.978c5.858 5.858 15.355 5.858 21.213 0l27.978-27.978h39.566c8.284 0 15-6.716 15-15v-39.566l27.978-27.978c5.857-5.857 5.857-15.355-.001-21.213zm-53.584 32.371c-2.813 2.812-4.394 6.628-4.394 10.606v30.779h-30.779c-3.979 0-7.794 1.58-10.606 4.394l-21.765 21.765-21.765-21.765c-2.812-2.813-6.628-4.394-10.606-4.394h-30.779v-30.779c0-3.979-1.58-7.794-4.394-10.606l-21.765-21.765 21.765-21.764c2.813-2.812 4.394-6.628 4.394-10.606v-30.78h30.779c3.979 0 7.793-1.58 10.606-4.394l21.765-21.764 21.765 21.764c2.813 2.813 6.628 4.394 10.606 4.394h30.779v30.779c0 3.979 1.58 7.794 4.394 10.606l21.765 21.765z"/></g></svg>