<svg width="1154" height="582" viewBox="0 0 1154 582" fill="none" xmlns="http://www.w3.org/2000/svg">
<rect width="1154" height="582" fill="white"/>
<path fill-rule="evenodd" clip-rule="evenodd" d="M1083.47 299.274C1088.83 305.977 1093.07 314.025 1094.85 323.197C1097.31 335.049 1089.49 349.579 1082.36 358.29C1075.22 367.452 1061.84 371.034 1052.25 364.552C1042.65 358.069 1036.63 341.973 1028.15 329.68C1023.24 322.746 1017.44 316.715 1011.64 312.47C978.84 286.991 937.125 302.415 896.521 294.367C868.187 288.556 839.852 271.116 827.363 247.202C819.55 233.344 817.767 217.027 816.205 206.299C815.754 200.268 815.093 195.793 812.409 171.879C809.064 187.303 805.719 202.506 805.939 218.823C805.939 236.926 809.284 255.933 818.429 271.356C832.04 294.828 858.141 311.597 886.926 316.956C927.98 324.783 974.604 310.252 1002.5 335.059C1007.63 339.534 1012.31 345.345 1015.66 351.827C1022.8 363.448 1027.71 376.865 1037.52 384.461C1051.13 394.516 1073.22 392.73 1088.83 382.896C1102.44 373.954 1110.25 358.079 1111.81 339.083C1112.7 325.445 1110.7 310.473 1101.1 292.139L955.634 116.195C968.123 105.468 980.623 94.2885 991.11 81.544C999.813 70.5858 1006.72 58.0721 1014.09 46C992.892 50.024 971.699 53.5965 948.933 52.9342C932.197 52.4826 915.02 49.3617 900.517 54.9412C888.248 59.4168 877.982 69.6927 868.167 80.4201C843.848 75.7237 819.971 70.365 796.544 72.1513C761.519 74.1583 727.606 91.1476 691.459 97.4094C672.049 100.982 652.188 101.654 633.899 96.7371C621.63 93.1646 610.252 87.3443 598.874 81.534C606.015 90.4752 613.597 99.868 622.752 105.899C634.35 113.496 649.083 117.299 663.576 118.644C684.989 120.43 705.742 118.192 726.044 112.612C746.566 107.475 766.647 98.5333 786.729 95.6232C815.955 91.5991 846.072 98.9749 875.969 106.13C883.551 95.4024 890.912 85.3373 901.629 79.3062C906.988 76.1753 913.898 74.6098 920.368 73.7167C936.213 71.4789 952.048 72.8236 967.663 74.6098C962.535 79.7478 957.397 85.1165 952.048 90.0337C943.124 98.3025 933.75 106.571 924.605 114.85L1081 295.691C1081.69 297.036 1082.8 298.15 1083.47 299.274Z" fill="black"/>
<path fill-rule="evenodd" clip-rule="evenodd" d="M616.282 177.89C634.801 167.604 653.32 159.335 672.95 151.508C700.173 140.55 730.07 134.298 759.516 128.036C732.744 125.798 706.413 123.791 680.763 127.815C645.067 133.184 612.045 151.287 577.461 164.473C547.784 175.201 517.226 183.47 486.658 184.593C451.854 185.938 416.598 178.783 381.573 171.407C411.691 185.487 442.258 197.338 474.83 204.934C500.039 210.745 527.262 212.31 552.251 206.721C575.007 201.583 595.539 189.741 616.282 177.89Z" fill="black"/>
<path fill-rule="evenodd" clip-rule="evenodd" d="M728.957 438.76C757.512 395.399 783.393 331.235 822.665 298.16C780.498 318.721 750.151 370.813 715.126 402.775C687.683 357.617 631.234 340.186 583.489 360.969C621.859 358.059 666.93 377.286 687.012 410.15C707.093 443.677 706.642 485.483 685.449 517.897C789.643 503.145 895.168 508.955 996.688 536C911.684 500.004 820.431 481.008 728.507 478.328C731.632 465.363 731.632 452.167 728.957 438.76Z" fill="black"/>
<path fill-rule="evenodd" clip-rule="evenodd" d="M354.13 352.921C378.668 338.611 403.657 324.081 429.538 313.132C465.685 297.929 505.167 288.767 544.218 279.826C508.522 277.368 473.267 275.581 439.353 281.612C392.059 289.66 348.321 314.477 302.809 333.022C263.538 348.225 223.164 359.845 182.33 362.083C135.927 364.993 88.8435 356.494 42 347.552C82.3834 365.656 122.767 383.769 166.495 393.152C200.409 400.307 236.555 401.641 269.567 393.372C299.474 385.555 326.917 369.238 354.13 352.921Z" fill="black"/>
<path fill-rule="evenodd" clip-rule="evenodd" d="M526.15 252.33C543.327 247.192 560.735 241.602 578.132 238.692C602.45 234.447 628.11 234.668 653.54 234.668C631.896 227.965 610.483 221.924 588.839 220.589C558.722 218.803 528.154 227.744 497.365 232.661C471.034 236.234 444.492 237.578 419.052 233.113C390.047 227.975 362.383 216.123 334.94 203.831C357.255 220.82 379.56 237.809 405 249.881C424.862 259.274 446.946 265.305 468.36 264.854C488.001 264.402 507.191 258.361 526.15 252.33Z" fill="black"/>
</svg>
