<svg width="546" height="158" viewBox="0 0 546 158" fill="none" xmlns="http://www.w3.org/2000/svg">
<path d="M61.4971 39.3262L25.7891 155H-12.1318L41.6816 8.54688H65.7217L61.4971 39.3262ZM91.0693 155L55.2607 39.3262L50.6338 8.54688H74.9756L129.091 155H91.0693ZM89.6611 100.382V127.641H14.5234V100.382H89.6611ZM138.546 0.5H172.443V128.244L168.923 155H138.546V0.5ZM239.232 99.376V101.488C239.232 109.736 238.394 117.247 236.718 124.02C235.041 130.792 232.46 136.66 228.973 141.622C225.486 146.517 221.093 150.306 215.796 152.988C210.498 155.671 204.229 157.012 196.986 157.012C190.415 157.012 184.782 155.604 180.088 152.787C175.394 149.904 171.471 145.947 168.319 140.918C165.168 135.822 162.619 129.954 160.675 123.315C158.73 116.61 157.188 109.435 156.048 101.79V99.2754C157.188 91.6979 158.73 84.5898 160.675 77.9512C162.619 71.2454 165.168 65.3779 168.319 60.3486C171.471 55.2523 175.36 51.2959 179.987 48.4795C184.681 45.596 190.281 44.1543 196.785 44.1543C204.094 44.1543 210.398 45.529 215.695 48.2783C221.06 51.0277 225.486 54.8835 228.973 59.8457C232.46 64.8079 235.041 70.6419 236.718 77.3477C238.394 84.0534 239.232 91.3962 239.232 99.376ZM205.335 101.488V99.376C205.335 95.4196 205.1 91.6979 204.631 88.2109C204.161 84.724 203.323 81.6393 202.116 78.957C200.909 76.2747 199.199 74.1624 196.986 72.6201C194.773 71.0778 191.89 70.3066 188.336 70.3066C184.715 70.3066 181.664 70.9102 179.183 72.1172C176.769 73.3242 174.824 75.0677 173.349 77.3477C171.94 79.5605 170.935 82.3099 170.331 85.5957C169.728 88.8145 169.459 92.4691 169.526 96.5596V104.506C169.392 110.072 169.895 114.833 171.035 118.789C172.175 122.745 174.153 125.763 176.97 127.842C179.786 129.921 183.642 130.96 188.537 130.96C192.158 130.96 195.075 130.256 197.288 128.848C199.568 127.439 201.278 125.428 202.418 122.812C203.558 120.197 204.329 117.079 204.731 113.458C205.134 109.837 205.335 105.847 205.335 101.488ZM250.096 101.689V99.5771C250.096 91.5973 251.236 84.2546 253.516 77.5488C255.796 70.776 259.148 64.9085 263.574 59.9463C268 54.984 273.465 51.1283 279.97 48.3789C286.474 45.5625 293.985 44.1543 302.501 44.1543C311.084 44.1543 318.628 45.5625 325.133 48.3789C331.704 51.1283 337.203 54.984 341.629 59.9463C346.055 64.9085 349.408 70.776 351.688 77.5488C353.967 84.2546 355.107 91.5973 355.107 99.5771V101.689C355.107 109.602 353.967 116.945 351.688 123.718C349.408 130.424 346.055 136.291 341.629 141.32C337.203 146.283 331.738 150.138 325.233 152.888C318.729 155.637 311.218 157.012 302.702 157.012C294.186 157.012 286.642 155.637 280.07 152.888C273.499 150.138 268 146.283 263.574 141.32C259.148 136.291 255.796 130.424 253.516 123.718C251.236 116.945 250.096 109.602 250.096 101.689ZM283.993 99.5771V101.689C283.993 105.78 284.295 109.602 284.898 113.156C285.502 116.71 286.508 119.828 287.916 122.511C289.324 125.126 291.235 127.171 293.649 128.646C296.063 130.122 299.081 130.859 302.702 130.859C306.256 130.859 309.207 130.122 311.554 128.646C313.968 127.171 315.879 125.126 317.287 122.511C318.695 119.828 319.701 116.71 320.305 113.156C320.908 109.602 321.21 105.78 321.21 101.689V99.5771C321.21 95.6208 320.908 91.8991 320.305 88.4121C319.701 84.8581 318.695 81.7399 317.287 79.0576C315.879 76.3083 313.968 74.1624 311.554 72.6201C309.14 71.0778 306.122 70.3066 302.501 70.3066C298.947 70.3066 295.963 71.0778 293.549 72.6201C291.202 74.1624 289.324 76.3083 287.916 79.0576C286.508 81.7399 285.502 84.8581 284.898 88.4121C284.295 91.8991 283.993 95.6208 283.993 99.5771ZM433.766 128.546V46.166H467.764V155H435.979L433.766 128.546ZM436.984 106.417L445.836 106.216C445.836 113.525 444.964 120.298 443.221 126.534C441.477 132.703 438.896 138.068 435.476 142.628C432.123 147.188 427.965 150.742 423.003 153.29C418.108 155.771 412.441 157.012 406.004 157.012C400.639 157.012 395.711 156.274 391.218 154.799C386.792 153.257 382.97 150.876 379.751 147.657C376.532 144.371 374.018 140.18 372.207 135.084C370.464 129.921 369.592 123.751 369.592 116.576V46.166H403.489V116.777C403.489 119.191 403.791 121.27 404.395 123.014C404.998 124.757 405.87 126.232 407.01 127.439C408.15 128.579 409.558 129.451 411.234 130.055C412.978 130.591 414.956 130.859 417.169 130.859C422.265 130.859 426.255 129.786 429.139 127.641C432.022 125.495 434.034 122.578 435.174 118.89C436.381 115.201 436.984 111.044 436.984 106.417ZM543.807 46.166V69.7031H478.225V46.166H543.807ZM492.005 19.1084H525.902V119.493C525.902 122.377 526.238 124.623 526.908 126.232C527.579 127.775 528.719 128.881 530.328 129.552C532.005 130.155 534.217 130.457 536.967 130.457C538.911 130.457 540.521 130.424 541.795 130.356C543.069 130.222 544.276 130.055 545.416 129.854V154.095C542.533 155.034 539.515 155.738 536.363 156.207C533.212 156.743 529.859 157.012 526.305 157.012C519.062 157.012 512.86 155.872 507.696 153.592C502.6 151.312 498.711 147.724 496.028 142.829C493.346 137.934 492.005 131.563 492.005 123.718V19.1084Z" fill="#C4C4C4" fill-opacity="0.14"/>
</svg>
