<svg id="Capa_1" enable-background="new 0 0 511.976 511.976" height="512" viewBox="0 0 511.976 511.976" width="512" xmlns="http://www.w3.org/2000/svg"><g><path d="m255.988 0-195 65.162v181.066c0 119.393 76.116 226.12 190.257 264.167l4.743 1.581 4.743-1.581c113.265-37.755 190.257-143.847 190.257-264.167v-181.066zm165 246.229c0 105.466-66.091 198.897-165 234.072-98.909-35.175-165-128.606-165-234.072v-159.461l165-55.137 165 55.137z"/><path d="m120.988 255.965c0 74.439 60.561 135 135 135s135-60.561 135-135-60.561-135-135-135-135 60.561-135 135zm240 0c0 57.897-47.103 105-105 105s-105-47.103-105-105 47.103-105 105-105 105 47.103 105 105z"/><path d="m210.988 234.752-21.213 21.213 51.213 51.213 81.214-81.213-21.214-21.213-60 60z"/></g></svg>