<svg id="Layer_1" enable-background="new 0 0 512 512" height="512" viewBox="0 0 512 512" width="512" xmlns="http://www.w3.org/2000/svg"><g><path d="m344.611 36.405-82.738-35.208c-3.752-1.596-7.994-1.596-11.746 0l-82.738 35.208c-70.558 30.025-114.389 96.311-114.389 172.992v287.603c0 8.284 6.716 15 15 15h376c8.284 0 15-6.716 15-15v-287.603c0-76.681-43.831-142.967-114.389-172.992zm84.389 445.595h-346v-272.603c0-64.444 36.837-120.153 96.135-145.387l76.865-32.709 76.865 32.709c59.298 25.234 96.135 80.943 96.135 145.387z"/><path d="m328.619 312.397h-.111c-33.328.257-64.447-17.522-81.097-46.376-16.659-28.853-16.512-64.649.385-93.421 2.733-4.655 2.755-10.421.056-15.096-2.681-4.644-7.634-7.5-12.989-7.5h-.112c-21.116.157-41.987 5.847-60.356 16.453-28.392 16.392-48.7 42.858-57.185 74.524-22.161 76.919 40.819 156.139 118.756 154.477 20.807-.001 41.884-5.29 61.161-16.42 18.37-10.605 33.732-25.836 44.427-44.044 5.909-9.79-1.506-22.738-12.935-22.597zm-46.492 40.66c-14.568 8.411-30.488 12.407-46.212 12.406-32.071-.003-63.309-16.634-80.465-46.349-30.428-51.089-2.3-120.08 54.989-135.584-21.717 66.093 21.838 141.517 89.924 155.753-5.464 5.3-11.589 9.936-18.236 13.774z"/><path d="m349.933 150.013c-5.649-7.271-17.581-7.27-23.23-.001l-15.979 19.555-23.534 9.154c-4.195 1.632-7.437 5.062-8.827 9.345-1.392 4.281-.786 8.962 1.649 12.748l13.658 21.239 1.435 25.211c.256 4.495 2.517 8.638 6.159 11.283 3.642 2.646 8.278 3.516 12.634 2.371l24.421-6.427 24.421 6.427c4.323 1.142 8.987.284 12.634-2.371 3.643-2.646 5.903-6.788 6.159-11.283l1.435-25.211 13.657-21.239c2.436-3.787 3.041-8.467 1.649-12.749-1.391-4.281-4.632-7.712-8.827-9.344l-23.534-9.154zm5.665 59.134c-1.399 2.177-2.213 4.678-2.359 7.262l-.616 10.826-10.487-2.76c-2.502-.659-5.133-.659-7.635 0l-10.487 2.76-.616-10.826c-.146-2.584-.96-5.085-2.359-7.262l-5.865-9.121 10.106-3.932c2.411-.938 4.539-2.484 6.177-4.487l6.862-8.397 6.861 8.396c1.638 2.004 3.766 3.55 6.177 4.488l10.107 3.932z"/></g></svg>